<?xml version="1.0" encoding="UTF-8"?>
<svg version="1.1" xmlns="http://www.w3.org/2000/svg" width="1672" height="941">
<path d="M0 0 C551.76 0 1103.52 0 1672 0 C1672 310.53 1672 621.06 1672 941 C1120.24 941 568.48 941 0 941 C0 630.47 0 319.94 0 0 Z " fill="#0463FA" transform="translate(0,0)"/>
<path d="M0 0 C4.7102718 2.62833166 8.40037801 6.61325601 10.8125 11.4375 C10.9047681 12.94535353 10.93442932 14.45725304 10.93275452 15.96792603 C10.93412918 16.92147476 10.93550385 17.8750235 10.93692017 18.85746765 C10.93152725 20.431632 10.93152725 20.431632 10.92602539 22.03759766 C10.92617142 23.14004318 10.92631744 24.24248871 10.9264679 25.37834167 C10.92576912 29.03610171 10.91797833 32.69381132 10.91015625 36.3515625 C10.90829195 38.88219169 10.9068681 41.41282125 10.90586853 43.94345093 C10.90243557 49.93223456 10.89454755 55.92099642 10.88451904 61.90977132 C10.87335033 68.7270978 10.86784554 75.54442513 10.86282361 82.36175847 C10.85236475 96.38701574 10.83477001 110.41225687 10.8125 124.4375 C11.69292969 123.89480469 12.57335937 123.35210937 13.48046875 122.79296875 C14.65363653 122.0702974 15.82681414 121.34764199 17 120.625 C17.57814453 120.26857422 18.15628906 119.91214844 18.75195312 119.54492188 C20.43746993 118.50694825 22.12496025 117.47218147 23.8125 116.4375 C24.70195312 115.88578125 25.59140625 115.3340625 26.5078125 114.765625 C29.10731417 113.26760709 31.78536389 112.25276944 34.609375 111.25390625 C36.82344458 110.46332424 36.82344458 110.46332424 38.953125 109.46484375 C57.45798272 101.18801113 77.47160096 102.41612495 96.8125 106.4375 C96.8125 107.0975 96.8125 107.7575 96.8125 108.4375 C98.33037109 108.61152344 98.33037109 108.61152344 99.87890625 108.7890625 C121.71502576 112.38866115 140.10931085 128.80834598 152.71875 146.04296875 C156.8125 151.96152712 156.8125 151.96152712 156.8125 155.4375 C157.4725 155.4375 158.1325 155.4375 158.8125 155.4375 C159.06644531 156.15035156 159.32039062 156.86320313 159.58203125 157.59765625 C161.86832009 163.99283848 161.86832009 163.99283848 164.5 170.25 C167.60326808 177.7865082 168.60225331 188.20467865 165.94140625 195.984375 C163.2828298 200.62162966 159.87789856 203.58166107 154.8125 205.4375 C150.14594665 206.01306432 145.49265606 205.94395476 140.79907227 205.89160156 C139.37933891 205.89047204 137.95960322 205.89110899 136.53987122 205.89337158 C132.70135841 205.8945156 128.86334926 205.87105755 125.02495313 205.84307575 C121.00778611 205.8180096 116.99060657 205.815716 112.97337341 205.81097412 C105.37322903 205.7985596 97.77331579 205.76575879 90.17327303 205.72557616 C81.51792718 205.68081086 72.86257009 205.65885947 64.20713723 205.63879442 C46.40879395 205.59702469 28.61066558 205.52670245 10.8125 205.4375 C11.25993932 207.64308815 11.71446344 209.84723962 12.171875 212.05078125 C12.42420898 213.27837158 12.67654297 214.50596191 12.93652344 215.77075195 C16.68746371 231.47180323 25.60776181 245.03654214 38.9375 254.125 C49.95021681 260.64883767 58.9932371 262.87208465 71.6875 262.9375 C72.75758301 262.94386475 73.82766602 262.95022949 74.93017578 262.95678711 C81.27702658 262.85413059 86.03129061 262.06248156 91.8125 259.4375 C93.34197266 258.76460937 93.34197266 258.76460937 94.90234375 258.078125 C109.46711817 250.96556026 117.5679788 241.98027774 124.875 227.625 C128.40225327 220.73094015 131.69689595 216.36395296 138.75 213.0625 C145.31243747 211.72322705 150.05970174 211.85841516 155.91796875 215.09375 C160.06006549 218.03164955 163.20518066 221.61554198 164.8125 226.4375 C165.58599919 234.55924145 163.33373594 240.1799908 159.8125 247.4375 C159.31621094 248.48164062 158.81992187 249.52578125 158.30859375 250.6015625 C146.64706219 273.69982501 127.26180755 290.02858311 103.26171875 299.4375 C100.79423132 300.23373124 98.34019408 300.85922179 95.8125 301.4375 C94.11287109 301.85322266 94.11287109 301.85322266 92.37890625 302.27734375 C67.00675667 307.82191219 40.81289824 304.08390654 18.6875 290.1875 C12.51912044 286.16998125 7.09532458 281.56775203 1.8125 276.4375 C0.89597656 275.61378906 0.89597656 275.61378906 -0.0390625 274.7734375 C-16.22384226 259.7711074 -27.44140462 234.83780161 -28.46880913 212.93135452 C-28.61953485 207.70410049 -28.60515612 202.47745619 -28.59155273 197.24853516 C-28.59726634 195.24961976 -28.6042344 193.25070762 -28.61235046 191.25180054 C-28.63017849 185.86378681 -28.62913422 180.47593682 -28.62340808 175.08790255 C-28.62030402 170.57955689 -28.62642151 166.07124214 -28.63244683 161.5629009 C-28.64645368 150.92943997 -28.6449602 140.29605947 -28.63354492 129.66259766 C-28.6220414 118.70493443 -28.63618566 107.74751532 -28.6629414 96.78988421 C-28.68509908 87.36108736 -28.69173637 77.93236715 -28.68586498 68.50354612 C-28.68249755 62.88076949 -28.68489766 57.25814968 -28.70211601 51.63539505 C-28.71758624 46.35418722 -28.7136286 41.0733421 -28.69481087 35.79214859 C-28.69112659 33.85720387 -28.69422874 31.92223223 -28.70469666 29.98731232 C-28.71791799 27.34111057 -28.70634979 24.69610802 -28.68870544 22.04995728 C-28.69831045 21.28905623 -28.70791546 20.52815519 -28.71781152 19.74419653 C-28.63048449 13.3562954 -26.69368876 7.97255082 -22.15234375 3.37890625 C-21.48332031 2.92386719 -20.81429687 2.46882813 -20.125 2 C-19.45339844 1.52691406 -18.78179687 1.05382812 -18.08984375 0.56640625 C-12.52582447 -2.73544503 -5.81510058 -2.61679526 0 0 Z " fill="#FBFCFE" transform="translate(159.1875,367.5625)"/>
<path d="M0 0 C4.09765163 2.04882581 6.38963893 3.72437765 8 8 C8.24050903 11.06256104 8.24050903 11.06256104 8.22705078 14.69628906 C8.22734283 15.36011597 8.22763489 16.02394287 8.22793579 16.70788574 C8.22654658 18.89393351 8.21100503 21.07963704 8.1953125 23.265625 C8.19158091 24.78448297 8.18873463 26.30334335 8.18673706 27.82220459 C8.1791121 31.81382937 8.15947344 35.80530789 8.1373291 39.796875 C8.11684614 43.87237571 8.10773011 47.94790012 8.09765625 52.0234375 C8.07622641 60.01569201 8.04210426 68.00782779 8 76 C8.75055664 75.51571533 9.50111328 75.03143066 10.27441406 74.5324707 C11.26151367 73.89913818 12.24861328 73.26580566 13.265625 72.61328125 C14.73177246 71.67029175 14.73177246 71.67029175 16.22753906 70.70825195 C24.17472436 65.81159331 32.74656439 63.60678266 42 63 C43.01964844 62.92265625 44.03929687 62.8453125 45.08984375 62.765625 C61.91021864 62.07200129 77.87450071 68.12284718 90.3125 79.375 C101.83073085 90.23140985 110.68367638 104.44394326 111.2109375 120.6328125 C111.37556563 132.2684127 110.82514996 142.26015008 106 153 C105.60039063 153.95132813 105.20078125 154.90265625 104.7890625 155.8828125 C97.1504012 172.79383722 83.40909281 182.54925207 66.734375 189.6171875 C52.80598018 194.77477303 34.15366801 193.49245023 20.7421875 187.55859375 C6.55797734 180.46648867 -8.11029245 167.51662437 -13.37890625 152.1171875 C-15.77987643 144.72523748 -18.11481309 137.52866011 -18.14044189 129.69361877 C-18.14615204 128.64364716 -18.15186218 127.59367554 -18.15774536 126.5118866 C-18.15886322 125.37044693 -18.15998108 124.22900726 -18.16113281 123.05297852 C-18.16609772 121.84268982 -18.17106262 120.63240112 -18.17617798 119.38543701 C-18.18826103 116.07343626 -18.19573754 112.76149842 -18.20018864 109.44948316 C-18.2031256 107.37848405 -18.20723148 105.30749041 -18.21169281 103.23649406 C-18.22535329 96.75131271 -18.23502807 90.26614392 -18.2388947 83.78094918 C-18.24337762 76.30430285 -18.26094229 68.82783913 -18.2898953 61.35124832 C-18.31152509 55.56426132 -18.3215996 49.77732567 -18.32293582 43.99029869 C-18.32398255 40.53714236 -18.32986262 37.08415803 -18.34775543 33.63104439 C-18.36732686 29.77944181 -18.36294197 25.92806711 -18.35644531 22.07641602 C-18.3656601 20.93700058 -18.37487488 19.79758514 -18.3843689 18.62364197 C-18.34738693 11.63257904 -17.65779152 7.0604872 -12.9375 1.625 C-8.63418993 -0.75555451 -4.81083427 -0.76973348 0 0 Z " fill="#F9FBFD" transform="translate(987,441)"/>
<path d="M0 0 C3.54652163 1.96110624 5.7577731 4.63665965 8 8 C8.24050903 10.94230652 8.24050903 10.94230652 8.22705078 14.58276367 C8.22734283 15.24644455 8.22763489 15.91012543 8.22793579 16.59391785 C8.22654357 18.78540161 8.21098779 20.97654445 8.1953125 23.16796875 C8.19158198 24.68825596 8.18873519 26.20854558 8.18673706 27.72883606 C8.17910366 31.72869514 8.15945774 35.72840879 8.1373291 39.72821045 C8.11686434 43.81032341 8.107734 47.89245989 8.09765625 51.97460938 C8.07621152 59.98313963 8.04207917 67.99155172 8 76 C8.66459229 75.59297852 9.32918457 75.18595703 10.01391602 74.76660156 C11.33927368 73.96174316 11.33927368 73.96174316 12.69140625 73.140625 C13.56224854 72.60985352 14.43309082 72.07908203 15.33032227 71.53222656 C29.14286391 63.60469923 47.77778775 61.0198239 63.30859375 64.9453125 C79.36462765 69.74432657 94.66941335 79.89721207 102.98535156 94.76123047 C111.87248981 111.71683954 114.07108268 130.07142222 108.3125 148.546875 C102.82422825 162.98625663 93.85535608 174.41054684 81 183 C80.113125 183.70125 79.22625 184.4025 78.3125 185.125 C63.32095857 193.61077817 43.61708495 194.15382599 27.203125 190.03125 C9.90609156 184.46244899 -3.59146166 172.12019691 -11.875 156.0625 C-17.03665277 145.80153327 -18.44884542 135.36927193 -18.40405273 123.98291016 C-18.41091599 122.74233856 -18.41777924 121.50176697 -18.42485046 120.22360229 C-18.43988962 116.86019137 -18.44164951 113.49734052 -18.43590808 110.13393831 C-18.43279441 107.31552079 -18.43893167 104.4971523 -18.44494683 101.67874181 C-18.4589276 95.03139087 -18.45748092 88.38416868 -18.44604492 81.73681641 C-18.43453052 74.8928256 -18.4487093 68.04922515 -18.4754414 61.20528567 C-18.49760909 55.30773091 -18.50423456 49.41029865 -18.49836498 43.51270521 C-18.49500149 39.99926646 -18.49737149 36.48607874 -18.51461601 32.97267532 C-18.53298026 29.06186848 -18.51888712 25.15154263 -18.50170898 21.24072266 C-18.51137695 20.08425232 -18.52104492 18.92778198 -18.53100586 17.73626709 C-18.47373818 11.51740207 -18.21383644 7.70776207 -14 3 C-9.84965813 -0.55743589 -5.25267261 -1.00799527 0 0 Z " fill="#FAFBFD" transform="translate(472,440)"/>
<path d="M0 0 C4.02164422 3.09843658 7.80590681 6.41724706 11.484375 9.9140625 C11.47535156 9.3571875 11.46632813 8.8003125 11.45703125 8.2265625 C11.69870687 2.00604222 13.53896139 -1.0786547 17.79296875 -5.5546875 C20.80841443 -8.28460599 23.35421924 -8.42232333 27.38671875 -8.37109375 C31.58835384 -7.79992175 34.39820419 -5.31350862 37.12769318 -2.22868824 C38.68991009 0.23868575 38.86501151 1.55352299 38.87878418 4.44807434 C38.89013397 5.35218552 38.90148376 6.25629669 38.91317749 7.18780518 C38.91024689 8.17230652 38.90731628 9.15680786 38.90429688 10.17114258 C38.91276642 11.21386826 38.92123596 12.25659393 38.92996216 13.33091736 C38.95338283 16.7819332 38.95435294 20.2325044 38.953125 23.68359375 C38.96022445 26.08249592 38.96792313 28.48139639 38.97619629 30.8802948 C38.98965347 35.91153684 38.99120467 40.94262194 38.98535156 45.97387695 C38.9794602 52.41689727 39.01001903 58.85916284 39.05046844 65.30203724 C39.07633939 70.25807238 39.07922325 75.21392579 39.07557678 80.17001915 C39.07726917 82.54504986 39.08692297 84.92008886 39.10472107 87.29505348 C39.1268932 90.62014593 39.11721554 93.94371092 39.09960938 97.26879883 C39.11287262 98.24722748 39.12613586 99.22565613 39.13980103 100.23373413 C39.0596787 106.75693677 37.81421856 109.99618603 33.484375 114.9140625 C30.55994789 117.23343572 27.28860108 117.45032551 23.58203125 117.3671875 C19.67840666 116.52394643 17.01422496 113.895183 14.484375 110.9140625 C12.71521718 107.99734285 12.15779017 105.54610114 11.859375 102.1640625 C11.74722656 100.96523438 11.74722656 100.96523438 11.6328125 99.7421875 C11.58382812 99.13890625 11.53484375 98.535625 11.484375 97.9140625 C10.95070313 98.42195312 10.41703125 98.92984375 9.8671875 99.453125 C-5.09289465 113.27437737 -21.98731119 118.71048588 -42.10546875 118.2890625 C-57.70904474 117.51973669 -73.00732447 110.0368514 -83.625 98.65234375 C-93.57610513 87.21525145 -100.63084973 73.19654445 -101.515625 57.9140625 C-101.56847656 57.24117187 -101.62132812 56.56828125 -101.67578125 55.875 C-102.35555137 40.09251113 -96.42400216 24.24568735 -86.078125 12.4140625 C-84.57787783 10.89347299 -83.05775476 9.39215919 -81.515625 7.9140625 C-80.85304688 7.22054687 -80.19046875 6.52703125 -79.5078125 5.8125 C-58.79096142 -14.58926589 -23.56504338 -16.20989348 0 0 Z " fill="#F9FBFD" transform="translate(706.515625,514.0859375)"/>
<path d="M0 0 C15.07255971 10.32960597 25.14984865 25.77567893 28.58203125 43.76953125 C30.58867346 61.98838589 26.90652984 79.1225558 15.58203125 93.76953125 C14.61523438 95.04183594 14.61523438 95.04183594 13.62890625 96.33984375 C3.58190102 108.50788342 -11.69114157 117.09289722 -27.41796875 118.76953125 C-45.38526409 119.84898254 -62.21223865 117.02317377 -76.26318359 104.85791016 C-89.05178922 93.14692722 -98.178625 79.76586665 -99.63720703 62.11669922 C-100.48667119 42.61456605 -96.80466559 26.28640043 -83.85546875 11.01953125 C-61.73659502 -12.00557858 -27.38401562 -16.2169208 0 0 Z " fill="#F9FAFD" transform="translate(1403.41796875,513.23046875)"/>
<path d="M0 0 C1.68732457 1.39090268 3.22191505 2.85187435 4.734375 4.4296875 C7.88203068 2.99441335 10.34071071 1.19531487 13.046875 -0.9453125 C18.59215551 -4.9299452 24.15974018 -6.35830846 30.70703125 -7.84375 C33.59666171 -8.25841185 33.59666171 -8.25841185 34.734375 -9.5703125 C45.01113282 -10.50327813 56.10766274 -10.520118 65.734375 -6.5703125 C66.71535156 -6.17972656 67.69632813 -5.78914063 68.70703125 -5.38671875 C78.02001888 -1.2306067 85.96361371 5.27312549 90.734375 14.4296875 C91.50351965 16.59655364 92.21016798 18.7864172 92.859375 20.9921875 C93.35824219 22.66474609 93.35824219 22.66474609 93.8671875 24.37109375 C94.15335938 25.38042969 94.43953125 26.38976562 94.734375 27.4296875 C94.91393738 27.99958405 95.09349976 28.56948059 95.27850342 29.15664673 C95.92547268 32.3825278 95.89024707 35.58055742 95.89550781 38.85693359 C95.90047272 39.59890488 95.90543762 40.34087616 95.91055298 41.10533142 C95.92513208 43.55460545 95.9319691 46.00381474 95.9375 48.453125 C95.94325447 50.15939332 95.94901217 51.86566163 95.95477295 53.57192993 C95.9652705 57.14789124 95.97112147 60.72383014 95.97460938 64.29980469 C95.98009481 68.87516268 96.00412905 73.4502232 96.03258133 78.0254879 C96.05123103 81.54972187 96.05641452 85.07388446 96.05794525 88.5981636 C96.06096649 90.28461968 96.06897716 91.97107466 96.08213043 93.65748215 C96.09924182 96.01976755 96.09729868 98.38132961 96.09082031 100.74365234 C96.1000351 101.43580338 96.10924988 102.12795441 96.1187439 102.84107971 C96.06606708 108.99259811 94.21084727 112.81259883 90.109375 117.3046875 C85.82536521 120.002027 82.67376229 120.55187388 77.734375 119.4296875 C74.19306801 117.45226979 71.98021526 114.79844789 69.734375 111.4296875 C69.4828186 108.32688904 69.4828186 108.32688904 69.47900391 104.45483398 C69.47357323 103.39562492 69.47357323 103.39562492 69.46803284 102.3150177 C69.46114023 100.78124216 69.45863315 99.2474421 69.45998001 97.71365166 C69.46094641 95.27833955 69.44798679 92.84346752 69.43099976 90.40821838 C69.38478329 83.48401376 69.36015575 76.55985156 69.35351562 69.63549805 C69.34847236 65.3978333 69.32407342 61.1606231 69.28818893 56.92311287 C69.2784484 55.31536667 69.27602733 53.70755744 69.28136063 52.09979057 C69.31361119 41.89151795 69.16571743 32.63651485 62.234375 24.4921875 C61.409375 23.8115625 60.584375 23.1309375 59.734375 22.4296875 C59.05375 21.8521875 58.373125 21.2746875 57.671875 20.6796875 C51.75594231 16.86295673 43.47933014 17.81134072 36.734375 18.4296875 C29.59132918 20.86904312 24.45668659 26.97616697 21.17480469 33.55688477 C18.97249464 39.58123482 19.32697331 45.91397783 19.35424995 52.24104691 C19.36343704 54.57075515 19.35305272 56.89967173 19.33763123 59.2293396 C19.29772931 65.84689271 19.29633193 72.46437773 19.29858398 79.08203125 C19.29863517 83.14387426 19.27943587 87.20528524 19.24925041 91.26700974 C19.23846406 93.55497322 19.25052759 95.84209933 19.26307678 98.1300354 C19.25416992 99.5393353 19.24409468 100.94862845 19.23266602 102.35791016 C19.23283218 103.58176422 19.23299835 104.80561829 19.23316956 106.06655884 C18.4482762 111.3587123 15.93915781 114.41231535 11.921875 117.8046875 C8.09427551 119.75601273 5.97994429 120.0361974 1.734375 119.4296875 C-3.24148191 116.94175904 -5.18846577 114.51997879 -7.265625 109.4296875 C-7.63070679 105.96612549 -7.63070679 105.96612549 -7.61865234 102.11425781 C-7.62081253 101.40768036 -7.62297272 100.70110291 -7.62519836 99.97311401 C-7.62827219 98.44756262 -7.62471847 96.92198619 -7.61518478 95.39646149 C-7.6013663 92.9734084 -7.60793167 90.55116713 -7.62002563 88.12811279 C-7.65086855 81.24225427 -7.64618637 74.3565876 -7.62597656 67.47070312 C-7.61499778 63.24900307 -7.62837959 59.02791291 -7.65587234 54.8062973 C-7.6612775 53.20690026 -7.65734032 51.60744086 -7.64347458 50.00809479 C-7.5667868 41.05621497 -7.58870415 32.89174967 -13.265625 25.4296875 C-19.38895021 19.74741057 -24.12020245 18.15798346 -32.421875 18.2890625 C-39.55761319 18.64192867 -44.14990683 20.26554367 -49.4375 25.23046875 C-55.41760464 32.42448352 -57.38008761 40.91513762 -57.4074707 50.05249023 C-57.41094513 50.69707184 -57.41441956 51.34165344 -57.41799927 52.00576782 C-57.42532069 53.39819424 -57.4306852 54.79063205 -57.43428993 56.18307304 C-57.44149523 58.39054036 -57.45719043 60.59779048 -57.47563171 62.80519104 C-57.52791979 69.07883789 -57.57607923 75.35236044 -57.59155273 81.6262207 C-57.60165373 85.47071314 -57.63102426 89.31464974 -57.67287254 93.1589222 C-57.68515054 94.61924085 -57.69030965 96.07963808 -57.68807411 97.54000664 C-57.6857115 99.58643527 -57.70795322 101.63127681 -57.7355957 103.67749023 C-57.74146194 104.83933334 -57.74732819 106.00117645 -57.75337219 107.19822693 C-58.49568499 111.88098221 -60.83037868 114.89192358 -64.015625 118.3046875 C-67.39663431 119.99519216 -70.60697309 119.94087639 -74.265625 119.4296875 C-78.85612737 117.76041391 -80.39892697 114.98694537 -82.42076302 110.78355789 C-83.93391456 106.56776564 -83.81278106 102.41387502 -83.76733398 97.97802734 C-83.77273697 96.96237198 -83.77813995 95.94671661 -83.78370667 94.90028381 C-83.79615227 91.56342894 -83.77973236 88.22744375 -83.76171875 84.890625 C-83.76187381 82.56230626 -83.76336395 80.23398727 -83.76612854 77.90567017 C-83.76751059 73.03530412 -83.75498461 68.16523326 -83.73217773 63.29492188 C-83.70376247 57.05608982 -83.70654178 50.81774683 -83.71926785 44.5788784 C-83.72622548 39.77472768 -83.71843521 34.97068981 -83.70601082 30.1665535 C-83.7014994 27.86607928 -83.70115681 25.56559294 -83.70507622 23.26511765 C-83.70798998 20.05067886 -83.69147381 16.83691237 -83.66967773 13.62255859 C-83.67417938 12.67487106 -83.67868103 11.72718353 -83.68331909 10.7507782 C-83.61091534 4.31663526 -82.53424339 0.04203595 -78.203125 -4.9453125 C-73.91723775 -7.31622885 -70.06021806 -7.23841153 -65.265625 -6.5703125 C-62.140625 -5.1953125 -62.140625 -5.1953125 -60.265625 -3.5703125 C-60.265625 -2.9103125 -60.265625 -2.2503125 -60.265625 -1.5703125 C-59.69457031 -1.89644531 -59.12351562 -2.22257812 -58.53515625 -2.55859375 C-39.65692823 -12.73302825 -17.65216854 -12.65756271 0 0 Z " fill="#F9FBFD" transform="translate(851.265625,511.5703125)"/>
<path d="M0 0 C9.50696201 7.95127731 14.99203163 17.92053174 17.265625 30.03125 C17.69217016 35.9362338 17.68912299 41.8204774 17.6640625 47.73828125 C17.66608765 49.43454615 17.66900275 51.1308102 17.67276001 52.82707214 C17.6771566 56.36128121 17.67083496 59.89526114 17.65673828 63.42944336 C17.63958196 67.94972447 17.64954492 72.46947361 17.66745567 76.9897356 C17.67830994 80.48396294 17.67484078 83.97806459 17.6670723 87.47229576 C17.66507823 89.13919832 17.66750155 90.80611247 17.67451096 92.47300148 C17.68216009 94.80107435 17.67047669 97.1282896 17.65380859 99.45629883 C17.65988129 100.13745255 17.66595398 100.81860626 17.67221069 101.520401 C17.60191516 106.84060132 16.15578019 110.74731247 12.765625 114.84375 C9.40642652 117.50311546 5.5703089 117.36829084 1.484375 117.30859375 C-1.93000003 116.88179687 -3.47048875 115.56147581 -5.734375 113.03125 C-8.51656228 108.39442054 -9.103962 104.98612259 -9.08740234 99.6081543 C-9.08956253 98.89021698 -9.09172272 98.17227966 -9.09394836 97.43258667 C-9.09702244 95.88247817 -9.09346775 94.33234504 -9.08393478 92.7822628 C-9.07012285 90.32168272 -9.07667746 87.86190262 -9.08877563 85.40132141 C-9.11963057 78.40885051 -9.11491462 71.41656879 -9.09472656 64.42407227 C-9.08376067 60.13754136 -9.09710146 55.8516121 -9.12462234 51.56516457 C-9.13003432 49.93982119 -9.12607252 48.31441655 -9.11222458 46.68912315 C-8.93745227 34.03185335 -8.93745227 34.03185335 -14.734375 23.03125 C-17.14316051 20.82631934 -17.14316051 20.82631934 -19.796875 19.53125 C-20.63347656 19.0671875 -21.47007813 18.603125 -22.33203125 18.125 C-30.41903447 14.44311236 -40.15561355 15.14471916 -48.41796875 17.99609375 C-55.55482786 21.18541527 -60.39982126 25.96142361 -63.734375 33.03125 C-64.909497 36.65690136 -64.86552823 40.11459372 -64.8762207 43.90771484 C-64.87969513 44.5911647 -64.88316956 45.27461456 -64.88674927 45.97877502 C-64.89408533 47.45907152 -64.89944213 48.93937887 -64.90303993 50.41968918 C-64.91022827 52.76569195 -64.92591193 55.11148834 -64.94438171 57.45742798 C-64.99674321 64.12621248 -65.04482309 70.79488146 -65.06030273 77.46386719 C-65.07040057 81.5470945 -65.09976682 85.62979805 -65.14162254 89.71281815 C-65.15390855 91.26524515 -65.15905818 92.81774618 -65.15682411 94.37022018 C-65.15446318 96.54604498 -65.17669294 98.72037399 -65.2043457 100.89599609 C-65.21021194 102.13191498 -65.21607819 103.36783386 -65.22212219 104.64120483 C-65.98542806 109.69269762 -68.52881017 112.72235105 -71.921875 116.40625 C-75.89937954 118.70436373 -79.24844375 118.94739089 -83.734375 118.03125 C-86.9418102 116.37316909 -89.09523578 114.16937681 -90.87835693 110.99414062 C-92.14685842 106.60354269 -92.01223743 102.36050184 -91.99316406 97.8125 C-91.9966687 96.78592285 -92.00017334 95.7593457 -92.00378418 94.70166016 C-92.01257988 91.31145446 -92.00675986 87.92145779 -92 84.53125 C-92.00134727 82.17382772 -92.00328832 79.81640571 -92.00579834 77.45898438 C-92.00874668 72.51950433 -92.00446121 67.58009664 -91.99511719 62.640625 C-91.9837229 56.30865723 -91.99028391 49.97685901 -92.00226212 43.64489746 C-92.00948849 38.77733075 -92.00718919 33.90980425 -92.00200653 29.04223633 C-92.00067219 26.70743795 -92.0023102 24.37263592 -92.00696564 22.0378418 C-92.01204353 18.77512946 -92.00430259 15.51269187 -91.99316406 12.25 C-91.99721252 11.28465332 -92.00126099 10.31930664 -92.00543213 9.32470703 C-91.96571137 3.04542228 -91.54093589 -0.93636899 -87.234375 -5.78125 C-83.71302677 -8.52392172 -80.40919586 -8.55457573 -76.0625 -8.33984375 C-73.09266756 -7.86646442 -71.16536145 -6.70516889 -68.734375 -4.96875 C-64.40414469 -3.56475041 -62.20286387 -4.3343098 -58.171875 -6.28125 C-38.80358033 -14.79478612 -17.11882745 -12.32555577 0 0 Z " fill="#F9FBFE" transform="translate(1261.734375,512.96875)"/>
<path d="M0 0 C8.62999355 7.42677329 8.62999355 7.42677329 9.34375 12.390625 C9.75803745 19.97208534 9.75803745 19.97208534 7.5078125 23.0234375 C3.45418861 26.47154081 -0.03675912 28.56859168 -5.515625 28.55859375 C-10.00742603 27.54864478 -13.42052082 24.64635197 -17.0703125 21.9453125 C-23.92636661 17.39289257 -30.99369386 17.19936939 -39 18 C-43.01209823 19.20861344 -45.91272634 21.01465824 -49 23.8125 C-50.52913127 27.15747465 -50.57291516 29.37153729 -50 33 C-44.22637177 40.09331468 -34.11741707 41.20402258 -25.6484375 43.37109375 C-11.01700079 47.15403194 3.01511895 50.81428469 11.3125 64.5625 C16.16206393 74.44124133 16.37647696 83.70847631 13.0625 94.1875 C9.07105214 104.34138153 1.441168 112.55479781 -8.48046875 117.1484375 C-21.01382419 122.36912618 -37.53483508 123.46208076 -50.52734375 119.03515625 C-51.75130859 118.52275391 -51.75130859 118.52275391 -53 118 C-53.99128906 117.58621094 -54.98257812 117.17242188 -56.00390625 116.74609375 C-64.08614001 113.03372855 -70.97402169 108.40142299 -76.0625 101 C-77.74430198 95.61823368 -77.90158977 91.76978733 -75.3125 86.6875 C-71.89288867 82.7133571 -69.57649735 81.33189418 -64.4375 80.25 C-59.39962471 80.39285091 -56.21852808 83.5590371 -52.41259766 86.56713867 C-43.44838684 93.64658832 -34.19290422 94.29369549 -23 93 C-18.91588371 91.87830609 -16.17322655 89.99546495 -12.9375 87.25 C-11.51416438 83.83399451 -11.69917208 80.46176611 -13 77 C-19.72081807 70.85398874 -29.84390754 69.51421111 -38.4375 67.5625 C-51.43312001 64.57782177 -64.11488899 61.05665593 -72.3125 49.8125 C-77.0684463 42.08894688 -79.23557413 33.02385604 -78 24 C-75.24810506 12.89913567 -69.14285073 4.74135147 -60 -2 C-57.40688419 -3.538614 -54.76829864 -4.81101273 -52 -6 C-51.175 -6.391875 -50.35 -6.78375 -49.5 -7.1875 C-33.04433575 -12.53559088 -14.13551637 -9.44471257 0 0 Z " fill="#F9FBFD" transform="translate(1535,512)"/>
<path d="M0 0 C8.17029499 5.81427401 14.77526644 14.42865289 16.50390625 24.4609375 C17.74648655 37.53909516 14.80687894 48.24189419 6.50390625 58.4609375 C-0.08811274 65.94295448 -8.81714337 70.1080083 -18.76171875 70.90625 C-31.09346373 71.44282836 -39.80070988 68.6955203 -49.23828125 60.6484375 C-57.38315399 52.75721132 -61.51150373 42.14303788 -61.99609375 30.8359375 C-61.46752261 19.10506831 -55.60941459 10.02071955 -47.18359375 2.2109375 C-32.8968326 -9.39301556 -15.37517449 -9.48015454 0 0 Z " fill="#0765FA" transform="translate(692.49609375,535.5390625)"/>
<path d="M0 0 C10.55910489 6.83476945 16.69196779 15.01340336 20.6875 27 C22.12615365 40.81434474 19.09817445 50.29192009 10.5625 61.4375 C3.98733176 68.37131378 -5.26485998 72.5740115 -14.6953125 73.23828125 C-28.72387125 73.51650945 -37.73411322 69.93354222 -48.02734375 60.4140625 C-55.42242486 52.69909238 -58.0314735 43.16036133 -57.8359375 32.72851562 C-57.5395061 27.03593488 -56.31156806 22.79664612 -53.3125 18 C-52.87679688 17.24332031 -52.44109375 16.48664062 -51.9921875 15.70703125 C-41.17569968 -1.93625626 -19.01263636 -9.67270648 0 0 Z " fill="#0765FA" transform="translate(537.3125,533)"/>
<path d="M0 0 C7.84057174 6.04185234 13.62889162 14.30428057 15.63671875 24.109375 C17.04887853 35.34591518 14.80657713 45.35407978 8.4375 54.875 C2.47272756 62.4806392 -6.36076366 68.36176863 -16 70 C-29.11305346 71.1566089 -38.77507782 68.85965169 -48.9296875 60.390625 C-56.95097562 53.06552415 -61.25362687 44.16116188 -62.23828125 33.39453125 C-62.5487376 22.59391821 -59.10111335 14.05933588 -52 6 C-51.47535156 5.38253906 -50.95070313 4.76507812 -50.41015625 4.12890625 C-36.96000549 -10.58714105 -15.74939173 -10.73822163 0 0 Z " fill="#0765FA" transform="translate(1057,537)"/>
<path d="M0 0 C1.37746719 0.75039165 2.73247564 1.54341195 4.0625 2.375 C4.81917969 2.81070313 5.57585937 3.24640625 6.35546875 3.6953125 C15.74121945 9.44939082 23.00541933 18.01648236 25.6796875 28.8828125 C27.55923219 41.11903202 24.22420521 51.41889113 17.0625 61.375 C9.58713129 70.18044558 1.38395257 74.42397685 -10.08203125 75.734375 C-20.93839924 76.20696176 -30.08849413 73.20822582 -38.375 66.125 C-46.05346834 58.62132606 -51.10091226 50.88500983 -51.31811523 39.95483398 C-51.2877897 27.37237375 -48.77546996 18.75296812 -39.9375 9.375 C-29.37605728 -0.12818193 -13.82259764 -5.91695565 0 0 Z " fill="#0765FA" transform="translate(1380.9375,530.625)"/>
<path d="M0 0 C5.02841603 2.4210892 6.99085936 4.8629538 9 10 C9.43330676 13.36899596 9.43052 16.70770712 9.41992188 20.10107422 C9.42839142 21.10347137 9.43686096 22.10586853 9.44558716 23.13864136 C9.46893861 26.44412003 9.46997969 29.74913267 9.46875 33.0546875 C9.4758529 35.35865464 9.48355209 37.66262001 9.49182129 39.96658325 C9.50526204 44.79336464 9.50683672 49.61998248 9.50097656 54.44677734 C9.49508239 60.6228556 9.52566323 66.79814725 9.56609344 72.97407341 C9.59198206 77.73198655 9.59484673 82.48971062 9.59120178 87.24768448 C9.59289207 89.52420147 9.60252568 91.80072727 9.62034607 94.07717514 C9.64255676 97.26535967 9.63282183 100.4519562 9.61523438 103.64013672 C9.63512924 105.04156921 9.63512924 105.04156921 9.65542603 106.47131348 C9.57620338 112.67267446 8.29599535 117.35640938 4 122 C-0.24504308 124.49078031 -4.17053224 124.83699615 -9 124 C-12.54966971 122.04880735 -14.75989575 119.36015637 -17 116 C-17.26285553 113.96373367 -17.26285553 113.96373367 -17.28088379 111.58624268 C-17.29230408 110.68350616 -17.30372437 109.78076965 -17.31549072 108.85067749 C-17.31772644 107.86258087 -17.31996216 106.87448425 -17.32226562 105.85644531 C-17.33716034 104.29257584 -17.33716034 104.29257584 -17.35235596 102.69711304 C-17.38161564 99.24075702 -17.39520641 95.78458463 -17.40625 92.328125 C-17.4177525 89.92779535 -17.42926797 87.52746576 -17.4407959 85.12713623 C-17.46182118 80.0899571 -17.47350271 75.05284185 -17.48046875 70.015625 C-17.49143322 63.56465901 -17.53947378 57.11453841 -17.59641266 50.66383743 C-17.63368523 45.70352728 -17.64407766 40.74342023 -17.6471405 35.78298187 C-17.65319131 33.40513238 -17.66924107 31.02728636 -17.69551086 28.64957428 C-17.72967357 25.31944279 -17.72586379 21.99136907 -17.71289062 18.66113281 C-17.73132019 17.68113312 -17.74974976 16.70113342 -17.76873779 15.69143677 C-17.69618544 9.73774891 -16.66885852 6.55649961 -12.48274994 2.2541008 C-8.79458311 -0.86532807 -4.6043749 -0.55035458 0 0 Z " fill="#F8FAFD" transform="translate(1139,506)"/>
<path d="M0 0 C0.91330078 -0.020625 1.82660156 -0.04125 2.76757812 -0.0625 C11.30523444 -0.11083776 19.56732036 0.98918794 26 7.0625 C26.71027344 7.70832031 27.42054687 8.35414062 28.15234375 9.01953125 C33.23452815 14.95394289 33.53066134 20.16013259 33.34765625 27.703125 C32.71375752 35.58778322 30.84534506 41.73612448 25.0625 47.25 C19.9625 50.25 19.9625 50.25 17.0625 50.25 C17.0625 50.91 17.0625 51.57 17.0625 52.25 C13.58155734 53.03841864 10.36341152 53.37828808 6.796875 53.3828125 C5.82492187 53.38410156 4.85296875 53.38539062 3.8515625 53.38671875 C2.84867188 53.38285156 1.84578125 53.37898438 0.8125 53.375 C-0.20585938 53.37886719 -1.22421875 53.38273437 -2.2734375 53.38671875 C-3.24023438 53.38542969 -4.20703125 53.38414063 -5.203125 53.3828125 C-6.08774414 53.38168457 -6.97236328 53.38055664 -7.88378906 53.37939453 C-9.9375 53.25 -9.9375 53.25 -10.9375 52.25 C-11.03604422 50.6593669 -11.06548694 49.06438523 -11.06689453 47.47070312 C-11.07004669 46.452948 -11.07319885 45.43519287 -11.07644653 44.38659668 C-11.0744223 43.27933228 -11.07239807 42.17206787 -11.0703125 41.03125 C-11.07126923 39.90303833 -11.07222595 38.77482666 -11.07321167 37.61242676 C-11.07389368 35.22159774 -11.07203797 32.83076689 -11.06787109 30.43994141 C-11.06252316 26.76590849 -11.06781543 23.09199783 -11.07421875 19.41796875 C-11.07355797 17.10156223 -11.07227682 14.78515578 -11.0703125 12.46875 C-11.07334885 10.80785339 -11.07334885 10.80785339 -11.07644653 9.11340332 C-11.07329437 8.09564819 -11.07014221 7.07789307 -11.06689453 6.02929688 C-11.06609894 5.12852417 -11.06530334 4.22775146 -11.06448364 3.29968262 C-10.74888408 -1.79450841 -3.89712693 0.02119444 0 0 Z " fill="#E10715" transform="translate(1533.9375,52.75)"/>
<path d="M0 0 C5.87609198 2.21617866 10.1896751 6.37935019 13 12 C13.9860026 25.7281901 13.9860026 25.7281901 10 31 C5.19946399 35.89536141 1.14870473 38.74190945 -5.8125 39.3125 C-11.19579894 39.11987725 -15.89997323 38.14648753 -19.765625 34.1953125 C-24.48969009 28.11823847 -26.91651746 22.85801031 -26 15 C-24.15785301 8.43735135 -20.28824585 4.97460516 -15 1 C-10.54768104 -1.22615948 -4.83071626 -0.50284649 0 0 Z " fill="#F8FAFD" transform="translate(157,311)"/>
<path d="M0 0 C4.29 0 8.58 0 13 0 C13 13.86 13 27.72 13 42 C19.27 42 25.54 42 32 42 C32 45.63 32 49.26 32 53 C21.44 53 10.88 53 0 53 C0 35.51 0 18.02 0 0 Z " fill="#DC0A19" transform="translate(1575,53)"/>
<path d="M0 0 C7.65114065 0 10.2294507 0.65105603 15.875 5.4375 C19.37874454 9.9584607 18.6656085 15.60278327 18 21 C17.10193158 24.65642144 15.79220787 27.25730512 13 29.875 C8.27154199 32.53475763 6.03470607 32 0 32 C0 21.44 0 10.88 0 0 Z " fill="#0D63F2" transform="translate(1536,63)"/>
<path d="M0 0 C4.54447291 1.9023375 6.71481238 4.68353449 9 9 C9.66067786 12.96406718 9.20144076 14.61950078 7.3125 18.1875 C4.02118516 22.19045048 1.74985643 23.70835726 -3.375 24.5625 C-8.17037689 23.81838979 -10.86426413 21.64064249 -14 18 C-15.23534045 14.29397865 -15.45528745 11.90246386 -15 8 C-10.91704021 1.64314568 -7.65816344 -0.51919752 0 0 Z " fill="#0D67FA" transform="translate(195,524)"/>
<path d="M0 0 C3.70390021 2.02666238 5.65363011 3.48044516 8 7 C8.76768116 11.6864257 8.40885085 15.19690011 6.25 19.4375 C3.05740667 23.07350908 1.44197466 23.78234345 -3.3125 24.5 C-8.17756126 23.84033068 -10.83152337 21.67865507 -14 18 C-15.23534045 14.29397865 -15.45528745 11.90246386 -15 8 C-10.9515859 1.69693066 -7.62876526 -0.63573044 0 0 Z " fill="#0E68F9" transform="translate(271,524)"/>
<path d="M0 0 C2.77327389 1.52445684 4.44842407 3.24682768 6 6 C6.78476358 8.86609306 6.78082345 11.13318106 6 14 C4.224639 17.01096023 2.17737715 19.41131142 -1 21 C-8.08958838 21.5811138 -8.08958838 21.5811138 -11.9375 19.125 C-15.34325286 15.6160425 -15.33097275 12.98181561 -15.29296875 8.26171875 C-14.86344199 4.9457722 -13.39075646 3.25012373 -11 1 C-7.48103264 -0.75948368 -3.83113867 -0.66098372 0 0 Z " fill="#F2F7FE" transform="translate(1140,468)"/>
<path d="M0 0 C28.05 0 56.1 0 85 0 C85 0.99 85 1.98 85 3 C56.95 3 28.9 3 0 3 C0 2.01 0 1.02 0 0 Z " fill="#C31836" transform="translate(1522,116)"/>
<path d="M0 0 C0.87454834 0.00523682 1.74909668 0.01047363 2.65014648 0.01586914 C3.59438477 0.0190918 4.53862305 0.02231445 5.51147461 0.02563477 C6.50469727 0.03401367 7.49791992 0.04239258 8.52124023 0.05102539 C9.51833008 0.05553711 10.51541992 0.06004883 11.54272461 0.06469727 C14.01478872 0.07652532 16.48673541 0.0930069 18.95874023 0.11352539 C18.95874023 0.44352539 18.95874023 0.77352539 18.95874023 1.11352539 C12.35874023 1.44352539 5.75874023 1.77352539 -1.04125977 2.11352539 C-1.04125977 18.61352539 -1.04125977 35.11352539 -1.04125977 52.11352539 C5.88874023 52.11352539 12.81874023 52.11352539 19.95874023 52.11352539 C19.95874023 52.44352539 19.95874023 52.77352539 19.95874023 53.11352539 C16.31292336 53.14240051 12.6671356 53.16028124 9.02124023 53.17602539 C7.45986328 53.18859375 7.45986328 53.18859375 5.86694336 53.20141602 C4.87758789 53.20463867 3.88823242 53.20786133 2.86889648 53.21118164 C1.49423218 53.21903687 1.49423218 53.21903687 0.09179688 53.22705078 C-2.04125977 53.11352539 -2.04125977 53.11352539 -3.04125977 52.11352539 C-3.13980399 50.52289229 -3.1692467 48.92791062 -3.1706543 47.33422852 C-3.17380646 46.31647339 -3.17695862 45.29871826 -3.1802063 44.25012207 C-3.17818207 43.14285767 -3.17615784 42.03559326 -3.17407227 40.89477539 C-3.17502899 39.76656372 -3.17598572 38.63835205 -3.17697144 37.47595215 C-3.17765344 35.08512313 -3.17579774 32.69429228 -3.17163086 30.3034668 C-3.16628292 26.62943388 -3.17157519 22.95552322 -3.17797852 19.28149414 C-3.17731774 16.96508762 -3.17603658 14.64868117 -3.17407227 12.33227539 C-3.17710861 10.67137878 -3.17710861 10.67137878 -3.1802063 8.97692871 C-3.17705414 7.95917358 -3.17390198 6.94141846 -3.1706543 5.89282227 C-3.1698587 4.99204956 -3.16906311 4.09127686 -3.16824341 3.16320801 C-2.99655833 0.39198561 -2.77349468 0.1542489 0 0 Z " fill="#B32046" transform="translate(1526.041259765625,52.886474609375)"/>
<path d="M0 0 C0.99 0 1.98 0 3 0 C3.33 20.13 3.66 40.26 4 61 C5.485 60.505 5.485 60.505 7 60 C7.33 60.66 7.66 61.32 8 62 C2.25 66 2.25 66 0 66 C0 44.22 0 22.44 0 0 Z " fill="#3882F6" transform="translate(995,451)"/>
<path d="M0 0 C0.66 0 1.32 0 2 0 C3.02232879 3.06698637 3.1659049 5.28664878 3.1875 8.5 C3.20167969 9.4590625 3.21585938 10.418125 3.23046875 11.40625 C3 14 3 14 1 17 C-0.22517308 11.33357449 -0.09228867 5.76291482 0 0 Z " fill="#2373F9" transform="translate(995,562)"/>
<path d="M0 0 C-2.97870377 0.99290126 -4.59182885 1.05524548 -7.66796875 0.87890625 C-9.00698242 0.80639648 -9.00698242 0.80639648 -10.37304688 0.73242188 C-11.30181641 0.67634766 -12.23058594 0.62027344 -13.1875 0.5625 C-14.12787109 0.51029297 -15.06824219 0.45808594 -16.03710938 0.40429688 C-18.35841501 0.27468082 -20.67928409 0.13971819 -23 0 C-23 -0.33 -23 -0.66 -23 -1 C-15.50050871 -2.72006681 -7.14481562 -3.17547361 0 0 Z " fill="#5998F7" transform="translate(1239,530)"/>
<path d="M0 0 C4.46839215 -0.21278058 7.82262526 0.40861915 12 2 C12 2.33 12 2.66 12 3 C9.22890693 3.05392397 6.45886182 3.09363455 3.6875 3.125 C2.90181641 3.14175781 2.11613281 3.15851562 1.30664062 3.17578125 C0.54931641 3.18222656 -0.20800781 3.18867187 -0.98828125 3.1953125 C-2.03302612 3.21102295 -2.03302612 3.21102295 -3.09887695 3.22705078 C-5 3 -5 3 -8 1 C-5.36 1 -2.72 1 0 1 C0 0.67 0 0.34 0 0 Z " fill="#2475F5" transform="translate(666,603)"/>
<path d="M0 0 C0.66 0.66 1.32 1.32 2 2 C0.02 2.99 0.02 2.99 -2 4 C-2 4.66 -2 5.32 -2 6 C-5.22791555 8.1519437 -6.28400809 8.20086443 -10 8 C-6.66666667 5.33333333 -3.33333333 2.66666667 0 0 Z " fill="#1B70FA" transform="translate(714,615)"/>
<path d="M0 0 C0.66 0.33 1.32 0.66 2 1 C-0.45705917 3.6325634 -2.54104856 5.84701619 -6 7 C-8.75 6.625 -8.75 6.625 -11 6 C-10.484375 5.7525 -9.96875 5.505 -9.4375 5.25 C-8.0182019 4.52215482 -6.61168124 3.76562498 -5.24609375 2.94140625 C-3.52951812 1.90572701 -1.76622649 0.94852904 0 0 Z " fill="#1F70FB" transform="translate(702,623)"/>
<path d="M0 0 C0.66 0.33 1.32 0.66 2 1 C0.78732619 2.658023 -0.44583619 4.30107431 -1.6875 5.9375 C-2.37199219 6.85402344 -3.05648438 7.77054688 -3.76171875 8.71484375 C-6.23725656 11.24222529 -7.53375469 11.71468734 -11 12 C-10.29875 11.319375 -9.5975 10.63875 -8.875 9.9375 C-5.72065663 6.79219487 -2.86065696 3.4111614 0 0 Z " fill="#DFEEFE" transform="translate(277,608)"/>
<path d="M0 0 C0.33 0.66 0.66 1.32 1 2 C-0.72924937 5.54951186 -2.52946474 8.04782391 -6 10 C-6.99 9.67 -7.98 9.34 -9 9 C-8.51789063 8.60167969 -8.03578125 8.20335937 -7.5390625 7.79296875 C-6.90742187 7.26316406 -6.27578125 6.73335937 -5.625 6.1875 C-4.99851562 5.66542969 -4.37203125 5.14335938 -3.7265625 4.60546875 C-1.7778952 2.91774261 -1.7778952 2.91774261 0 0 Z " fill="#1E71FA" transform="translate(1416,609)"/>
<path d="M0 0 C1.60379341 -0.05416188 3.20811406 -0.09286638 4.8125 -0.125 C5.70582031 -0.14820313 6.59914063 -0.17140625 7.51953125 -0.1953125 C10 0 10 0 13 2 C9.98509443 3.00496852 7.95818308 3.10335303 4.8125 3.0625 C3.46091797 3.04896484 3.46091797 3.04896484 2.08203125 3.03515625 C1.39496094 3.02355469 0.70789063 3.01195312 0 3 C0 2.01 0 1.02 0 0 Z " fill="#D4E5FA" transform="translate(892,526)"/>
<path d="M0 0 C3.3 0 6.6 0 10 0 C9.67 0.66 9.34 1.32 9 2 C6.93359375 2.4140625 6.93359375 2.4140625 4.4375 2.625 C3.61121094 2.69976562 2.78492188 2.77453125 1.93359375 2.8515625 C0.97646484 2.92503906 0.97646484 2.92503906 0 3 C0 2.01 0 1.02 0 0 Z " fill="#1965EB" transform="translate(1538,92)"/>
<path d="M0 0 C0.94875 0.350625 1.8975 0.70125 2.875 1.0625 C2.875 1.3925 2.875 1.7225 2.875 2.0625 C4.525 2.3925 6.175 2.7225 7.875 3.0625 C7.875 3.3925 7.875 3.7225 7.875 4.0625 C0.61346154 4.55480769 0.61346154 4.55480769 -3.125 2.0625 C-3.785 1.4025 -4.445 0.7425 -5.125 0.0625 C-3.125 -0.9375 -3.125 -0.9375 0 0 Z " fill="#C4DDFB" transform="translate(1527.125,535.9375)"/>
<path d="M0 0 C0.33 0 0.66 0 1 0 C1.375 2.1875 1.375 2.1875 1 5 C-0.83961648 6.99022836 -2.79186148 8.38989899 -5 10 C-5.66 9.34 -6.32 8.68 -7 8 C-6.21625 7.4225 -5.4325 6.845 -4.625 6.25 C-2.19952756 4.17102363 -1.14305583 2.90959667 0 0 Z " fill="#2976F8" transform="translate(869,621)"/>
<path d="M0 0 C0.33 1.32 0.66 2.64 1 4 C-1.4375 6.75 -1.4375 6.75 -4 9 C-4.66 8.34 -5.32 7.68 -6 7 C-4.02 4.69 -2.04 2.38 0 0 Z " fill="#2473FA" transform="translate(1341,540)"/>
<path d="M0 0 C0.66 0 1.32 0 2 0 C3.7265625 1.96875 3.7265625 1.96875 5.625 4.5 C6.25664063 5.3353125 6.88828125 6.170625 7.5390625 7.03125 C8.02117187 7.6809375 8.50328125 8.330625 9 9 C8.34 9.66 7.68 10.32 7 11 C5.82750647 9.54634731 4.66216184 8.08692581 3.5 6.625 C2.52546875 5.40683594 2.52546875 5.40683594 1.53125 4.1640625 C0 2 0 2 0 0 Z " fill="#156CFC" transform="translate(1413,520)"/>
<path d="M0 0 C0.66 0.66 1.32 1.32 2 2 C-0.71182212 4.60334924 -1.89133813 4.99456691 -5.75 5.1875 C-6.8225 5.125625 -7.895 5.06375 -9 5 C-6.08596738 3.05731159 -3.14191424 1.53604696 0 0 Z " fill="#2173FB" transform="translate(1400,623)"/>
<path d="M0 0 C1.48454806 0.59082014 2.96254351 1.19812655 4.4375 1.8125 C5.67306641 2.31716797 5.67306641 2.31716797 6.93359375 2.83203125 C9 4 9 4 10 7 C8.02 6.34 6.04 5.68 4 5 C4 4.34 4 3.68 4 3 C2.35 2.67 0.7 2.34 -1 2 C-0.67 1.34 -0.34 0.68 0 0 Z " fill="#0F68FB" transform="translate(636,623)"/>
<path d="M0 0 C-2.79908133 2.79908133 -5.13081763 2.72362983 -9 3 C-9.66 2.34 -10.32 1.68 -11 1 C-3.375 -1.125 -3.375 -1.125 0 0 Z " fill="#0F69F9" transform="translate(1525,631)"/>
<path d="M0 0 C0.66 0.33 1.32 0.66 2 1 C-0.23795825 4.35693737 -1.2189697 4.91970563 -5 6 C-7.1640625 5.546875 -7.1640625 5.546875 -9 5 C-7.54735962 4.1361871 -6.0876837 3.28419546 -4.625 2.4375 C-3.40683594 1.72400391 -3.40683594 1.72400391 -2.1640625 0.99609375 C-1.44992187 0.66738281 -0.73578125 0.33867188 0 0 Z " fill="#2C78FA" transform="translate(1069,622)"/>
<path d="M0 0 C2 4 2 4 1.3125 6.125 C0 8 0 8 -3 10 C-2.01 6.7 -1.02 3.4 0 0 Z " fill="#1F6BF8" transform="translate(1094,589)"/>
<path d="M0 0 C3.16717283 1.58358642 4.73268318 2.45263699 6.3125 5.6875 C6.539375 6.450625 6.76625 7.21375 7 8 C6.01 8.495 6.01 8.495 5 9 C2 4.25 2 4.25 2 2 C1.01 1.67 0.02 1.34 -1 1 C-0.67 0.67 -0.34 0.34 0 0 Z " fill="#2378FC" transform="translate(910,533)"/>
<path d="M0 0 C2.625 0.375 2.625 0.375 5 1 C5 1.66 5 2.32 5 3 C5.99 2.67 6.98 2.34 8 2 C8.33 2.99 8.66 3.98 9 5 C5.37 4.01 1.74 3.02 -2 2 C-1.34 1.34 -0.68 0.68 0 0 Z " fill="#3F83F6" transform="translate(262,475)"/>
<path d="M0 0 C0.99 0.33 1.98 0.66 3 1 C-1.5 5.875 -1.5 5.875 -6 7 C-4.02 4.69 -2.04 2.38 0 0 Z " fill="#E6F2FD" transform="translate(140,313)"/>
<path d="M0 0 C0.66 0.99 1.32 1.98 2 3 C1.01 4.32 0.02 5.64 -1 7 C-2.32 6.67 -3.64 6.34 -5 6 C-3.35 4.02 -1.7 2.04 0 0 Z " fill="#2075FB" transform="translate(945,623)"/>
<path d="M0 0 C0.66 0.33 1.32 0.66 2 1 C-2.82142857 7.29464286 -2.82142857 7.29464286 -7 8 C-6.02133662 6.85373678 -5.04205413 5.70800212 -4.0625 4.5625 C-3.51722656 3.92441406 -2.97195313 3.28632812 -2.41015625 2.62890625 C-1.63204305 1.73008851 -0.84063472 0.84063472 0 0 Z " fill="#347BF6" transform="translate(495,537)"/>
<path d="M0 0 C-1.26941497 3.91402949 -2.51167694 5.79072873 -6 8 C-6.33 7.01 -6.66 6.02 -7 5 C-2.25 0 -2.25 0 0 0 Z " fill="#C9102C" transform="translate(1564,92)"/>
<path d="M0 0 C0.33 0 0.66 0 1 0 C1.27748242 1.41154099 1.52093516 2.82979799 1.75 4.25 C1.88921875 5.03890625 2.0284375 5.8278125 2.171875 6.640625 C2 9 2 9 -2 13 C-1.34 8.71 -0.68 4.42 0 0 Z " fill="#CC1029" transform="translate(1554,76)"/>
<path d="M0 0 C1.98 0 3.96 0 6 0 C6 0.66 6 1.32 6 2 C7.98 2 9.96 2 12 2 C12 2.33 12 2.66 12 3 C10.56344146 3.08131463 9.1255517 3.13933559 7.6875 3.1875 C6.48673828 3.23970703 6.48673828 3.23970703 5.26171875 3.29296875 C2.52148416 2.93801608 1.70828921 2.10633718 0 0 Z " fill="#C6DBFB" transform="translate(1258,627)"/>
<path d="M0 0 C3.96 1.98 3.96 1.98 8 4 C8 4.33 8 4.66 8 5 C5.75 5.25 5.75 5.25 3 5 C0.6875 3 0.6875 3 -1 1 C-0.67 0.67 -0.34 0.34 0 0 Z " fill="#1970FC" transform="translate(480,620)"/>
<path d="M0 0 C0.66 0.66 1.32 1.32 2 2 C-0.97 4.475 -0.97 4.475 -4 7 C-4 4 -4 4 -2 1.8125 C-1.34 1.214375 -0.68 0.61625 0 0 Z " fill="#186CF9" transform="translate(1081,612)"/>
<path d="M0 0 C2.3431213 0.25561323 4.67843403 0.59270772 7 1 C7.33 1.66 7.66 2.32 8 3 C5.39417629 3.93065133 4.35801776 4.14917407 1.75 3.0625 C1.1725 2.711875 0.595 2.36125 0 2 C0 1.34 0 0.68 0 0 Z " fill="#156DFA" transform="translate(504,601)"/>
<path d="M0 0 C1.65 1.65 3.3 3.3 5 5 C4.01 6.485 4.01 6.485 3 8 C0.9375 5.6875 0.9375 5.6875 -1 3 C-0.67 2.01 -0.34 1.02 0 0 Z " fill="#1E72FC" transform="translate(697,540)"/>
<path d="M0 0 C0.98120464 3.05263664 0.98120464 4.94736336 0 8 C-0.66 8 -1.32 8 -2 8 C-2 5.69 -2 3.38 -2 1 C-1.34 0.67 -0.68 0.34 0 0 Z " fill="#1F70FC" transform="translate(258,531)"/>
<path d="M0 0 C1.94268841 2.91403262 3.46395304 5.85808576 5 9 C3.0625 8.625 3.0625 8.625 1 8 C-0.35439668 5.29120665 -0.06501451 2.99066732 0 0 Z " fill="#2F7BFB" transform="translate(131,334)"/>
<path d="M0 0 C-0.33 0.66 -0.66 1.32 -1 2 C-4.0625 2.625 -4.0625 2.625 -7 3 C-7 2.01 -7 1.02 -7 0 C-3.98968256 -0.93423645 -3.13349732 -1.04449911 0 0 Z " fill="#F2F6FC" transform="translate(256,667)"/>
<path d="M0 0 C0.33 0.99 0.66 1.98 1 3 C-0.75 4.5625 -0.75 4.5625 -3 6 C-5.25 5.6875 -5.25 5.6875 -7 5 C-6.030625 4.360625 -5.06125 3.72125 -4.0625 3.0625 C-1.23963731 1.3034741 -1.23963731 1.3034741 0 0 Z " fill="#2070FA" transform="translate(1537,621)"/>
<path d="M0 0 C0.6875 1.6875 0.6875 1.6875 1 4 C-0.3125 6.75 -0.3125 6.75 -2 9 C-2.66 9 -3.32 9 -4 9 C-2.80100302 5.9168649 -1.52299523 2.93720508 0 0 Z " fill="#1D6FF9" transform="translate(1002,546)"/>
<path d="M0 0 C1.4800841 0.11362262 2.95910074 0.24122908 4.4375 0.375 C5.26121094 0.44460938 6.08492187 0.51421875 6.93359375 0.5859375 C7.95646484 0.79089844 7.95646484 0.79089844 9 1 C9.33 1.66 9.66 2.32 10 3 C8.35 3.33 6.7 3.66 5 4 C4.67 3.01 4.34 2.02 4 1 C1.98491642 0.26676204 1.98491642 0.26676204 0 0 Z " fill="#2776F6" transform="translate(1373,530)"/>
</svg>
