<?xml version="1.0" encoding="UTF-8"?>
<svg version="1.1" xmlns="http://www.w3.org/2000/svg" width="1254" height="1254">
<path d="M0 0 C413.82 0 827.64 0 1254 0 C1254 413.82 1254 827.64 1254 1254 C840.18 1254 426.36 1254 0 1254 C0 840.18 0 426.36 0 0 Z " fill="#FDFDFD" transform="translate(0,0)"/>
<path d="M0 0 C1.8046364 0.1348004 3.60931985 0.26897334 5.4140625 0.40234375 C90.5916809 7.14957822 174.73936769 37.08126798 306.6484375 130.83203125 C308.79288047 132.80905094 310.97531568 134.72457138 313.1875 136.625 C316.63378518 139.61505598 319.82631132 142.80591905 323.0234375 146.05859375 C324.82743413 147.83050348 326.68233121 149.4463649 328.625 151.0625 C334.63958593 156.23976123 339.86836148 162.23498493 345.22607422 168.07324219 C346.89264179 169.88339237 348.57042196 171.68215295 350.25390625 173.4765625 C355.58022417 179.1658666 360.72648981 184.9322855 365.60546875 191.015625 C367.38240685 193.23027542 369.17495802 195.42492381 370.98828125 197.609375 C405.60468371 239.44673167 436.02770839 288.73169042 454.66210938 339.86328125 C455.95911692 343.37444151 457.34333207 346.8034732 458.90234375 350.20703125 C466.49048156 367.07996622 471.54202764 385.27100512 476.5 403.0625 C476.71327942 403.8217276 476.92655884 404.5809552 477.14630127 405.3631897 C479.38303868 413.36155886 481.41654067 421.29102305 482.58032227 429.53100586 C482.99406499 431.96508391 483.6322862 434.16940674 484.4375 436.5 C486.32653917 442.37701077 487.06860603 448.42091738 487.90991211 454.51757812 C488.47170556 458.57174122 489.09765675 462.56871255 489.9609375 466.5703125 C491.3248678 473.19530161 492.03818318 479.90723374 492.80493164 486.62158203 C493.06126258 488.86417401 493.32405774 491.10593575 493.58789062 493.34765625 C495.00624853 505.54708614 496.16049273 517.59576409 496.09765625 529.890625 C496.0962413 530.96125183 496.09482635 532.03187866 496.09336853 533.13494873 C496.08783481 536.50666266 496.07529534 539.87830663 496.0625 543.25 C496.05747641 545.55598861 496.05291502 547.86197829 496.04882812 550.16796875 C496.03788722 555.77866913 496.02121682 561.38932956 496 567 C483.77685992 567.11649841 471.55385466 567.20501964 459.33026981 567.25906086 C453.65267715 567.28501452 447.97546783 567.3201491 442.2980957 567.37719727 C436.80615476 567.43202886 431.3145796 567.46152716 425.82238579 567.47438622 C423.74027191 567.48353515 421.65817517 567.50139728 419.57621956 567.52865028 C397.2043857 567.8095158 378.16685538 563.35563254 361.40478516 547.45214844 C347.04628616 532.60954294 343.60514144 513.68978615 340.6680603 494.09423828 C334.84539913 455.70495489 324.4924526 418.65319661 309 383 C308.33097656 381.44756592 308.33097656 381.44756592 307.6484375 379.86376953 C294.70376676 350.03330571 277.76922561 321.12863644 257 296 C256.56139648 295.46810059 256.12279297 294.93620117 255.67089844 294.38818359 C250.28002827 287.87280277 244.73076152 281.51264782 239.0390625 275.2578125 C237.19882789 273.22015808 235.40819442 271.14993613 233.625 269.0625 C226.68356009 261.10641806 219.03636672 253.83440578 211 247 C210.04222656 246.15308594 209.08445312 245.30617188 208.09765625 244.43359375 C173.53263362 214.00100699 133.08699682 190.13676037 90 174 C89.24098389 173.71253906 88.48196777 173.42507813 87.69995117 173.12890625 C73.24863338 167.46086008 73.24863338 167.46086008 58.2890625 163.48828125 C54.10333296 162.59542085 50.02086836 161.3084283 45.91796875 160.09765625 C36.02886724 157.28911417 26.25599338 155.29477062 16.0625 153.9375 C13.69912285 153.61398108 11.33584097 153.28976534 8.97265625 152.96484375 C7.81266113 152.80741699 6.65266602 152.64999023 5.45751953 152.48779297 C2.0878651 152.01239616 -1.26926726 151.48257295 -4.62890625 150.94140625 C-17.35751561 148.98801054 -30.02239008 148.72343328 -42.875 148.6875 C-43.80720367 148.68454926 -44.73940735 148.68159851 -45.69985962 148.67855835 C-59.45111827 148.66876057 -73.01759757 149.31755478 -86.6875 150.8125 C-87.45294128 150.89527191 -88.21838257 150.97804382 -89.00701904 151.06332397 C-99.44189389 152.21916315 -109.70687054 153.94855242 -120 156 C-120.92312988 156.17362061 -121.84625977 156.34724121 -122.79736328 156.52612305 C-129.29907613 157.76358764 -135.67473384 159.39919442 -142.0625 161.125 C-143.18140625 161.42704346 -144.3003125 161.72908691 -145.453125 162.0402832 C-153.52446625 164.25188042 -161.52718499 166.64422427 -169.5 169.1875 C-171.01025757 169.66823975 -171.01025757 169.66823975 -172.55102539 170.15869141 C-178.81403599 172.1909862 -184.91894137 174.47835995 -191 177 C-191.93811523 177.38124023 -192.87623047 177.76248047 -193.84277344 178.15527344 C-233.42677638 194.37992364 -269.73708674 216.94334728 -302 245 C-302.71285156 245.61230469 -303.42570312 246.22460938 -304.16015625 246.85546875 C-312.82006053 254.34175151 -321.2012374 262.11212794 -329.3125 270.1875 C-329.87469238 270.7451001 -330.43688477 271.3027002 -331.01611328 271.87719727 C-356.26910046 297.22305363 -377.06491577 327.54902579 -393.91357422 358.98730469 C-394.92438694 360.85992044 -395.95882969 362.71666306 -397.00390625 364.5703125 C-420.7079844 407.38131425 -435.32601179 456.67229558 -442.0625 505.0625 C-444.06415369 519.21628736 -447.91553877 530.67967359 -457 542 C-457.76376953 543.02480469 -457.76376953 543.02480469 -458.54296875 544.0703125 C-463.60273698 550.44187249 -470.21789702 554.64743517 -477 559 C-477.80179687 559.53753906 -478.60359375 560.07507813 -479.4296875 560.62890625 C-482.66045289 562.35230846 -485.96956329 563.25112953 -489.5 564.125 C-490.15097656 564.29386719 -490.80195313 564.46273437 -491.47265625 564.63671875 C-493.31078341 565.10831905 -495.1552857 565.55486242 -497 566 C-497.7094426 566.18054428 -498.41888519 566.36108856 -499.14982605 566.54710388 C-503.17371041 567.18650402 -507.12856276 567.13051214 -511.1965332 567.11352539 C-512.57288185 567.11374443 -512.57288185 567.11374443 -513.97703552 567.1139679 C-517.00164171 567.11327275 -520.02618586 567.10549897 -523.05078125 567.09765625 C-525.15113796 567.09579066 -527.25149511 567.09436742 -529.35185242 567.09336853 C-534.8739645 567.08955449 -540.39605019 567.07973368 -545.91815186 567.06866455 C-551.55545698 567.05842652 -557.19276638 567.05386578 -562.83007812 567.04882812 C-573.88673033 567.03811043 -584.94336297 567.02104735 -596 567 C-596.00873561 563.52254393 -596.01393535 560.04509074 -596.01855469 556.56762695 C-596.02104218 555.59442757 -596.02352966 554.62122818 -596.02609253 553.6185379 C-596.03486071 544.79001595 -595.74162817 536.00099951 -595.25 527.1875 C-595.20842773 526.415271 -595.16685547 525.64304199 -595.12402344 524.84741211 C-593.87843278 502.20764854 -592.43439021 477.98997859 -586.49609375 456.078125 C-585.87238975 453.46544367 -585.47423743 450.84167518 -585.0625 448.1875 C-584.43890046 444.28513102 -583.65851005 440.54607649 -582.5625 436.75 C-581.31887474 432.42193783 -580.45487721 428.12474586 -579.6875 423.6875 C-576.47436317 405.52456591 -571.22700753 386.84027603 -564.09375 369.8125 C-562.59757891 365.96520292 -561.34169959 362.04884599 -560.0625 358.125 C-558.04075336 351.9545532 -555.87314722 345.92094378 -553.27783203 339.96264648 C-552.08551938 337.1982762 -550.94615783 334.41771443 -549.8125 331.62890625 C-546.66108767 324.06086941 -543.14202319 316.6850311 -539.5625 309.3125 C-539.2137381 308.5934549 -538.8649762 307.87440979 -538.50564575 307.13357544 C-524.69766448 278.74708609 -508.72594634 251.43890295 -490 226 C-489.5040332 225.32533691 -489.00806641 224.65067383 -488.49707031 223.95556641 C-470.05553056 198.95821917 -450.05509389 175.99155738 -428.125 154 C-427.58493317 153.45725433 -427.04486633 152.91450867 -426.48843384 152.35531616 C-420.50506063 146.34943583 -414.45244745 140.5059861 -408 135 C-406.4551874 133.5867645 -404.91304675 132.17059591 -403.375 130.75 C-398.32870307 126.19677635 -393.03992784 122.02337991 -387.66796875 117.8671875 C-385.28085249 116.01621163 -382.93274027 114.13032708 -380.61328125 112.1953125 C-369.37092548 102.86546409 -357.23162615 94.96359758 -345 87 C-343.6480954 86.11119722 -342.29648072 85.22195309 -340.9453125 84.33203125 C-262.64500055 33.0322055 -169.97435657 4.07617067 0 0 Z " fill="#044299" transform="translate(683,164)"/>
<path d="M0 0 C293.04 0 586.08 0 888 0 C888 57.09 888 114.18 888 173 C594.96 173 301.92 173 0 173 C0 115.91 0 58.82 0 0 Z " fill="#034199" transform="translate(189,811)"/>
<path d="M0 0 C0 59.07 0 118.14 0 179 C-4.37113086 180.24889453 -7.89215087 181.21884091 -12.25 181.8125 C-26.3945973 184.0961709 -39.9096113 188.20976112 -53 194 C-54.00063477 194.43070801 -54.00063477 194.43070801 -55.02148438 194.87011719 C-74.46239192 203.28117401 -90.79833386 215.08332289 -106.20629883 229.546875 C-109.8987432 233 -109.8987432 233 -111 233 C-111.16244085 221.66460722 -111.28669632 210.32949289 -111.3626852 198.99317169 C-111.39916304 193.7287525 -111.44861361 188.46513164 -111.52807617 183.20117188 C-111.60433066 178.11771338 -111.64603126 173.03502099 -111.6641407 167.95103455 C-111.67704 166.01492761 -111.70223042 164.07886098 -111.7401104 162.14308167 C-112.06106591 145.05630643 -112.06106591 145.05630643 -107.55249023 139.96362305 C-106.92664536 139.44189011 -106.30080048 138.92015717 -105.6559906 138.38261414 C-103.02790648 136.18838293 -102.47392802 133.54076296 -101.625 130.3125 C-101.32851563 129.23613281 -101.03203125 128.15976562 -100.7265625 127.05078125 C-100.36691406 125.54064453 -100.36691406 125.54064453 -100 124 C-99.80664062 123.23816406 -99.61328125 122.47632813 -99.4140625 121.69140625 C-98.79552853 117.67093546 -98.77515314 113.68723209 -98.75 109.625 C-98.729375 108.8 -98.70875 107.975 -98.6875 107.125 C-98.65263869 101.63434341 -99.4110427 97.86372074 -102 93 C-104.1385485 90.8614515 -105.13275314 90.57344937 -108 90 C-106.52832684 68.41546036 -89.25232982 49.76147054 -74 36 C-56.1167739 20.71896173 -24.5245221 0 0 0 Z " fill="#034299" transform="translate(770,485)"/>
<path d="M0 0 C36.69015052 8.15336678 75.87465579 29.29597682 96.73950195 61.54052734 C101.79179982 69.66002836 108 80.19212499 108 90 C107.05125 90.268125 106.1025 90.53625 105.125 90.8125 C101.74732727 91.74986588 101.74732727 91.74986588 100 95 C95.99514073 108.59611458 98.30389795 126.69955167 105 139 C107.48708129 142.60708767 107.48708129 142.60708767 111 145 C111 174.04 111 203.08 111 233 C110.34 233 109.68 233 109 233 C108.46375 232.319375 107.9275 231.63875 107.375 230.9375 C92.96010644 213.1085527 70.37794634 202.26078514 50 193 C48.83726562 192.47019531 47.67453125 191.94039062 46.4765625 191.39453125 C31.69731394 184.95585058 15.95369183 181.77263243 0 180 C0 120.6 0 61.2 0 0 Z " fill="#044199" transform="translate(489,485)"/>
<path d="M0 0 C26.73 0 53.46 0 81 0 C81 45.87 81 91.74 81 139 C102.78 139 124.56 139 147 139 C147 152.2 147 165.4 147 179 C98.16 179 49.32 179 -1 179 C0.97053042 173.08840875 2.629668 168.42176954 5.4375 163.0625 C7.89092512 158.29816443 10.06908835 153.5212051 11.9921875 148.51953125 C13.58181788 144.5454553 15.42200398 140.69286649 17.234375 136.81640625 C18.95722899 133.11704483 20.61669677 129.39047661 22.27783203 125.66308594 C25.32530534 118.82904686 28.41252251 112.04164081 31.8125 105.375 C33.7931726 101.45059042 35.74715111 97.5321507 37.5 93.5 C37.8196875 92.7678125 38.139375 92.035625 38.46875 91.28125 C39.66772386 86.13271517 37.7745805 82.12511336 35.1875 77.75 C32.66032506 73.31232917 30.67833788 68.89826984 28.86328125 64.1328125 C28.01498969 61.87841914 28.01498969 61.87841914 26.5 59.5 C25.04301808 57.0716968 24.08017355 54.76223963 23.0625 52.125 C21.8877701 49.09660886 20.67975545 46.27983058 19 43.5 C16.86831281 39.9693931 15.48036528 36.24594744 14 32.40625 C13.12662352 30.30468785 12.17331029 28.44329517 11 26.5 C8.87140604 22.97451625 7.48262249 19.2590152 6.01171875 15.421875 C5.09157075 13.21920412 4.057191 11.28104814 2.8125 9.25 C1 6 1 6 0 0 Z " fill="#034299" transform="translate(90,863)"/>
<path d="M0 0 C26.73 0 53.46 0 81 0 C79.59071658 4.22785026 78.2114138 7.85407522 76.28515625 11.80859375 C75.50301758 13.42411133 75.50301758 13.42411133 74.70507812 15.07226562 C74.16302734 16.18279297 73.62097656 17.29332031 73.0625 18.4375 C69.16768201 26.37322824 69.16768201 26.37322824 65.53515625 34.4296875 C62.74866914 40.91021987 59.56548493 47.21193033 56.46484375 53.54711914 C55.58518559 55.34618192 54.71049458 57.14767073 53.8359375 58.94921875 C53.05549072 60.54769653 53.05549072 60.54769653 52.25927734 62.1784668 C51.2291871 64.48648403 50.49081286 66.53368396 50 69 C49.34 69 48.68 69 48 69 C47.88914062 69.71285156 47.77828125 70.42570313 47.6640625 71.16015625 C46.94749049 74.22455539 45.79756752 76.63607513 44.375 79.4375 C42.88490005 82.66820946 42.00764841 84.60993092 41.9375 88.1875 C43.06430729 91.17022517 44.35423446 93.97182846 45.8671875 96.77734375 C47.04460148 99.08751118 48.0535618 101.4469508 49.06298828 103.83422852 C51.12244857 108.59438282 53.32919799 113.28987788 55.5 118 C58.40585263 124.30500651 61.288621 130.60889235 64 137 C64.82724808 138.83608719 65.66018225 140.66962799 66.5 142.5 C68.10671119 146.00180644 69.65127789 149.52328852 71.16113281 153.06787109 C72.08434269 155.19426311 73.0428369 157.30239852 74.0078125 159.41015625 C74.35457031 160.17263672 74.70132812 160.93511719 75.05859375 161.72070312 C75.77235001 163.28809096 76.49114657 164.85319286 77.21484375 166.41601562 C77.55902344 167.17720703 77.90320312 167.93839844 78.2578125 168.72265625 C78.5686377 169.40078369 78.87946289 170.07891113 79.19970703 170.77758789 C80 173 80 173 81 179 C32.49 179 -16.02 179 -66 179 C-66 165.8 -66 152.6 -66 139 C-44.22 139 -22.44 139 0 139 C0 93.13 0 47.26 0 0 Z " fill="#034199" transform="translate(1095,864)"/>
<path d="M0 0 C2.28900544 3.43350816 2.65183782 5.82863624 3.4375 9.875 C7.55067212 28.86979845 15.6154604 48.01845215 25 65 C25.31501465 65.58168945 25.6300293 66.16337891 25.95458984 66.76269531 C29.9785925 74.18252384 34.41489046 81.24988038 39.13476562 88.2409668 C57.18228934 114.98304447 57.18228934 114.98304447 58 125 C58.11214844 126.00353516 58.11214844 126.00353516 58.2265625 127.02734375 C58.58078721 132.62968723 57.49887763 137.60081889 55.875 142.9375 C55.68728027 143.56897949 55.49956055 144.20045898 55.30615234 144.85107422 C53.31330387 150.9787338 50.14386982 156.40120362 47 162 C35.7054014 182.84413249 26.87019696 202.45630181 23 226 C17.06 226 11.12 226 5 226 C4.23958653 212.16558685 3.75515659 198.35458016 3.49731445 184.50219727 C3.43787971 181.33274868 3.37260169 178.16345936 3.30664062 174.99414062 C3.01421465 160.32827765 2.94620855 145.66851524 3 131 C3.95261719 130.53980469 4.90523437 130.07960938 5.88671875 129.60546875 C9.11642972 127.93995908 10.36203038 127.18973032 12 124 C13.00738995 119.53870163 13.34183637 117.1109682 12 112.75 C10.13894842 109.70355626 10.13894842 109.70355626 6.44287109 108.44750977 C4.09752416 107.14890908 3.18095261 106.53451025 2.31134033 103.96578979 C2.0113864 101.32355349 1.92684431 98.74913586 1.9140625 96.08984375 C1.88194672 95.12599258 1.84983093 94.16214142 1.81674194 93.16908264 C1.72070573 90.09179643 1.67163142 87.01589463 1.625 83.9375 C1.54670806 80.85649602 1.45898573 77.77588767 1.36898804 74.69520569 C1.31649856 72.77895888 1.27278291 70.86244769 1.23867798 68.94578552 C1.22130585 68.0780098 1.20393372 67.21023407 1.18603516 66.31616211 C1.17383942 65.55323349 1.16164368 64.79030487 1.14907837 64.0042572 C1.06683128 61.79218196 1.06683128 61.79218196 0 59 C-0.66 74.51 -1.32 90.02 -2 106 C-3.98 106.99 -5.96 107.98 -8 109 C-10.4656856 111.04056739 -10.95657975 111.86973924 -12 115 C-12.46196347 122.04080733 -12.46196347 122.04080733 -9 128 C-7.02024116 129.03949744 -5.02143233 130.0440652 -3 131 C-2.84434093 162.68021196 -3.2701302 194.32830941 -4 226 C-9.94 226 -15.88 226 -22 226 C-22.350625 223.958125 -22.70125 221.91625 -23.0625 219.8125 C-27.12531815 198.84751243 -36.03339937 179.88766763 -46.72509766 161.53686523 C-54.72924338 147.79386598 -60.41728384 133.45014559 -56.25390625 117.46875 C-52.37598922 106.74105428 -44.91705385 97.36639824 -38.59082031 87.97167969 C-32.96363118 79.55408986 -27.82870178 70.89831449 -23 62 C-22.61247559 61.28924316 -22.22495117 60.57848633 -21.82568359 59.84619141 C-11.84875335 41.17674716 -5.92338618 20.24583019 0 0 Z " fill="#FCC505" transform="translate(629,352)"/>
<path d="M0 0 C21.45 0 42.9 0 65 0 C65 9.9 65 19.8 65 30 C59 35 59 35 56 35 C56.00184359 35.7454476 56.00368717 36.4908952 56.00558662 37.25893211 C56.04970877 55.37705515 56.08282881 73.4951675 56.10362434 91.61333275 C56.11394758 100.37505393 56.12802784 109.1367393 56.15087891 117.8984375 C56.17078081 125.53297341 56.18370881 133.16748339 56.18817699 140.80204451 C56.19078981 144.84643933 56.19695267 148.89075997 56.21146011 152.93513107 C56.22499356 156.73864024 56.22923129 160.54204438 56.22621536 164.34557533 C56.22676743 165.74444079 56.23077008 167.14330961 56.23841095 168.54215431 C56.24830538 170.4463207 56.24479038 172.35054294 56.24050903 174.25473022 C56.24235262 175.3221665 56.24419621 176.38960278 56.24609566 177.4893856 C56 180 56 180 54 182 C53.21367188 182.19722656 52.42734375 182.39445313 51.6171875 182.59765625 C47.55113144 184.77633405 46.75409963 188.27457238 45.125 192.4375 C38.88511241 207.38521257 38.88511241 207.38521257 34 213 C33.01 213 32.02 213 31 213 C25.47583311 206.52483729 16 191.64334283 16 183 C15.030625 182.855625 14.06125 182.71125 13.0625 182.5625 C10 182 10 182 9 181 C8.90345273 179.11438482 8.87812759 177.22510545 8.87974548 175.33702087 C8.87768349 173.49225914 8.87768349 173.49225914 8.87557983 171.61022949 C8.87911944 170.23486304 8.88275426 168.85949683 8.88647461 167.48413086 C8.88675648 166.04557802 8.88659876 164.60702504 8.8860321 163.16847229 C8.88574411 159.25128857 8.89164116 155.33413521 8.89860606 151.41695857 C8.90483926 147.32766163 8.90544337 143.23836407 8.90663147 139.14906311 C8.90974489 131.40007602 8.91795841 123.65110297 8.92798096 115.90212208 C8.93914178 107.08243791 8.94465247 98.26275309 8.94967639 89.44306362 C8.96014102 71.29536777 8.97774066 53.14768501 9 35 C8.2575 34.9175 7.515 34.835 6.75 34.75 C4 34 4 34 0 30 C0 20.1 0 10.2 0 0 Z " fill="#0D489C" transform="translate(597,585)"/>
<path d="M0 0 C22 0 22 0 27.26953125 5.140625 C28.55694564 7.50777885 29.6999011 9.80932003 30.8125 12.25 C31.46991846 13.51756872 32.13655318 14.78039498 32.81176758 16.03857422 C34.21285163 18.66556804 35.57197727 21.30871594 36.90722656 23.96972656 C39.95786152 29.95643052 43.52908406 35.62606947 47.07406616 41.32849121 C48.83382291 44.16783231 50.5623046 47.02564178 52.29296875 49.8828125 C52.8655542 50.82527832 53.43813965 51.76774414 54.02807617 52.73876953 C56.6967588 57.1523219 59.34641307 61.57735511 62 66 C62.33 44.22 62.66 22.44 63 0 C69.27 0 75.54 0 82 0 C82 32.34 82 64.68 82 98 C61 98 61 98 56.703125 94.42578125 C55.39526367 92.00585938 55.39526367 92.00585938 54.25 89.3125 C53.25310718 87.39098951 52.25429767 85.4704726 51.25390625 83.55078125 C50.74359863 82.5035791 50.23329102 81.45637695 49.70751953 80.37744141 C46.84704242 74.71947166 43.55298119 69.3209655 40.30432129 63.87973022 C38.87270133 61.47016002 37.46524411 59.04697375 36.05819702 56.6230011 C32.38602136 50.30031756 28.6077093 44.05333871 24.75512695 37.83984375 C23.14827628 35.23991511 21.57250626 32.62084377 20 30 C19.67 52.44 19.34 74.88 19 98 C12.73 98 6.46 98 0 98 C0 65.66 0 33.32 0 0 Z " fill="#F6F8FB" transform="translate(312,848)"/>
<path d="M0 0 C0 60.72 0 121.44 0 184 C-8.58 184.33 -17.16 184.66 -26 185 C-64.6608532 188.27130296 -106.97376726 203.8622065 -135.546875 230.8203125 C-137 232 -137 232 -139 232 C-140.49683352 220.30806704 -140.49683352 220.30806704 -137.37109375 215.48828125 C-135.25031968 213.54692969 -133.08330043 211.81827439 -130.71630859 210.18652344 C-128.812337 208.87026427 -126.96535113 207.48982458 -125.11328125 206.1015625 C-96.9879842 185.3263343 -65.85114799 173.43567346 -31.625 167.1875 C-30.61856445 167.00151245 -30.61856445 167.00151245 -29.59179688 166.81176758 C-25.23634803 166.06324376 -21.52144255 166 -17 166 C-17 111.88 -17 57.76 -17 2 C-9 0 -9 0 0 0 Z " fill="#0A459B" transform="translate(798,511)"/>
<path d="M0 0 C6.38120424 -0.24080016 12.9450303 -0.2366111 19 2 C20.66966428 4.61580738 21.20953653 6.11559355 22 9 C22.74966319 10.63487434 23.52295239 12.25901003 24.3125 13.875 C26.84812441 19.39685678 28.85223292 25.05042363 30.76879883 30.81005859 C32.23405041 35.13313525 33.97113966 39.15149717 36.09399414 43.19433594 C37.28446318 45.56693336 38.18457109 48.03035699 39.078125 50.52734375 C40.58724291 54.57510491 42.2589173 58.56208648 43.93115234 62.54516602 C45.48804228 66.35283133 46.48519132 69.91919951 47 74 C47.66 74 48.32 74 49 74 C49.02578125 73.25621094 49.0515625 72.51242187 49.078125 71.74609375 C49.53012021 63.04518591 50.84900339 54.68746911 52.41040039 46.12719727 C53.8873745 37.9298906 55.02883854 29.71514904 56.04833984 21.44946289 C56.2158374 20.09389282 56.2158374 20.09389282 56.38671875 18.7109375 C56.52920044 17.52443604 56.52920044 17.52443604 56.67456055 16.31396484 C57.02082955 13.85189614 57.49069981 11.43311366 58 9 C64.49850211 9.51553879 70.66226532 10.46667709 77 12 C75.5853826 26.97765742 73.15575061 41.73820512 70.625 56.5625 C69.8445622 61.16766638 69.06679932 65.77328306 68.2890625 70.37890625 C68.09926819 71.49971588 67.90947388 72.62052551 67.71392822 73.77529907 C65.73324126 85.5046962 63.85637707 97.2503692 62 109 C60.56624607 109.00424125 59.13248848 109.00725952 57.69873047 109.00976562 C56.90030731 109.01157837 56.10188416 109.01339111 55.27926636 109.01525879 C50.67792251 108.98445461 46.29435522 108.75250247 42 107 C40.15773752 104.53972614 39.71384892 101.94918604 39 99 C38.37117126 97.64840959 37.70380198 96.31410996 37 95 C34.4572415 90.02962678 32.64851327 84.85411007 30.80859375 79.59375 C30.37675781 78.3665625 29.94492187 77.139375 29.5 75.875 C29.0978125 74.71742188 28.695625 73.55984375 28.28125 72.3671875 C27.04400855 69.11565663 25.56630153 66.10264648 24 63 C23.50634313 61.61626483 23.04440972 60.22051833 22.625 58.8125 C21.15855724 54.22695676 19.22720611 49.93273825 17.18359375 45.578125 C16.0368738 43.08031918 14.99911037 40.55993257 14 38 C11.76034334 41.66151338 11.49830459 45.14977072 11.0625 49.375 C10.49454183 54.45462592 9.77832876 59.38763239 8.625 64.375 C6.73633208 72.63310413 5.57307118 80.99851147 4.35791016 89.37841797 C4.19597168 90.47686035 4.0340332 91.57530273 3.8671875 92.70703125 C3.72394043 93.7019458 3.58069336 94.69686035 3.43310547 95.72192383 C3 98 3 98 2 99 C-4.27873152 99.34247626 -9.88810096 98.36912856 -16 97 C-15.5373868 84.00773621 -12.97567525 71.27734887 -10.75 58.5 C-10.33934551 56.1188196 -9.92919123 53.73755287 -9.51953125 51.35620117 C-8.71588826 46.68925442 -7.90908141 42.02287269 -7.09960938 37.35693359 C-6.16336966 31.95486259 -5.24109721 26.55057688 -4.328125 21.14453125 C-4.09548164 19.77211778 -3.86273991 18.39972097 -3.62988281 17.02734375 C-3.22126979 14.61747716 -2.81427106 12.20733607 -2.40917969 9.796875 C-2.14476074 8.25193359 -2.14476074 8.25193359 -1.875 6.67578125 C-1.72804688 5.80864502 -1.58109375 4.94150879 -1.4296875 4.0480957 C-1 2 -1 2 0 0 Z " fill="#F6F8FB" transform="translate(697,194)"/>
<path d="M0 0 C5.68231526 0.51657411 11.37188525 1.06198087 17 2 C17 56.45 17 110.9 17 167 C21.29 167 25.58 167 30 167 C33.953125 167.515625 33.953125 167.515625 37.25 168.25 C39.14105469 168.66958984 39.14105469 168.66958984 41.0703125 169.09765625 C42.03759277 169.32219482 42.03759277 169.32219482 43.02441406 169.55126953 C45.00834908 170.00189639 46.99748629 170.40858682 48.9921875 170.80859375 C82.19255736 177.71148419 114.9977669 194.9977669 139 219 C139.07258946 221.18639453 139.08373783 223.37500389 139.0625 225.5625 C139.05347656 226.76003906 139.04445313 227.95757813 139.03515625 229.19140625 C139.02355469 230.11824219 139.01195312 231.04507813 139 232 C136.29847876 230.72681 133.98366422 229.33917136 131.63671875 227.49609375 C131.00451416 227.0069751 130.37230957 226.51785645 129.72094727 226.01391602 C129.04990967 225.49369873 128.37887207 224.97348145 127.6875 224.4375 C120.11270702 218.65872916 112.26968684 213.71168559 104 209 C103.15824219 208.49726562 102.31648437 207.99453125 101.44921875 207.4765625 C96.70046008 204.69309827 91.89492118 202.73963287 86.67578125 200.9921875 C84 200 84 200 81.4453125 198.62890625 C56.45721225 186.81480443 26.8283426 184.91631019 0 183 C0 122.61 0 62.22 0 0 Z " fill="#0A459A" transform="translate(461,511)"/>
<path d="M0 0 C0.58523438 0.433125 1.17046875 0.86625 1.7734375 1.3125 C1.7734375 5.64424693 -0.88478833 7.53603653 -3.7265625 10.5 C-4.25121094 11.05880859 -4.77585937 11.61761719 -5.31640625 12.19335938 C-6.61317863 13.57265364 -7.91902509 14.94340644 -9.2265625 16.3125 C-10.53367187 15.83296875 -10.53367187 15.83296875 -11.8671875 15.34375 C-17.92053525 13.48551302 -24.0230102 13.09209912 -30.015625 15.375 C-37.42520616 19.49392125 -42.5409988 25.23161463 -45.2265625 33.3125 C-46.47748752 43.59626728 -44.12189812 51.66201434 -38.0390625 59.9375 C-31.34421823 68.01995089 -22.811172 76.31262868 -11.87890625 77.5859375 C-5.32857862 77.83098573 -1.01743801 76.75015796 4.6796875 73.50390625 C6.7734375 72.3125 6.7734375 72.3125 9.7734375 71.3125 C10.86022465 69.4943082 10.86022465 69.4943082 11.7734375 67.3125 C12.19882812 66.6009375 12.62421875 65.889375 13.0625 65.15625 C16.80346338 58.59315634 17.99355743 52.82757497 16.7734375 45.3125 C15.68796802 42.81545434 14.60310062 41.37087101 12.7734375 39.3125 C8.21078826 41.22653653 5.43875294 44.58581049 2.08984375 48.12109375 C-0.20808417 50.29501882 -2.46155909 51.79589319 -5.2265625 53.3125 C-6.52364564 51.90079091 -7.81402228 50.48291804 -9.1015625 49.0625 C-9.82085937 48.27359375 -10.54015625 47.4846875 -11.28125 46.671875 C-12.99591733 44.59223832 -14.15637123 42.76830733 -15.2265625 40.3125 C-14.46214844 39.60867188 -13.69773437 38.90484375 -12.91015625 38.1796875 C-4.3155568 30.25957344 4.23638791 22.29458233 12.7734375 14.3125 C19.61081873 17.59423161 24.14157602 23.67730364 29.0234375 29.34375 C30.71142036 31.24273071 32.46113484 33.03255988 34.2734375 34.8125 C39.5203015 39.97682906 44.17700387 45.56695796 48.7734375 51.3125 C44.3184375 56.2625 44.3184375 56.2625 39.7734375 61.3125 C35.2734375 58.3125 35.2734375 58.3125 30.7734375 55.3125 C30.89525391 56.25996094 30.89525391 56.25996094 31.01953125 57.2265625 C31.71700618 67.10508496 27.8300624 75.16711891 21.80859375 82.8046875 C12.81900152 92.23930905 1.41069453 97.30098628 -11.6640625 97.875 C-23.34255471 97.45186622 -33.28384948 92.55183912 -42.2265625 85.3125 C-43.36351562 84.45398438 -43.36351562 84.45398438 -44.5234375 83.578125 C-53.73939853 76.14179782 -62.07508642 64.04653731 -64.2265625 52.3125 C-65.70492201 38.01438311 -64.28279643 25.73267253 -54.953125 14.25 C-49.34921613 7.96145068 -43.83433502 2.11638626 -36.2265625 -1.6875 C-35.61039062 -2.00589844 -34.99421875 -2.32429688 -34.359375 -2.65234375 C-23.43589234 -7.26400861 -9.82144391 -6.37066632 0 0 Z " fill="#F7F8FB" transform="translate(297.2265625,345.6875)"/>
<path d="M0 0 C7.26 0 14.52 0 22 0 C33.30232458 26.92051571 44.10693422 54.04639028 54.87084961 81.18588257 C55.62763639 83.07197931 56.39948875 84.95209636 57.18579102 86.82608032 C57.55309326 87.70823212 57.92039551 88.59038391 58.29882812 89.49926758 C58.79098816 90.65958244 58.79098816 90.65958244 59.29309082 91.84333801 C60 94 60 94 60 98 C53.07 98 46.14 98 39 98 C36.69 91.4 34.38 84.8 32 78 C19.46 78 6.92 78 -6 78 C-6.99 82.29 -7.98 86.58 -9 91 C-9.99 93.97 -10.98 96.94 -12 100 C-18.93 100 -25.86 100 -33 100 C-30.40975722 89.90846311 -27.49225841 80.02455986 -24.16333008 70.15380859 C-23.42925398 67.97553097 -22.7034398 65.79461967 -21.97851562 63.61328125 C-18.41500572 52.96471951 -18.41500572 52.96471951 -16.4543457 48.40698242 C-15.13897437 45.32556444 -14.1105754 42.32511431 -13.171875 39.11328125 C-10.74891166 31.06096641 -8.00298966 23.13130285 -5.25 15.1875 C-4.73808254 13.70514673 -4.22636266 12.22272522 -3.71484375 10.74023438 C-2.47919002 7.15923788 -1.23952649 3.57966701 0 0 Z " fill="#F8F9FB" transform="translate(609,191)"/>
<path d="M0 0 C1.0044134 2.2898234 2.00367612 4.5816599 3 6.875 C3.28617187 7.52597656 3.57234375 8.17695313 3.8671875 8.84765625 C6 13.7734375 6 13.7734375 6 16 C0.57702066 18.53344619 -4.84906408 21.06007386 -10.27807617 23.58056641 C-12.12268546 24.43809543 -13.96644829 25.29744779 -15.80932617 26.15869141 C-18.46570353 27.39972107 -21.12510411 28.6340578 -23.78515625 29.8671875 C-24.60210464 30.25059296 -25.41905304 30.63399841 -26.26075745 31.02902222 C-27.04103806 31.38924469 -27.82131866 31.74946716 -28.62524414 32.12060547 C-29.30253067 32.43593231 -29.9798172 32.75125916 -30.67762756 33.07614136 C-33.7036908 34.27993392 -36.8685931 35.10531231 -40 36 C-36.04 45.405 -36.04 45.405 -32 55 C-28.50698003 54.30139601 -26.2543129 53.81966166 -23.17529297 52.41772461 C-22.46460663 52.09746811 -21.75392029 51.77721161 -21.021698 51.44725037 C-20.26945953 51.10243118 -19.51722107 50.757612 -18.7421875 50.40234375 C-17.95731964 50.04862198 -17.17245178 49.69490021 -16.36380005 49.33045959 C-13.01646373 47.82182472 -9.67461057 46.30121762 -6.33251953 44.78100586 C-3.88776979 43.67107145 -1.44010555 42.56776866 1.0078125 41.46484375 C1.76409943 41.11800034 2.52038635 40.77115692 3.29959106 40.4138031 C8.66135781 38 8.66135781 38 12 38 C13.03271642 40.09836004 14.05083717 42.20390891 15.0625 44.3125 C15.63097656 45.48425781 16.19945312 46.65601563 16.78515625 47.86328125 C18 51 18 51 17 54 C14.41337543 55.37709955 11.88939667 56.57253377 9.203125 57.72265625 C8.02444855 58.24187904 8.02444855 58.24187904 6.82196045 58.77159119 C4.30224092 59.87861719 1.77629449 60.97057405 -0.75 62.0625 C-2.43792079 62.80177436 -4.12542636 63.54199754 -5.8125 64.28320312 C-18.53875987 69.86009375 -18.53875987 69.86009375 -24 72 C-21.54234965 79.91909556 -18.33181427 87.41985296 -15 95 C-14.25363281 94.84660156 -13.50726563 94.69320312 -12.73828125 94.53515625 C-9.50613852 93.90348214 -6.26217958 93.44775014 -3 93 C-3 92.34 -3 91.68 -3 91 C0.66099727 89.36175959 4.32315561 87.72614432 7.98632812 86.09277344 C9.83262551 85.26890858 11.67804223 84.44307104 13.5234375 83.6171875 C20.29582018 80.59906044 27.08604576 77.67933197 34 75 C34.98753064 76.72440365 35.96468806 78.45475026 36.9375 80.1875 C37.48277344 81.15042969 38.02804687 82.11335938 38.58984375 83.10546875 C39.92193772 85.8397669 40.75433547 87.97362207 41 91 C38.86993369 93.13006631 37.65991185 93.61487943 34.875 94.625 C30.14437318 96.44762246 25.69036426 98.62572573 21.1875 100.9375 C15.20799916 103.99232911 9.19616214 106.59224305 2.890625 108.921875 C-2.9767111 111.11023279 -8.560396 113.76320366 -14.125 116.625 C-18.04243525 118.61432259 -21.73244703 119.9794982 -26 121 C-28.90667125 115.32364229 -31.52300699 109.59249048 -33.984375 103.7109375 C-34.35755356 102.82529617 -34.73073212 101.93965485 -35.11521912 101.0271759 C-36.32932463 98.14416689 -37.53968584 95.25960244 -38.75 92.375 C-39.5913048 90.37530257 -40.43286034 88.37571062 -41.2746582 86.3762207 C-42.99848995 82.28054319 -44.72083159 78.1842441 -46.44189453 74.08740234 C-48.89401265 68.25082433 -51.35054777 62.41611487 -53.80859375 56.58203125 C-57.54120825 47.72225641 -61.27150599 38.86150962 -65 30 C-62.51603727 27.12535473 -59.90986552 25.87286554 -56.453125 24.35546875 C-55.31206299 23.84975342 -54.17100098 23.34403809 -52.99536133 22.82299805 C-51.74695878 22.27771474 -50.49850367 21.73255174 -49.25 21.1875 C-47.30605868 20.33027102 -45.36314274 19.47074544 -43.42024231 18.61116028 C-42.06252483 18.01071333 -40.70443461 17.41110861 -39.34599304 16.81230164 C-34.29979663 14.585543 -29.27304671 12.31827774 -24.25390625 10.03125 C-23.54396515 9.70820389 -22.83402405 9.38515778 -22.10256958 9.05232239 C-19.31623645 7.7842413 -16.53002462 6.51593974 -13.74645996 5.24179077 C-11.81816084 4.3596549 -9.88783243 3.4821115 -7.95703125 2.60546875 C-6.85335205 2.10168701 -5.74967285 1.59790527 -4.61254883 1.07885742 C-2 0 -2 0 0 0 Z " fill="#F7F8FB" transform="translate(460,219)"/>
<path d="M0 0 C4.03874694 1.79907818 5.45195281 3.82438349 7.75 7.625 C8.36359375 8.62789063 8.9771875 9.63078125 9.609375 10.6640625 C10.06828125 11.43492187 10.5271875 12.20578125 11 13 C6.26253471 18.37399697 0.34338359 21.92976331 -5.625 25.8125 C-12.84864675 30.53634909 -19.94175894 35.33739384 -26.83349609 40.5378418 C-29 42 -29 42 -31 42 C-30.70230713 42.46897705 -30.40461426 42.9379541 -30.09790039 43.42114258 C-28.7494617 45.5495218 -27.40593774 47.68096099 -26.0625 49.8125 C-25.59392578 50.55048828 -25.12535156 51.28847656 -24.64257812 52.04882812 C-24.19462891 52.76103516 -23.74667969 53.47324219 -23.28515625 54.20703125 C-22.87144775 54.8616333 -22.45773926 55.51623535 -22.03149414 56.19067383 C-21 58 -21 58 -20 61 C-18.65035156 60.06994141 -18.65035156 60.06994141 -17.2734375 59.12109375 C-15.27123243 57.74146752 -13.26761477 56.36404156 -11.26074219 54.99121094 C-6.87715961 51.99091753 -2.51858089 48.95916918 1.8203125 45.89453125 C3.79677937 44.51288402 5.77334101 43.13137236 7.75 41.75 C9.17820068 40.72990845 9.17820068 40.72990845 10.63525391 39.68920898 C11.53421387 39.06473877 12.43317383 38.44026855 13.359375 37.796875 C14.15827148 37.23323242 14.95716797 36.66958984 15.78027344 36.08886719 C18 35 18 35 20.16992188 35.1730957 C23.08346311 36.48955303 24.11599037 38.75255683 25.75 41.4375 C26.36359375 42.42621094 26.9771875 43.41492188 27.609375 44.43359375 C29 47 29 47 29 49 C27.09448249 50.47259344 25.19614681 51.81453297 23.19140625 53.140625 C22.59126205 53.54528992 21.99111786 53.94995483 21.37278748 54.36688232 C19.44027658 55.66771753 17.501534 56.9589135 15.5625 58.25 C14.28929486 59.1048455 13.01650331 59.96030734 11.74414062 60.81640625 C8.16848069 63.21955038 4.58523742 65.61117685 1 68 C0.03690918 68.64259766 -0.92618164 69.28519531 -1.91845703 69.94726562 C-3.94502317 71.29910398 -5.97212676 72.65012359 -8 74 C-7.44090034 77.64110179 -6.53031893 80.14400253 -4.49609375 83.20703125 C-4.00302734 83.95791016 -3.50996094 84.70878906 -3.00195312 85.48242188 C-2.22754883 86.63581055 -2.22754883 86.63581055 -1.4375 87.8125 C-0.91736328 88.60076172 -0.39722656 89.38902344 0.13867188 90.20117188 C1.41876566 92.13892853 2.7059808 94.07152677 4 96 C10.54412167 92.97031404 16.15146513 89.19519698 22 85 C25.75935762 82.3998603 29.53647236 79.82585481 33.3125 77.25 C34.27478516 76.59128906 35.23707031 75.93257813 36.22851562 75.25390625 C37.15986328 74.61839844 38.09121094 73.98289062 39.05078125 73.328125 C39.88262939 72.7599707 40.71447754 72.19181641 41.5715332 71.60644531 C44.00156536 69.99896451 46.50161069 68.49903358 49 67 C51.97 71.29 54.94 75.58 58 80 C55.95734352 84.08531296 55.14993461 84.88898249 51.50390625 87.2578125 C50.0960083 88.18352051 50.0960083 88.18352051 48.65966797 89.12792969 C47.63760254 89.78696289 46.61553711 90.44599609 45.5625 91.125 C43.38908248 92.54911229 41.21591533 93.97360675 39.04296875 95.3984375 C37.88726266 96.15210353 36.73149995 96.90568277 35.57568359 97.65917969 C30.07385736 101.25288107 24.61490212 104.91108685 19.15158081 108.56292725 C16.31876195 110.45575535 13.48349528 112.34490198 10.6484375 114.234375 C9.22797119 115.18135254 9.22797119 115.18135254 7.77880859 116.14746094 C4.85253906 118.09830729 1.92626953 120.04915365 -1 122 C-4.46872519 120.58294138 -5.90932288 119.07932137 -7.85546875 115.90625 C-8.38648193 115.05426025 -8.91749512 114.20227051 -9.46459961 113.32446289 C-10.03315674 112.39239014 -10.60171387 111.46031738 -11.1875 110.5 C-12.44104092 108.48724183 -13.69632323 106.4755674 -14.953125 104.46484375 C-15.61248047 103.4063623 -16.27183594 102.34788086 -16.95117188 101.25732422 C-20.37577971 95.81272011 -23.90689905 90.43874304 -27.4375 85.0625 C-28.86852496 82.87892944 -30.29951454 80.69533568 -31.73046875 78.51171875 C-32.78886963 76.89789307 -32.78886963 76.89789307 -33.86865234 75.25146484 C-37.33511032 69.96323032 -40.79358234 64.66980061 -44.25 59.375 C-44.8577124 58.4456665 -45.4654248 57.51633301 -46.09155273 56.55883789 C-47.21581619 54.83648461 -48.33718466 53.11223671 -49.45507812 51.38574219 C-50.47280421 49.81412093 -51.49739467 48.24692034 -52.52929688 46.68457031 C-52.98884766 45.97655273 -53.44839844 45.26853516 -53.921875 44.5390625 C-54.3250293 43.92498535 -54.72818359 43.3109082 -55.14355469 42.67822266 C-56 41 -56 41 -56 38 C-54.11639359 36.51361671 -52.27935698 35.26464441 -50.25 34 C-48.88153345 33.11786647 -47.51447123 32.23355247 -46.1484375 31.34765625 C-45.35405273 30.83477051 -44.55966797 30.32188477 -43.74121094 29.79345703 C-38.68903017 26.48803132 -33.70418512 23.08222305 -28.71228027 19.68676758 C-26.92281137 18.47000957 -25.13200058 17.25525255 -23.34082031 16.04101562 C-15.52780521 10.74081073 -7.75333195 5.38715966 0 0 Z " fill="#F6F8FB" transform="translate(363,265)"/>
<path d="M0 0 C2.04055108 0.75287945 3.6689112 1.62249548 5.48388672 2.81567383 C6.10263672 3.21850586 6.72138672 3.62133789 7.35888672 4.03637695 C7.99310547 4.45725586 8.62732422 4.87813477 9.28076172 5.31176758 C10.25529297 5.94888672 10.25529297 5.94888672 11.24951172 6.59887695 C12.8465509 7.64399818 14.43910592 8.69596595 16.03076172 9.74926758 C13.7005672 20.87937317 11.3440123 32.00379608 8.96826172 43.12426758 C8.72317871 44.27507812 8.4780957 45.42588867 8.22558594 46.61157227 C6.77029414 53.41201944 5.24629332 60.19112078 3.63867188 66.95727539 C3.11624489 69.35666294 2.73560065 71.68618315 2.46826172 74.12426758 C2.03076172 77.74926758 2.03076172 77.74926758 1.09326172 80.98754883 C0.01115736 84.81867564 -0.73199666 88.64532217 -1.40673828 92.56176758 C-2.51775601 98.77366166 -3.94012631 104.76266772 -5.96923828 110.74926758 C-10.43106264 109.43852392 -13.96542585 107.67860747 -17.84423828 105.12426758 C-19.29443359 104.17680664 -19.29443359 104.17680664 -20.77392578 103.21020508 C-21.49837891 102.7280957 -22.22283203 102.24598633 -22.96923828 101.74926758 C-22.46547366 95.60333915 -21.35016669 90.04310366 -19.59033203 84.13208008 C-18.8431242 81.67583839 -18.8431242 81.67583839 -18.96923828 78.74926758 C-21.19440625 76.94127647 -21.19440625 76.94127647 -24.11376953 75.24536133 C-25.18304687 74.58729492 -26.25232422 73.92922852 -27.35400391 73.2512207 C-28.49640198 72.56277081 -29.63898212 71.87462293 -30.78173828 71.18676758 C-32.99660005 69.83132828 -35.21144458 68.4758608 -37.42626953 67.12036133 C-38.41602783 66.52151123 -39.40578613 65.92266113 -40.42553711 65.30566406 C-42.29826032 64.15981413 -44.14250141 62.96709216 -45.96923828 61.74926758 C-51.12732825 62.30816054 -54.49685416 66.57207542 -58.10400391 69.97583008 C-62.30216935 73.73801335 -62.30216935 73.73801335 -65.51611328 73.79223633 C-68.44564765 72.54671773 -71.08059029 71.12543707 -73.78173828 69.43676758 C-74.75755859 68.84250977 -75.73337891 68.24825195 -76.73876953 67.63598633 C-77.47482422 67.01336914 -78.21087891 66.39075195 -78.96923828 65.74926758 C-78.96923828 64.42926758 -78.96923828 63.10926758 -78.96923828 61.74926758 C-76.70706037 59.61192048 -74.49468299 57.7544823 -72.03173828 55.87426758 C-70.55320782 54.71105096 -69.07536527 53.54695952 -67.59814453 52.38208008 C-66.44789795 51.48344238 -66.44789795 51.48344238 -65.27441406 50.56665039 C-61.62278508 47.68773426 -58.04841145 44.71739276 -54.46923828 41.74926758 C-42.89286503 32.19809738 -31.28662798 22.6884153 -19.43798828 13.47583008 C-16.96797494 11.54984142 -14.53979916 9.58053343 -12.12548828 7.58520508 C-11.17633545 6.81104248 -11.17633545 6.81104248 -10.20800781 6.02124023 C-8.99228462 5.02846864 -7.78446078 4.0259206 -6.5859375 3.01245117 C-2.47780716 -0.31548574 -2.47780716 -0.31548574 0 0 Z " fill="#F6F8FB" transform="translate(911.96923828125,269.250732421875)"/>
<path d="M0 0 C5.22456268 3.56904282 9.44937571 8.09815365 12.1875 13.8125 C12.75 16.8125 12.75 16.8125 12.75 24.8125 C6.81 24.8125 0.87 24.8125 -5.25 24.8125 C-6.24 22.5025 -7.23 20.1925 -8.25 17.8125 C-11.71502175 13.67682888 -14.49529206 11.97424157 -19.89453125 11.4765625 C-21.28360088 11.44701136 -22.67311904 11.43462707 -24.0625 11.4375 C-24.77865479 11.43766113 -25.49480957 11.43782227 -26.23266602 11.43798828 C-31.76212541 11.55815267 -35.01915338 12.30399304 -39.25 15.8125 C-40.99101642 19.29453284 -40.81994483 23.0128678 -40.25 26.8125 C-35.79185715 32.45948095 -27.32892841 33.34649442 -20.64453125 34.86328125 C6.79200854 41.18482083 6.79200854 41.18482083 13.83203125 52.015625 C17.1729709 58.55533665 16.59658648 68.33959035 15.25390625 75.43359375 C12.52843477 83.33284161 7.46430781 87.31295943 0.640625 91.515625 C-7.16642005 95.01824521 -15.18045009 95.17730127 -23.625 95.1875 C-25.21441406 95.22423828 -25.21441406 95.22423828 -26.8359375 95.26171875 C-37.53605181 95.30105741 -47.49314829 92.50145804 -55.25 84.8125 C-61.01465455 77.66124703 -63.25 72.11852584 -63.25 62.8125 C-56.65 62.8125 -50.05 62.8125 -43.25 62.8125 C-42.26 65.7825 -41.27 68.7525 -40.25 71.8125 C-37.48869222 76.00968783 -33.57325153 77.02590648 -28.8984375 78.2734375 C-21.63065304 79.75272106 -14.95054526 79.12256936 -8.25 75.8125 C-5.5310278 73.55774257 -4.48932631 72.09887889 -3.84375 68.62890625 C-3.61090945 65.17911703 -3.61090945 65.17911703 -4.25 61.8125 C-8.0828409 57.78727712 -12.22619071 56.67177944 -17.4375 55.375 C-18.2205249 55.16673584 -19.0035498 54.95847168 -19.81030273 54.74389648 C-23.10118119 53.86972099 -26.39889715 53.02536045 -29.70214844 52.19921875 C-41.5920944 49.21831843 -51.9515823 46.42838029 -59.25 35.8125 C-62.09115842 28.68945389 -62.73677298 20.52868218 -60.41015625 13.1484375 C-55.88088996 4.27290558 -48.40649907 -1.03913844 -39.1484375 -4.30859375 C-26.33707113 -7.19692785 -11.58159847 -6.49271429 0 0 Z " fill="#F6F8FB" transform="translate(479.25,852.1875)"/>
<path d="M0 0 C22.44 0 44.88 0 68 0 C68 5.61 68 11.22 68 17 C51.83 17 35.66 17 19 17 C19 24.26 19 31.52 19 39 C34.18 39 49.36 39 65 39 C65 44.28 65 49.56 65 55 C49.82 55 34.64 55 19 55 C19 63.58 19 72.16 19 81 C35.83 81 52.66 81 70 81 C70 86.61 70 92.22 70 98 C46.9 98 23.8 98 0 98 C0 65.66 0 33.32 0 0 Z " fill="#F5F7FA" transform="translate(937,848)"/>
<path d="M0 0 C3.16023199 2.66870679 4.58016112 5.87622198 6.35546875 9.56640625 C6.66196854 10.20110336 6.96846832 10.83580048 7.28425598 11.48973083 C7.92843985 12.82723673 8.56954864 14.1662275 9.20776367 15.5065918 C10.187385 17.56225868 11.17785401 19.61242499 12.16992188 21.66210938 C17 31.71739267 17 31.71739267 17 34 C17.81597656 33.98839844 18.63195313 33.97679687 19.47265625 33.96484375 C31.33452407 33.8744922 43.15428265 34.41952434 55 35 C53.41636918 38.83605489 50.97385878 41.28445649 48.0625 44.203125 C47.58176025 44.6857782 47.10102051 45.1684314 46.60571289 45.66571045 C45.59278907 46.67999064 44.57735362 47.69176804 43.55957031 48.70117188 C41.99826835 50.25171972 40.44797503 51.81270503 38.8984375 53.375 C37.91209939 54.36001734 36.9251415 55.34441453 35.9375 56.328125 C35.03902344 57.2243457 34.14054687 58.12056641 33.21484375 59.04394531 C31 61 31 61 29 61 C29.30292969 62.15113281 29.60585937 63.30226563 29.91796875 64.48828125 C32.9453125 75.9921875 35.97265625 87.49609375 39 99 C34.95219228 97.73977386 31.29844455 96.2419098 27.55859375 94.25 C26.56279297 93.7240625 25.56699219 93.198125 24.54101562 92.65625 C23.51685547 92.1096875 22.49269531 91.563125 21.4375 91 C19.3957049 89.91445627 17.3527746 88.83104444 15.30859375 87.75 C14.40939209 87.27046875 13.51019043 86.7909375 12.58374023 86.296875 C8.88820133 84.40801603 8.88820133 84.40801603 5 83 C3.06870943 83.67677539 3.06870943 83.67677539 1.43359375 85.1484375 C0.78849854 85.65600586 0.14340332 86.16357422 -0.52124023 86.68652344 C-1.19485596 87.2437207 -1.86847168 87.80091797 -2.5625 88.375 C-3.97978335 89.49470778 -5.39907444 90.6118787 -6.8203125 91.7265625 C-7.52188477 92.2824707 -8.22345703 92.83837891 -8.94628906 93.41113281 C-21.340504 103 -21.340504 103 -24 103 C-24.20549273 95.9399928 -23.62446308 89.27707988 -22.5 82.3125 C-20.87274929 73.66975243 -20.87274929 73.66975243 -21 65 C-23.04722888 62.84698726 -24.72697105 61.405151 -27.125 59.75 C-28.40136116 58.80902697 -29.67739271 57.86760671 -30.953125 56.92578125 C-31.61634766 56.44834473 -32.27957031 55.9709082 -32.96289062 55.47900391 C-36.32416363 53.03861658 -39.599077 50.49063055 -42.875 47.9375 C-43.48746582 47.4724707 -44.09993164 47.00744141 -44.73095703 46.52832031 C-46.19143055 45.39906657 -47.60146887 44.20511725 -49 43 C-49 42.34 -49 41.68 -49 41 C-44.85651953 40.42431458 -40.71223985 39.85488364 -36.56713867 39.29101562 C-35.15968137 39.09868625 -33.75244868 38.9047052 -32.34545898 38.70898438 C-30.31291852 38.42654699 -28.2796211 38.15023089 -26.24609375 37.875 C-25.02591553 37.70742188 -23.8057373 37.53984375 -22.54858398 37.3671875 C-19.00459404 37.00047536 -15.56010125 36.93610587 -12 37 C-11.77570313 35.81535156 -11.55140625 34.63070312 -11.3203125 33.41015625 C-9.79609885 26.55119483 -7.28164941 20.02522127 -4.875 13.4375 C-4.40183891 12.12973984 -3.92917879 10.8217983 -3.45703125 9.51367188 C-2.3095861 6.34063479 -1.15712972 3.16951538 0 0 Z " fill="#F8FAFC" transform="translate(1084,550)"/>
<path d="M0 0 C0.66 0 1.32 0 2 0 C3.71298017 4.80408933 5.42187189 9.60960538 7.12695312 14.41650391 C7.70785534 16.05232195 8.28988247 17.68774096 8.87304688 19.32275391 C9.70997852 21.66986324 10.54288427 24.01836718 11.375 26.3671875 C11.63748535 27.10057343 11.8999707 27.83395935 12.17041016 28.58956909 C14 33.77225659 14 33.77225659 14 36 C15.92199219 36.18175781 15.92199219 36.18175781 17.8828125 36.3671875 C46.70632721 39.13755148 46.70632721 39.13755148 51 42 C43.94430843 48.16063758 36.88669817 54.31955046 29.6875 60.3125 C28.82511719 61.03050781 27.96273437 61.74851562 27.07421875 62.48828125 C25 64 25 64 23 64 C24.98 76.87 26.96 89.74 29 103 C25.37392285 101.54956914 23.10318154 100.55620083 20.07421875 98.390625 C19.35943359 97.88273438 18.64464844 97.37484375 17.90820312 96.8515625 C17.17537109 96.32304688 16.44253906 95.79453125 15.6875 95.25 C14.96626953 94.73695313 14.24503906 94.22390625 13.50195312 93.6953125 C7.57436685 89.46360068 7.57436685 89.46360068 4.81494141 87.23632812 C4.11933105 86.67880859 3.4237207 86.12128906 2.70703125 85.546875 C2.08932861 85.03479492 1.47162598 84.52271484 0.83520508 83.99511719 C-0.91921286 82.83374432 -0.91921286 82.83374432 -2.81518555 83.11376953 C-5.90940382 84.36888321 -8.77269609 85.97651471 -11.6640625 87.6328125 C-12.96344509 88.36345304 -14.26292721 89.09391658 -15.5625 89.82421875 C-17.60288054 90.97809933 -19.64174509 92.13453507 -21.67871094 93.29443359 C-23.64918856 94.41413075 -25.62495123 95.52398948 -27.6015625 96.6328125 C-28.21303131 96.9848172 -28.82450012 97.3368219 -29.45449829 97.69949341 C-30.93687341 98.52794527 -32.46548656 99.27265071 -34 100 C-34.66 99.67 -35.32 99.34 -36 99 C-35.06566381 95.37417718 -34.12693937 91.74950365 -33.1875 88.125 C-32.92646484 87.11179687 -32.66542969 86.09859375 -32.39648438 85.0546875 C-30.92350739 79.38099838 -29.35123406 73.79505148 -27.4465332 68.24951172 C-26.89229426 65.45740806 -27.11058769 63.70232971 -28 61 C-29.5097616 59.21803746 -29.5097616 59.21803746 -31.5 57.7421875 C-36.2849409 53.80101966 -40.63034407 49.51737511 -45 45.125 C-45.77472656 44.35414063 -46.54945313 43.58328125 -47.34765625 42.7890625 C-48.07855469 42.056875 -48.80945313 41.3246875 -49.5625 40.5703125 C-50.22378906 39.90789551 -50.88507813 39.24547852 -51.56640625 38.56298828 C-53 37 -53 37 -53 36 C-40.36944374 34.59381481 -27.68803757 34.90359761 -15 35 C-14.63261719 33.79472656 -14.26523438 32.58945312 -13.88671875 31.34765625 C-11.70969 24.81657001 -8.73632053 18.66051966 -5.8125 12.4375 C-5.24760008 11.22611971 -4.68314371 10.01453248 -4.11914062 8.80273438 C-2.75042601 5.86643209 -1.377291 2.93228668 0 0 Z " fill="#F9FAFC" transform="translate(182,545)"/>
<path d="M0 0 C6.27 0 12.54 0 19 0 C19.0093457 1.88638184 19.01869141 3.77276367 19.02832031 5.71630859 C19.06399187 11.98293142 19.11788046 18.2491959 19.18390274 24.51556969 C19.22323648 28.31101462 19.25549328 32.10623245 19.27099609 35.90185547 C19.28625676 39.572065 19.32086536 43.24164959 19.36830902 46.91157913 C19.38302677 48.30438395 19.39103544 49.69727805 19.39188385 51.09016037 C19.40384603 60.89109307 20.14285933 69.12782231 26.375 77 C32.29058424 81.5071118 38.78739599 81.82868216 46 81 C51.34338127 79.35519878 54.97527365 76.76976078 58 72 C59.93462954 67.99299757 60.26877001 64.71385394 60.31884766 60.28198242 C60.33391609 59.30065338 60.33391609 59.30065338 60.34928894 58.29949951 C60.3800145 56.15149765 60.39712596 54.00361981 60.4140625 51.85546875 C60.43278275 50.3604476 60.45235681 48.86543692 60.4727478 47.37043762 C60.52398463 43.44636214 60.56365535 39.52225244 60.60089111 35.59802246 C60.64098391 31.58935132 60.69205213 27.58082151 60.7421875 23.57226562 C60.83884676 15.71493336 60.92226825 7.85754233 61 0 C67.27 0 73.54 0 80 0 C80.09080253 8.91960235 80.16400285 17.8388917 80.20724869 26.75885391 C80.22801709 30.90191232 80.25613471 35.04463483 80.30175781 39.1875 C80.34560371 43.19461054 80.36921765 47.20140047 80.37950897 51.2087326 C80.38683157 52.72838123 80.40112844 54.24801471 80.42292023 55.76752472 C80.59430862 68.22737883 79.50113321 79.63698635 70.421875 89.0234375 C57.67217072 99.42884132 42.665089 99.2126462 27 98 C18.76145675 96.52896033 11.64567726 91.71441004 6.57421875 85.15625 C-0.12276669 75.19966987 -0.41643999 65.41136081 -0.29296875 53.80859375 C-0.28736369 52.25204378 -0.2830979 50.69548846 -0.28010559 49.13893127 C-0.26872828 45.07002793 -0.23932376 41.00145305 -0.20599365 36.93267822 C-0.17513806 32.76961712 -0.16156737 28.60650221 -0.14648438 24.44335938 C-0.114446 16.29540642 -0.06173761 8.14778209 0 0 Z " fill="#FAFBFC" transform="translate(741,849)"/>
<path d="M0 0 C0.50980881 1.70543184 1.00738268 3.41452318 1.5 5.125 C1.7784375 6.07632813 2.056875 7.02765625 2.34375 8.0078125 C3.02146084 11.09785121 3.11227205 13.84702648 3 17 C-0.53917574 17.84415762 -4.08169141 18.67337694 -7.625 19.5 C-8.62402344 19.73847656 -9.62304688 19.97695312 -10.65234375 20.22265625 C-15.51141554 21.34893117 -19.97324344 22.34312331 -25 22 C-24.71125 22.94875 -24.4225 23.8975 -24.125 24.875 C-23.05567736 28.61389036 -22.3029844 32.3790257 -21.56640625 36.1953125 C-20.93692381 39.31233591 -20.22487357 42.40380637 -19.5 45.5 C-18.62562017 49.24112761 -17.78754666 52.97719083 -17.0625 56.75 C-16.0220412 62.12864294 -14.72546179 67.44406335 -13.40844727 72.76074219 C-12.54567981 76.3250164 -11.85797293 79.81496401 -11.44140625 83.4609375 C-11.39114236 86.81357599 -11.39114236 86.81357599 -10 88 C-9.68076508 90.0572917 -9.48838648 92.11613521 -9.28125 94.1875 C-9.18001957 96.0167533 -9.18001957 96.0167533 -8 97 C-7.95907063 99.33297433 -7.95758277 101.66705225 -8 104 C-10.03959477 104.50838564 -12.08179138 105.00633886 -14.125 105.5 C-15.26195312 105.7784375 -16.39890625 106.056875 -17.5703125 106.34375 C-20.81466698 106.96453765 -23.70814457 107.12006768 -27 107 C-27.13575439 106.38592285 -27.27150879 105.7718457 -27.41137695 105.13916016 C-28.04126955 102.30024516 -28.67685575 99.46263249 -29.3125 96.625 C-29.52583984 95.65949219 -29.73917969 94.69398438 -29.95898438 93.69921875 C-30.9940589 89.09545446 -32.09825311 84.57919408 -33.54296875 80.0859375 C-35.0247065 75.30162243 -35.73073284 70.53788707 -36.43261719 65.58691406 C-37.50847258 58.78550809 -39.10643808 52.08888435 -40.625 45.375 C-41.11303863 43.21113703 -41.59976067 41.04701543 -42.08261108 38.88198853 C-42.51484002 36.94451515 -42.95185846 35.00811207 -43.38916016 33.07177734 C-44 30 -44 30 -44 27 C-44.62003906 27.18175781 -45.24007812 27.36351562 -45.87890625 27.55078125 C-65.07692308 33 -65.07692308 33 -74 33 C-74.50980881 31.29456816 -75.00738268 29.58547682 -75.5 27.875 C-75.7784375 26.92367187 -76.056875 25.97234375 -76.34375 24.9921875 C-77.02257018 21.89709074 -77.04603818 19.1574516 -77 16 C-76.24533447 15.83508057 -75.49066895 15.67016113 -74.71313477 15.50024414 C-72.37545945 14.98930832 -70.03781658 14.47822405 -67.70019531 13.96704102 C-64.9067169 13.35620297 -62.11307313 12.74612792 -59.31933594 12.13647461 C-51.78135221 10.49037924 -44.24554277 8.83515837 -36.713974 7.15992737 C-32.97814239 6.3292161 -29.24163479 5.50156745 -25.50509644 4.67404175 C-23.67039027 4.26679669 -21.83601735 3.8580473 -20.00198364 3.44778442 C-17.41360831 2.86894052 -14.82413234 2.29528032 -12.234375 1.72265625 C-11.07230782 1.4606543 -11.07230782 1.4606543 -9.88676453 1.19335938 C-6.47727506 0.4442511 -3.51124668 0 0 0 Z " fill="#F7F8FB" transform="translate(562,194)"/>
<path d="M0 0 C25.74 0 51.48 0 78 0 C78 5.28 78 10.56 78 16 C68.43 16 58.86 16 49 16 C49 42.73 49 69.46 49 97 C42.4 97 35.8 97 29 97 C29 70.27 29 43.54 29 16 C19.43 16 9.86 16 0 16 C0 10.72 0 5.44 0 0 Z " fill="#F7F8FB" transform="translate(508,849)"/>
<path d="M0 0 C25.41 0 50.82 0 77 0 C77 5.28 77 10.56 77 16 C67.76 16 58.52 16 49 16 C49 42.73 49 69.46 49 97 C42.4 97 35.8 97 29 97 C29 70.27 29 43.54 29 16 C19.43 16 9.86 16 0 16 C0 10.72 0 5.44 0 0 Z " fill="#F7F9FB" transform="translate(840,849)"/>
<path d="M0 0 C6.93 0 13.86 0 21 0 C21 44.55 21 89.1 21 135 C14.07 135 7.14 135 0 135 C0 90.45 0 45.9 0 0 Z " fill="#FCFCFD" transform="translate(614,621)"/>
<path d="M0 0 C25.41 0 50.82 0 77 0 C77 5.28 77 10.56 77 16 C67.43 16 57.86 16 48 16 C48 42.73 48 69.46 48 97 C41.73 97 35.46 97 29 97 C29 70.27 29 43.54 29 16 C19.43 16 9.86 16 0 16 C0 10.72 0 5.44 0 0 Z " fill="#FBFBFD" transform="translate(645,849)"/>
<path d="M0 0 C4.48296703 0.68147667 8.2059256 1.75590109 12.375 3.5625 C13.43460938 4.01753906 14.49421875 4.47257813 15.5859375 4.94140625 C16.38257813 5.29074219 17.17921875 5.64007813 18 6 C17.31020605 10.17416295 16.00083878 13.89255214 14.48046875 17.8359375 C14.09864441 18.83181381 14.09864441 18.83181381 13.70910645 19.84780884 C12.87296909 22.025263 12.03081863 24.20031778 11.1875 26.375 C10.30150557 28.66469228 9.41588632 30.95452921 8.5304718 33.2444458 C7.92365932 34.81362375 7.316303 36.3825915 6.7084198 37.95135498 C4.94858338 42.50349257 3.22397376 47.06655971 1.53886414 51.6468811 C0.51064839 54.43902811 -0.53129965 57.2259551 -1.57455444 60.01251221 C-2.05928127 61.31801319 -2.53770151 62.62587651 -3.00918579 63.93621826 C-6.67919535 74.11968306 -11.12726521 83.36156189 -20.6875 89.125 C-29.126374 92.73797358 -37.38320579 91.87783883 -45.875 88.875 C-55.06908314 84.88093982 -59.66854882 80.39542737 -63.89453125 71.20703125 C-67.27586439 61.3975807 -64.40483441 52.42409524 -61 43 C-59.10307857 43.45380895 -57.20750405 43.91324992 -55.3125 44.375 C-53.72888672 44.75785156 -53.72888672 44.75785156 -52.11328125 45.1484375 C-49.29593234 45.91905489 -46.68331675 46.85498543 -44 48 C-44.45822468 51.46941546 -44.89131683 54.67395049 -46 58 C-46.53756448 63.69818352 -45.60129241 66.55134467 -42 71 C-39.58006642 72.20996679 -37.8253367 72.27083271 -35.125 72.375 C-33.82949219 72.44847656 -33.82949219 72.44847656 -32.5078125 72.5234375 C-28.79634326 71.74876947 -28.1185272 70.15366932 -26 67 C-24.38110479 63.4584643 -23.04243507 59.82542338 -21.69921875 56.171875 C-21.2997554 55.10946594 -20.90029205 54.04705688 -20.48872375 52.95245361 C-19.21291335 49.5548314 -17.94965058 46.15271746 -16.6875 42.75 C-15.02878024 38.30577388 -13.36492627 33.8634863 -11.69921875 29.421875 C-11.29871307 28.35167114 -10.8982074 27.28146729 -10.48556519 26.17883301 C-7.17580516 17.37304479 -3.66615928 8.66287053 0 0 Z " fill="#F6F8FB" transform="translate(843,232)"/>
<path d="M0 0 C3.27259329 1.49871893 5.48945545 3.993268 7.93359375 6.5625 C8.44019531 7.08263672 8.94679688 7.60277344 9.46875 8.13867188 C10.7139378 9.41910084 11.94970877 10.70867554 13.18359375 12 C7.98779433 18.2464508 2.34128311 23.90622511 -3.45117188 29.59570312 C-6.79421954 32.90270715 -10.05574404 36.21533103 -13.109375 39.79296875 C-17.98233929 45.45889786 -23.37635647 50.62914802 -28.69140625 55.875 C-30.7750088 57.93201953 -32.85526648 59.99233984 -34.93359375 62.0546875 C-36.30427002 63.40796143 -36.30427002 63.40796143 -37.70263672 64.78857422 C-39.84589791 66.81337261 -39.84589791 66.81337261 -40.81640625 69 C-40.2862793 69.20415527 -39.75615234 69.40831055 -39.20996094 69.61865234 C-35.80453068 71.58396491 -33.25335708 74.31822309 -30.51953125 77.1015625 C-29.92589783 77.69802582 -29.3322644 78.29448914 -28.72064209 78.9090271 C-26.83113998 80.8096981 -24.94872233 82.71721474 -23.06640625 84.625 C-21.7843156 85.91712468 -20.50176864 87.20879676 -19.21875 88.5 C-16.07932193 91.66144479 -12.94622824 94.8290461 -9.81640625 98 C-11.56500779 101.78596297 -13.7881155 104.11591357 -16.81640625 107 C-17.96109375 108.1446875 -17.96109375 108.1446875 -19.12890625 109.3125 C-19.68578125 109.869375 -20.24265625 110.42625 -20.81640625 111 C-24.21993647 109.52877384 -26.42896374 107.63057487 -29.03417969 105.00927734 C-29.85472839 104.18857758 -30.6752771 103.36787781 -31.52069092 102.52230835 C-32.39687073 101.63580597 -33.27305054 100.74930359 -34.17578125 99.8359375 C-35.0801593 98.92872955 -35.98453735 98.02152161 -36.9163208 97.08682251 C-39.31437083 94.68115581 -41.70635243 92.26954264 -44.09710693 89.85662842 C-46.54025796 87.39297656 -48.98911831 84.93501423 -51.4375 82.4765625 C-56.23574413 77.65626427 -61.02823357 72.83030157 -65.81640625 68 C-64.37949835 64.99922964 -62.98056644 62.93368254 -60.5859375 60.609375 C-59.94720703 59.98160156 -59.30847656 59.35382813 -58.65039062 58.70703125 C-57.98330078 58.06121094 -57.31621094 57.41539062 -56.62890625 56.75 C-52.83788496 53.06082704 -49.09894604 49.39297898 -45.671875 45.359375 C-39.69884133 38.42164195 -33.00090615 32.13173803 -26.49560547 25.69970703 C-20.04134387 19.31167874 -13.67308474 12.95003664 -7.81640625 6 C-2.61088681 0 -2.61088681 0 0 0 Z " fill="#F7F9FB" transform="translate(978.81640625,320)"/>
<path d="M0 0 C6.6 0 13.2 0 20 0 C20 32.34 20 64.68 20 98 C13.4 98 6.8 98 0 98 C0 65.66 0 33.32 0 0 Z " fill="#F4F6FA" transform="translate(605,848)"/>
<path d="M0 0 C6.27 0 12.54 0 19 0 C19 31.68 19 63.36 19 96 C12.73 96 6.46 96 0 96 C0 64.32 0 32.64 0 0 Z " fill="#FAFBFC" transform="translate(266,849)"/>
<path d="M0 0 C4.03527446 1.5548764 6.07508555 4.17821081 8.75 7.5 C9.54921875 8.4796875 10.3484375 9.459375 11.171875 10.46875 C13 13 13 13 13 15 C10.97269915 16.72335769 8.93463581 18.33807275 6.8125 19.9375 C1.88195791 23.72732394 -2.96097098 27.58319521 -7.6875 31.625 C-13.39571827 36.49568281 -19.17595775 41.26796567 -25 46 C-26.25015432 47.02064434 -27.50014375 48.04149067 -28.75 49.0625 C-35.38492503 54.4770051 -42.03929294 59.86709092 -48.75 65.1875 C-49.60815308 65.87368408 -49.60815308 65.87368408 -50.48364258 66.57373047 C-53.20508627 68.71933482 -55.81253204 70.61515348 -59 72 C-60.65132849 70.06695667 -62.29611041 68.12895263 -63.9375 66.1875 C-64.64036133 65.36668945 -64.64036133 65.36668945 -65.35742188 64.52929688 C-67.46469483 62.02785775 -68.95567636 60.13297093 -70 57 C-63.17860026 50.70193516 -55.97711912 44.98242077 -48.65429688 39.29003906 C-42.06038518 34.14803355 -35.58707285 28.8558732 -29.12109375 23.5546875 C-19.46345669 15.64233021 -9.76978011 7.773551 0 0 Z " fill="#F8F9FC" transform="translate(1034,382)"/>
<path d="M0 0 C0.66 0 1.32 0 2 0 C3.17495143 2.93425371 4.33850852 5.87289513 5.5 8.8125 C5.83386719 9.64587891 6.16773438 10.47925781 6.51171875 11.33789062 C6.98544922 12.54155273 6.98544922 12.54155273 7.46875 13.76953125 C7.76201172 14.50792236 8.05527344 15.24631348 8.35742188 16.00708008 C9 18 9 18 9 21 C10.10794922 21.09087891 10.10794922 21.09087891 11.23828125 21.18359375 C18.16211625 21.75544797 25.0821399 22.35996176 32 23 C30.49483965 26.7798128 28.31698386 28.60457771 25.125 31.0625 C24.26132813 31.73410156 23.39765625 32.40570313 22.5078125 33.09765625 C20 35 20 35 17.671875 36.45703125 C15.77546658 37.86931648 15.77546658 37.86931648 15.7578125 40.1640625 C15.87898438 40.97617187 16.00015625 41.78828125 16.125 42.625 C16.25003906 43.50671875 16.37507813 44.3884375 16.50390625 45.296875 C17.10202915 48.55593835 17.78563614 51.77966999 18.59765625 54.9921875 C19 57 19 57 19 61 C14.8320685 59.53122709 11.50426574 57.44342158 7.875 54.9375 C3.66681321 52.00985657 3.66681321 52.00985657 -1 50 C-2.95444983 50.78627518 -2.95444983 50.78627518 -4.94140625 52.08984375 C-5.68970703 52.54423828 -6.43800781 52.99863281 -7.20898438 53.46679688 C-7.98564453 53.95212891 -8.76230469 54.43746094 -9.5625 54.9375 C-11.10316815 55.88785434 -12.64603609 56.83465462 -14.19140625 57.77734375 C-14.87404541 58.20265381 -15.55668457 58.62796387 -16.26000977 59.06616211 C-18 60 -18 60 -20 60 C-19.49020579 54.49422254 -18.39038417 49.63467848 -16.62109375 44.39453125 C-15.93044914 41.73185738 -15.73972167 39.74269267 -16 37 C-17.34370848 35.07755942 -17.34370848 35.07755942 -19.28125 33.484375 C-19.95800781 32.87335938 -20.63476562 32.26234375 -21.33203125 31.6328125 C-22.04746094 31.01148438 -22.76289063 30.39015625 -23.5 29.75 C-24.90799908 28.49675397 -26.31434727 27.24164983 -27.71875 25.984375 C-28.34716797 25.43491211 -28.97558594 24.88544922 -29.62304688 24.31933594 C-30.07744141 23.88395508 -30.53183594 23.44857422 -31 23 C-31 22.67 -31 22.34 -31 22 C-23.307359 21.15199233 -15.73708326 20.87847513 -8 21 C-7.90847656 20.34644531 -7.81695312 19.69289063 -7.72265625 19.01953125 C-6.76308939 15.01009781 -5.12924389 11.43613647 -3.4375 7.6875 C-3.10814453 6.94693359 -2.77878906 6.20636719 -2.43945312 5.44335938 C-1.63082877 3.62688438 -0.81602884 1.81316069 0 0 Z " fill="#F6F8FB" transform="translate(202,474)"/>
<path d="M0 0 C2.96430761 3.55716913 4.7721925 7.45050932 6.6875 11.625 C7.00783203 12.305625 7.32816406 12.98625 7.65820312 13.6875 C10 18.74058835 10 18.74058835 10 21 C17.26 21 24.52 21 32 21 C29.99008639 25.01982722 27.6444163 27.65433434 24.5 30.75 C24.00113281 31.25660156 23.50226563 31.76320313 22.98828125 32.28515625 C19.25341139 36 19.25341139 36 17 36 C18.58489845 44.01958614 20.18210389 52.02922474 22 60 C16.89329489 58.12848192 12.47483868 55.36998412 7.83984375 52.55859375 C5.35879561 51.19691809 3.76399141 50.34635827 1 50 C-0.96977711 50.86086309 -0.96977711 50.86086309 -2.8203125 52.30859375 C-3.52027344 52.80810547 -4.22023438 53.30761719 -4.94140625 53.82226562 C-5.66199219 54.35529297 -6.38257813 54.88832031 -7.125 55.4375 C-8.56228422 56.48175694 -10.00226279 57.52231868 -11.4453125 58.55859375 C-12.07969238 59.02579834 -12.71407227 59.49300293 -13.36767578 59.97436523 C-15 61 -15 61 -17 61 C-16.33742578 53.27577951 -15.23535374 45.65199697 -14 38 C-14.98742188 37.24074219 -15.97484375 36.48148438 -16.9921875 35.69921875 C-18.28664112 34.69554819 -19.58090193 33.69162894 -20.875 32.6875 C-21.52597656 32.18798828 -22.17695312 31.68847656 -22.84765625 31.17382812 C-23.47285156 30.68720703 -24.09804687 30.20058594 -24.7421875 29.69921875 C-25.3182373 29.25408936 -25.89428711 28.80895996 -26.48779297 28.3503418 C-28 27 -28 27 -30 24 C-27.45953542 23.49311395 -24.91791124 22.99433126 -22.375 22.5 C-21.66214844 22.35691406 -20.94929688 22.21382813 -20.21484375 22.06640625 C-16.07855065 21.26950574 -12.23566321 20.83965944 -8 21 C-7.76216797 20.10861328 -7.76216797 20.10861328 -7.51953125 19.19921875 C-5.62671778 12.47502505 -3.02522772 6.28960388 0 0 Z " fill="#F4F6FA" transform="translate(1065,479)"/>
<path d="M0 0 C3.35831924 1.67915962 3.84588557 5.52348821 5.0390625 8.90234375 C5.32478119 9.69524307 5.61049988 10.4881424 5.90487671 11.30506897 C6.50836069 12.98430047 7.10833177 14.66479791 7.70507812 16.34643555 C8.62090177 18.92595687 9.54776571 21.501297 10.4765625 24.07617188 C11.06055103 25.70549448 11.64390575 27.33504442 12.2265625 28.96484375 C12.50464752 29.73884018 12.78273254 30.51283661 13.06924438 31.31028748 C15 36.76727868 15 36.76727868 15 39 C6.42 39 -2.16 39 -11 39 C-9.874308 29.99446402 -9.874308 29.99446402 -8.4765625 25.46875 C-8.1775 24.49292969 -7.8784375 23.51710937 -7.5703125 22.51171875 C-7.25835938 21.51785156 -6.94640625 20.52398437 -6.625 19.5 C-6.32078125 18.50613281 -6.0165625 17.51226562 -5.703125 16.48828125 C-3.97999837 10.91389297 -2.11096415 5.43929414 0 0 Z " fill="#0A469C" transform="translate(620,213)"/>
<path d="M0 0 C-2.97311229 12.67309877 -5.97949491 25.33811725 -9 38 C-13.67404894 37.02634806 -17.22916992 34.67032705 -21.25 32.1875 C-22.36761719 31.52911133 -22.36761719 31.52911133 -23.5078125 30.85742188 C-24.21164062 30.42365234 -24.91546875 29.98988281 -25.640625 29.54296875 C-26.28547852 29.15133545 -26.93033203 28.75970215 -27.59472656 28.35620117 C-28.0584668 27.90865479 -28.52220703 27.4611084 -29 27 C-29 23 -29 23 -26.6484375 20.625 C-25.56683121 19.73823506 -24.47487733 18.86399889 -23.375 18 C-22.1879947 17.03614971 -21.00182726 16.07126686 -19.81640625 15.10546875 C-19.1939502 14.60321777 -18.57149414 14.1009668 -17.93017578 13.58349609 C-15.95183396 11.96048508 -14.01703656 10.29662321 -12.08984375 8.61328125 C-11.45836426 8.06220703 -10.82688477 7.51113281 -10.17626953 6.94335938 C-8.94712005 5.86781333 -7.72017674 4.7897401 -6.49560547 3.70898438 C-2.22140734 0 -2.22140734 0 0 0 Z " fill="#08449B" transform="translate(908,293)"/>
<path d="M0 0 C0.66 0 1.32 0 2 0 C2 47.85 2 95.7 2 145 C1.67 145 1.34 145 1 145 C0.67 123.88 0.34 102.76 0 81 C-0.33 84.96 -0.66 88.92 -1 93 C-1.99 93.495 -1.99 93.495 -3 94 C-3 67.93 -3 41.86 -3 15 C-2.34 15 -1.68 15 -1 15 C0.00109515 11.68929162 0.10356134 8.69915231 0.0625 5.25 C0.04896484 3.77273438 0.04896484 3.77273438 0.03515625 2.265625 C0.02355469 1.51796875 0.01195312 0.7703125 0 0 Z " fill="#E4EAF3" transform="translate(604,620)"/>
<path d="M0 0 C11.22 0 22.44 0 34 0 C34 2.64 34 5.28 34 8 C22.78 8 11.56 8 0 8 C0 5.36 0 2.72 0 0 Z " fill="#EBF0F7" transform="translate(609,595)"/>
<path d="M0 0 C0.33 0 0.66 0 1 0 C1 10.23 1 20.46 1 31 C-27.71 31 -56.42 31 -86 31 C-86 30.34 -86 29.68 -86 29 C-57.95 28.67 -29.9 28.34 -1 28 C-0.67 18.76 -0.34 9.52 0 0 Z " fill="#063A91" transform="translate(1075,953)"/>
<path d="M0 0 C0.33 0 0.66 0 1 0 C1.26381982 8.06813591 1.52478334 16.13635743 1.78230286 24.20469666 C1.90202137 27.95291595 2.02264917 31.70110096 2.14550781 35.44921875 C2.26449019 39.0801806 2.38088474 42.71121774 2.49563599 46.34231567 C2.56039098 48.37141394 2.62768692 50.40043062 2.69506836 52.42944336 C2.9826559 61.62356486 3.04790612 70.80278567 3 80 C2.67 80 2.34 80 2 80 C1.505 77.525 1.505 77.525 1 75 C0.01 76.32 -0.98 77.64 -2 79 C-2.15397876 61.49667788 -1.67383571 44.0517023 -1 26.5625 C-0.90325644 23.96941554 -0.80690016 21.3763166 -0.7109375 18.78320312 C-0.47840492 12.52196213 -0.24116043 6.26091432 0 0 Z " fill="#F3F4E6" transform="translate(629,378)"/>
<path d="M0 0 C1.19786133 0.03029297 2.39572266 0.06058594 3.62988281 0.09179688 C8.1775114 0.20612884 12.72521677 0.31712969 17.27294922 0.42724609 C19.22186402 0.47487416 21.17075847 0.52334406 23.11962891 0.57275391 C25.9599093 0.64460406 28.80024088 0.71363052 31.640625 0.78125 C33.04918762 0.81569214 33.04918762 0.81569214 34.48620605 0.85083008 C39.25284059 0.9568144 44.01156017 1.00788237 48.77929688 0.9609375 C49.69757263 0.95284058 50.61584839 0.94474365 51.56195068 0.93640137 C53.30219204 0.91676726 55.0423635 0.88832696 56.7822876 0.84973145 C62.67133424 0.78088949 62.67133424 0.78088949 66 3 C43.56 3 21.12 3 -2 3 C-1.34 2.67 -0.68 2.34 0 2 C0 1.34 0 0.68 0 0 Z " fill="#073991" transform="translate(191,981)"/>
<path d="M0 0 C4.29 0 8.58 0 13 0 C12.01 4.29 11.02 8.58 10 13 C8.35 13 6.7 13 5 13 C3.35 8.71 1.7 4.42 0 0 Z " fill="#F0F3F8" transform="translate(621,767)"/>
<path d="M0 0 C0.33 0.99 0.66 1.98 1 3 C-1.6116801 5.61644594 -4.22786631 8.22771308 -6.859375 10.82421875 C-7.82292902 11.77863337 -8.78647062 12.73306052 -9.75 13.6875 C-10.24371094 14.17283203 -10.73742187 14.65816406 -11.24609375 15.15820312 C-13.96615276 17.81840217 -13.96615276 17.81840217 -16 21 C-16.66 21 -17.32 21 -18 21 C-18 21.66 -18 22.32 -18 23 C-20 24.625 -20 24.625 -22 26 C-22 22 -22 22 -19.98046875 19.52636719 C-19.05878906 18.62563477 -18.13710938 17.72490234 -17.1875 16.796875 C-16.69918701 16.3142218 -16.21087402 15.8315686 -15.70776367 15.33428955 C-14.14765071 13.7965476 -12.5742047 12.27329997 -11 10.75 C-9.93919509 9.70925913 -8.87928766 8.66760263 -7.8203125 7.625 C-5.22386735 5.07263095 -2.61528216 2.53308035 0 0 Z " fill="#DFE8F3" transform="translate(954,344)"/>
<path d="M0 0 C6.0179229 0.50149357 12.05957472 0.33110208 18.09375 0.2578125 C18.09375 0.9178125 18.09375 1.5778125 18.09375 2.2578125 C6.21375 2.2578125 -5.66625 2.2578125 -17.90625 2.2578125 C-17.90625 1.5978125 -17.90625 0.9378125 -17.90625 0.2578125 C-11.76112542 -0.60863674 -6.15965014 -0.69030562 0 0 Z " fill="#073992" transform="translate(508.90625,981.7421875)"/>
<path d="M0 0 C0.99 0 1.98 0 3 0 C3.33 1.65 3.66 3.3 4 5 C-4.58 5 -13.16 5 -22 5 C-18.70402845 3.35201423 -17.33831877 2.73593023 -13.92578125 2.40234375 C-12.80139648 2.28342773 -12.80139648 2.28342773 -11.65429688 2.16210938 C-10.88150391 2.08798828 -10.10871094 2.01386719 -9.3125 1.9375 C-4.24946528 1.87223818 -4.24946528 1.87223818 0 0 Z " fill="#1D509E" transform="translate(631,247)"/>
<path d="M0 0 C2.31 0.33 4.62 0.66 7 1 C6.02933594 1.99773437 6.02933594 1.99773437 5.0390625 3.015625 C2.5712743 6.62748358 2.40758449 9.52216273 2.375 13.75 C2.329034 16.19079482 2.20801828 18.56321439 2 21 C1.34 21.33 0.68 21.66 0 22 C0 14.74 0 7.48 0 0 Z " fill="#104697" transform="translate(491,486)"/>
<path d="M0 0 C0.99 0.33 1.98 0.66 3 1 C1.86528532 4.40414403 0.82774013 5.24276648 -1.875 7.5 C-4.84140267 9.98824839 -4.84140267 9.98824839 -7.58984375 12.70703125 C-9 14 -9 14 -11.6875 14.1875 C-12.450625 14.125625 -13.21375 14.06375 -14 14 C-9.33333333 9.33333333 -4.66666667 4.66666667 0 0 Z " fill="#154CA2" transform="translate(308,384)"/>
<path d="M0 0 C0.99 0.33 1.98 0.66 3 1 C1.7625 1.928125 1.7625 1.928125 0.5 2.875 C-0.7375 3.926875 -0.7375 3.926875 -2 5 C-2 5.66 -2 6.32 -2 7 C-1.01 7.33 -0.02 7.66 1 8 C2.640625 10.14453125 2.640625 10.14453125 4.25 12.8125 C4.79140625 13.68519531 5.3328125 14.55789063 5.890625 15.45703125 C7.14783784 18.33888181 6.89303047 19.11220293 6 22 C4.29197433 19.42970046 2.61241665 16.84197275 0.9375 14.25 C0.45216797 13.52039063 -0.03316406 12.79078125 -0.53320312 12.0390625 C-0.98759766 11.33007812 -1.44199219 10.62109375 -1.91015625 9.890625 C-2.54642944 8.91657715 -2.54642944 8.91657715 -3.19555664 7.92285156 C-4 6 -4 6 -3.81811523 3.88183594 C-3 2 -3 2 0 0 Z " fill="#10459D" transform="translate(358,336)"/>
<path d="M0 0 C0.33 0.33 0.66 0.66 1 1 C2.84891946 1.23363881 4.70488031 1.41303635 6.5625 1.5625 C7.57441406 1.64628906 8.58632813 1.73007812 9.62890625 1.81640625 C10.80259766 1.90728516 10.80259766 1.90728516 12 2 C12 2.33 12 2.66 12 3 C4.98194143 4.10087193 -1.90565767 4.09733092 -9 4 C-9.33 3.34 -9.66 2.68 -10 2 C-6.34346173 -0.43769218 -4.30999899 -0.23944439 0 0 Z " fill="#0A3B8F" transform="translate(778,691)"/>
<path d="M0 0 C0.598125 0.309375 1.19625 0.61875 1.8125 0.9375 C4.08956772 2.10209704 4.08956772 2.10209704 7 3 C7 6.96 7 10.92 7 15 C6.34 15 5.68 15 5 15 C4.16475914 12.68817262 3.33172414 10.37559226 2.5 8.0625 C2.26152344 7.40314453 2.02304687 6.74378906 1.77734375 6.06445312 C0 1.11328125 0 1.11328125 0 0 Z " fill="#164C9E" transform="translate(739,253)"/>
<path d="M0 0 C1.65 0 3.3 0 5 0 C5.33 0.66 5.66 1.32 6 2 C6.99 2.66 7.98 3.32 9 4 C-11.86418401 4.42387733 -11.86418401 4.42387733 -17 1 C-11.39 1.33 -5.78 1.66 0 2 C0 1.34 0 0.68 0 0 Z " fill="#053890" transform="translate(481,691)"/>
<path d="M0 0 C0.66 0.33 1.32 0.66 2 1 C-1.5989514 4.81706966 -5.38491627 8.42998892 -10 11 C-10.99 11 -11.98 11 -13 11 C-11.6390377 6.91711311 -9.52046678 6.11314183 -5.9375 3.8125 C-4.83277344 3.09707031 -3.72804688 2.38164063 -2.58984375 1.64453125 C-1.73519531 1.10183594 -0.88054688 0.55914063 0 0 Z " fill="#144599" transform="translate(689,706)"/>
<path d="M0 0 C0 0.33 0 0.66 0 1 C-1.13179687 1.20496094 -2.26359375 1.40992188 -3.4296875 1.62109375 C-4.91148761 1.89306972 -6.39325685 2.16521387 -7.875 2.4375 C-8.62136719 2.57220703 -9.36773438 2.70691406 -10.13671875 2.84570312 C-14.18533378 3.54536611 -14.18533378 3.54536611 -18 5 C-19.67654729 4.72057545 -21.34608154 4.39171753 -23 4 C-23 4.66 -23 5.32 -23 6 C-25.31 5.67 -27.62 5.34 -30 5 C-30 4.67 -30 4.34 -30 4 C-26.31425142 3.32340219 -22.62616051 2.66052239 -18.9375 2 C-17.89916016 1.80921875 -16.86082031 1.6184375 -15.79101562 1.421875 C-10.44515523 0.47149982 -5.43040936 -0.24648667 0 0 Z " fill="#4974B9" transform="translate(781,677)"/>
<path d="M0 0 C-6.38297872 4.25531915 -6.38297872 4.25531915 -10 5 C-11.2375 5.3403125 -11.2375 5.3403125 -12.5 5.6875 C-15.43201592 6.05400199 -16.47468266 5.39641488 -19 4 C-16.58732675 3.132758 -14.17095531 2.28103064 -11.75 1.4375 C-11.06808594 1.19064453 -10.38617187 0.94378906 -9.68359375 0.68945312 C-3.41657839 -1.47053761 -3.41657839 -1.47053761 0 0 Z " fill="#2D5FAC" transform="translate(767,487)"/>
<path d="M0 0 C6 8 6 8 6 11 C4.68 10.67 3.36 10.34 2 10 C1.67 11.65 1.34 13.3 1 15 C0.67 15 0.34 15 0 15 C0 10.05 0 5.1 0 0 Z " fill="#1950A6" transform="translate(333,879)"/>
<path d="M0 0 C0.66 0.33 1.32 0.66 2 1 C0.73046875 2.46484375 -0.5390625 3.9296875 -1.80859375 5.39453125 C-3.20871231 7.10712971 -3.20871231 7.10712971 -4 10 C-4.66 10 -5.32 10 -6 10 C-6.33 10.99 -6.66 11.98 -7 13 C-8 12 -8 12 -8.3125 9.67578125 C-7.90175262 6.15875678 -6.72598449 5.35976889 -4 3.1875 C-3.2575 2.58292969 -2.515 1.97835938 -1.75 1.35546875 C-1.1725 0.90816406 -0.595 0.46085937 0 0 Z " fill="#1E4FA0" transform="translate(225,505)"/>
<path d="M0 0 C0 0.33 0 0.66 0 1 C-9.58789448 3.19722582 -18.31265619 2.90972518 -28 2 C-28 1.67 -28 1.34 -28 1 C-18.65190221 0.33566818 -9.37877608 -0.1598655 0 0 Z " fill="#345EAA" transform="translate(631,268)"/>
<path d="M0 0 C0.33 0 0.66 0 1 0 C1.19384179 2.81219705 1.38036603 5.62454196 1.5625 8.4375 C1.61857422 9.23994141 1.67464844 10.04238281 1.73242188 10.86914062 C1.8616295 12.91062111 1.9351273 14.95546369 2 17 C1.67 17.33 1.34 17.66 1 18 C0.76572222 20.01594582 0.58663876 22.038474 0.4375 24.0625 C0.35371094 25.16722656 0.26992187 26.27195312 0.18359375 27.41015625 C0.12300781 28.26480469 0.06242187 29.11945312 0 30 C-0.33 30 -0.66 30 -1 30 C-1.10849626 19.93395765 -0.9767249 10.02887177 0 0 Z " fill="#6081BC" transform="translate(89,672)"/>
<path d="M0 0 C0.66 0.66 1.32 1.32 2 2 C1.525625 2.556875 1.05125 3.11375 0.5625 3.6875 C-1.12395996 6.18346074 -1.58953107 8.0446237 -2 11 C-2.99 11.33 -3.98 11.66 -5 12 C-5.44041451 6.71502591 -5.44041451 6.71502591 -5 4 C-2.5 1.5 -2.5 1.5 0 0 Z " fill="#0F469E" transform="translate(210,605)"/>
<path d="M0 0 C1.64826111 2.96687001 2.44271087 5.65626525 3 9 C-2.75 7.25 -2.75 7.25 -5 5 C-3.35 3.35 -1.7 1.7 0 0 Z " fill="#E5EBF5" transform="translate(1120,640)"/>
<path d="M0 0 C-0.125 2.25 -0.125 2.25 -1 5 C-3.58350132 6.97885207 -6.09529743 8.54764872 -9 10 C-9.66 9.34 -10.32 8.68 -11 8 C-9.54712339 6.66072279 -8.08752741 5.32873153 -6.625 4 C-5.81289063 3.2575 -5.00078125 2.515 -4.1640625 1.75 C-2 0 -2 0 0 0 Z " fill="#1A4EA6" transform="translate(908,293)"/>
<path d="M0 0 C2.89932357 2.39509338 3.50168276 4.31245243 4 8 C3.01 8.495 3.01 8.495 2 9 C1.67 8.34 1.34 7.68 1 7 C0.34 7 -0.32 7 -1 7 C-0.938125 8.423125 -0.938125 8.423125 -0.875 9.875 C-1 13 -1 13 -3 15 C-2.22095672 4.44191344 -2.22095672 4.44191344 0 0 Z " fill="#3159A6" transform="translate(710,231)"/>
<path d="M0 0 C0.66 0.66 1.32 1.32 2 2 C-1.3 5.3 -4.6 8.6 -8 12 C-8.99 11.67 -9.98 11.34 -11 11 C-7.37 7.37 -3.74 3.74 0 0 Z " fill="#11469E" transform="translate(962,363)"/>
<path d="M0 0 C0.33 0 0.66 0 1 0 C1.33 4.62 1.66 9.24 2 14 C2.33 14 2.66 14 3 14 C3.37849614 18.54195365 2.9891703 19.0144396 0 23 C0 15.41 0 7.82 0 0 Z " fill="#F6EBCB" transform="translate(627,434)"/>
<path d="M0 0 C0 0.66 0 1.32 0 2 C-1.4609375 3.2890625 -1.4609375 3.2890625 -3.375 4.625 C-4.00148438 5.07101562 -4.62796875 5.51703125 -5.2734375 5.9765625 C-7 7 -7 7 -9 7 C-11 4 -11 4 -11 1 C-10.071875 1.20625 -9.14375 1.4125 -8.1875 1.625 C-4.33959484 2.07769472 -3.53541174 0 0 0 Z " fill="#184699" transform="translate(352,319)"/>
<path d="M0 0 C6.93302093 -0.22731216 13.2168636 0.57997892 20 2 C20 2.33 20 2.66 20 3 C18.39679026 3.19551338 16.79237014 3.38111983 15.1875 3.5625 C14.29417969 3.66691406 13.40085937 3.77132812 12.48046875 3.87890625 C10 4 10 4 7 3 C7 2.34 7 1.68 7 1 C4.69 1 2.38 1 0 1 C0 0.67 0 0.34 0 0 Z " fill="#3262B0" transform="translate(482,678)"/>
<path d="M0 0 C0.66 0.33 1.32 0.66 2 1 C0.68 1.33 -0.64 1.66 -2 2 C-2 2.66 -2 3.32 -2 4 C-3.85625 4.680625 -3.85625 4.680625 -5.75 5.375 C-8.59245495 6.4384007 -11.32663046 7.55192483 -14 9 C-14.66 8.34 -15.32 7.68 -16 7 C-13.3789879 5.80293183 -10.75385304 4.61711354 -8.125 3.4375 C-7.00544922 2.92413086 -7.00544922 2.92413086 -5.86328125 2.40039062 C-3.93450668 1.54026143 -1.9688967 0.76383202 0 0 Z " fill="#3360AC" transform="translate(746,492)"/>
<path d="M0 0 C0.66 0.99 1.32 1.98 2 3 C-1.3 6.3 -4.6 9.6 -8 13 C-8.33 12.01 -8.66 11.02 -9 10 C-7.625 8.5 -7.625 8.5 -6 7 C-5.34 7 -4.68 7 -4 7 C-3.71125 6.401875 -3.4225 5.80375 -3.125 5.1875 C-2 3 -2 3 0 0 Z " fill="#2658AA" transform="translate(969,418)"/>
<path d="M0 0 C2.46324069 3.69486103 2.38991688 5.63293092 2 10 C0.875 12 0.875 12 -1 13 C-4.1875 12.6875 -4.1875 12.6875 -7 12 C-7 11.67 -7 11.34 -7 11 C-5.02 11 -3.04 11 -1 11 C-0.67 7.37 -0.34 3.74 0 0 Z " fill="#2758A5" transform="translate(760,292)"/>
<path d="M0 0 C-1.86083181 4.56749627 -5.03688123 7.88579746 -9.3125 10.3125 C-10.1478125 10.6528125 -10.1478125 10.6528125 -11 11 C-9.60249952 7.84164893 -7.94801766 5.67727175 -5.5 3.25 C-4.8915625 2.63640625 -4.283125 2.0228125 -3.65625 1.390625 C-2 0 -2 0 0 0 Z " fill="#154A9D" transform="translate(244,331)"/>
<path d="M0 0 C2.56616632 3.84924948 2.55097676 6.4349304 3 11 C1.35 10.67 -0.3 10.34 -2 10 C-1.54177532 6.53058454 -1.10868317 3.32604951 0 0 Z " fill="#F0C22C" transform="translate(629,352)"/>
<path d="M0 0 C0.99 0.33 1.98 0.66 3 1 C2.04578192 2.14926266 1.08647955 3.29430541 0.125 4.4375 C-0.40867187 5.07558594 -0.94234375 5.71367187 -1.4921875 6.37109375 C-3 8 -3 8 -5 9 C-5.33 8.01 -5.66 7.02 -6 6 C-4.625 4.5 -4.625 4.5 -3 3 C-2.34 3 -1.68 3 -1 3 C-0.67 2.01 -0.34 1.02 0 0 Z " fill="#DFE7F2" transform="translate(273,297)"/>
<path d="M0 0 C2 2 2 2 2.1875 5.8125 C2.11266813 8.97270751 1.76920251 11.92318996 1 15 C0.67 15 0.34 15 0 15 C-1.33257403 4.44191344 -1.33257403 4.44191344 0 0 Z " fill="#134898" transform="translate(763,273)"/>
<path d="M0 0 C0.33 0 0.66 0 1 0 C1.125 6.75 1.125 6.75 0 9 C-0.66 9 -1.32 9 -2 9 C-2.33 10.32 -2.66 11.64 -3 13 C-3.66 13 -4.32 13 -5 13 C-3.58192622 8.52761347 -1.88695626 4.28853694 0 0 Z " fill="#2453A6" transform="translate(127,956)"/>
<path d="M0 0 C2.56269497 1.04109483 4.02610343 2.02610343 6 4 C4.1746875 3.9690625 4.1746875 3.9690625 2.3125 3.9375 C-0.91977322 3.93175884 -3.84934741 4.21233685 -7 5 C-2.25 1.125 -2.25 1.125 0 0 Z " fill="#2453A6" transform="translate(201,523)"/>
<path d="M0 0 C1 3 1 3 -0.4375 6.1875 C-1.2109375 7.5796875 -1.2109375 7.5796875 -2 9 C-4.97 9 -7.94 9 -11 9 C-11 8.67 -11 8.34 -11 8 C-10.195625 7.87625 -9.39125 7.7525 -8.5625 7.625 C-7.716875 7.41875 -6.87125 7.2125 -6 7 C-5.67 6.34 -5.34 5.68 -5 5 C-4.01 4.67 -3.02 4.34 -2 4 C-0.79117904 1.99983534 -0.79117904 1.99983534 0 0 Z " fill="#09388A" transform="translate(196,485)"/>
<path d="M0 0 C-0.33 0.66 -0.66 1.32 -1 2 C-4.28519475 3.09506492 -6.73663415 3.09960608 -10.1875 3.0625 C-11.81751953 3.04896484 -11.81751953 3.04896484 -13.48046875 3.03515625 C-14.31191406 3.02355469 -15.14335938 3.01195312 -16 3 C-16 2.67 -16 2.34 -16 2 C-10.51324804 0.13216954 -5.77807024 -0.2358396 0 0 Z " fill="#083689" transform="translate(793,927)"/>
<path d="M0 0 C3 3 3 3 4 6 C3.401875 6.103125 2.80375 6.20625 2.1875 6.3125 C-0.40434372 6.94177772 -0.40434372 6.94177772 -3 10 C-2.01 6.7 -1.02 3.4 0 0 Z " fill="#D5E0EF" transform="translate(1084,550)"/>
<path d="M0 0 C0.33 0 0.66 0 1 0 C1.0810206 2.10353495 1.13919907 4.20795952 1.1875 6.3125 C1.22230469 7.48425781 1.25710938 8.65601563 1.29296875 9.86328125 C1 13 1 13 -2 16 C-1.34 10.72 -0.68 5.44 0 0 Z " fill="#BDCEE6" transform="translate(691,225)"/>
<path d="M0 0 C0.33 0 0.66 0 1 0 C1.3690205 9.41002278 1.3690205 9.41002278 -1 14 C-2.62433191 11.49923002 -3.07333427 10.41017471 -2.5390625 7.421875 C-2.23742187 6.54015625 -1.93578125 5.6584375 -1.625 4.75 C-1.32851562 3.85796875 -1.03203125 2.9659375 -0.7265625 2.046875 C-0.48679687 1.37140625 -0.24703125 0.6959375 0 0 Z " fill="#18499E" transform="translate(123,521)"/>
<path d="M0 0 C1.64826111 2.96687001 2.44271087 5.65626525 3 9 C0.5625 8.25 0.5625 8.25 -2 7 C-3 5.0625 -3 5.0625 -3 3 C-1.5625 1.25 -1.5625 1.25 0 0 Z " fill="#DDE4F2" transform="translate(1084,530)"/>
<path d="M0 0 C0.66 0.66 1.32 1.32 2 2 C1.27683594 2.61488281 1.27683594 2.61488281 0.5390625 3.2421875 C-0.09257812 3.78101563 -0.72421875 4.31984375 -1.375 4.875 C-2.00148438 5.40867187 -2.62796875 5.94234375 -3.2734375 6.4921875 C-4.55836651 7.61432007 -5.79371975 8.79371975 -7 10 C-6.84518205 7.29068581 -6.51827919 5.53415961 -4.59765625 3.5546875 C-3.10228292 2.32320358 -1.5537076 1.1570163 0 0 Z " fill="#134498" transform="translate(263,363)"/>
<path d="M0 0 C0.33 0 0.66 0 1 0 C0.67 3.3 0.34 6.6 0 10 C-4 9 -4 9 -6 7 C-5.38125 6.95875 -4.7625 6.9175 -4.125 6.875 C-3.42375 6.58625 -2.7225 6.2975 -2 6 C-0.6954344 3.00384054 -0.6954344 3.00384054 0 0 Z " fill="#204E9D" transform="translate(899,321)"/>
<path d="M0 0 C0.66 0.33 1.32 0.66 2 1 C1.04882866 2.1725131 0.08882991 3.33787015 -0.875 4.5 C-1.40867187 5.1496875 -1.94234375 5.799375 -2.4921875 6.46875 C-2.98976563 6.9740625 -3.48734375 7.479375 -4 8 C-4.66 8 -5.32 8 -6 8 C-4.73058503 4.08597051 -3.48832306 2.20927127 0 0 Z " fill="#1E51A8" transform="translate(444,864)"/>
<path d="M0 0 C1.125 3.75 1.125 3.75 0 6 C0.99 6.33 1.98 6.66 3 7 C2.01 8.485 2.01 8.485 1 10 C2.32 10.33 3.64 10.66 5 11 C4.01 11.495 4.01 11.495 3 12 C0.875 11.0625 0.875 11.0625 -1 10 C-1.125 3.375 -1.125 3.375 0 0 Z " fill="#2157AC" transform="translate(607,756)"/>
<path d="M0 0 C0.66 1.32 1.32 2.64 2 4 C3.98 3.67 5.96 3.34 8 3 C5.14693203 5.32472205 2.45925163 6.7508258 -1 8 C-0.67 5.36 -0.34 2.72 0 0 Z " fill="#CDDBED" transform="translate(183,526)"/>
<path d="M0 0 C-0.33 1.98 -0.66 3.96 -1 6 C-1.66 6 -2.32 6 -3 6 C-3.33 5.01 -3.66 4.02 -4 3 C-6.31 3 -8.62 3 -11 3 C-7.4144509 0.60963393 -4.2914923 0 0 0 Z " fill="#2E5EAC" transform="translate(518,221)"/>
<path d="M0 0 C0.66 0.33 1.32 0.66 2 1 C3.26229508 5.47540984 3.26229508 5.47540984 2 8 C0.68 7.34 -0.64 6.68 -2 6 C-1.34 4.02 -0.68 2.04 0 0 Z " fill="#1C50A6" transform="translate(620,213)"/>
<path d="M0 0 C3.21043882 1.38188453 5.04936365 2.92421903 7.25 5.625 C7.77078125 6.25664063 8.2915625 6.88828125 8.828125 7.5390625 C9.40820312 8.26222656 9.40820312 8.26222656 10 9 C9.01 9 8.02 9 7 9 C5.62926214 7.36395804 4.29944744 5.69321939 3 4 C0.87396815 2.23676495 0.87396815 2.23676495 -1 1 C-0.67 0.67 -0.34 0.34 0 0 Z " fill="#16479C" transform="translate(484,894)"/>
<path d="M0 0 C0.66 0 1.32 0 2 0 C2.33 1.98 2.66 3.96 3 6 C2.01 6.66 1.02 7.32 0 8 C0 7.34 0 6.68 0 6 C-0.66 5.67 -1.32 5.34 -2 5 C-1.34 3.35 -0.68 1.7 0 0 Z " fill="#D8E2F0" transform="translate(182,545)"/>
<path d="M0 0 C1.14889133 3.93905597 1.52582695 7.93565958 2 12 C1.01 12.495 1.01 12.495 0 13 C-0.66 12.34 -1.32 11.68 -2 11 C-1.68603757 7.04407344 -1.25172182 3.75516546 0 0 Z " fill="#3966AC" transform="translate(920,313)"/>
<path d="M0 0 C0.33 0 0.66 0 1 0 C1 3.96 1 7.92 1 12 C0.34 12 -0.32 12 -1 12 C-1.92470553 7.28400182 -2.22923777 4.32734391 0 0 Z " fill="#254F9E" transform="translate(745,256)"/>
<path d="M0 0 C3.69790046 1.23263349 3.9354846 2.20052451 5.6875 5.5625 C6.12449219 6.38878906 6.56148437 7.21507812 7.01171875 8.06640625 C7.33785156 8.70449219 7.66398437 9.34257812 8 10 C6.0703125 9.64453125 6.0703125 9.64453125 4 9 C2.875 6.6875 2.875 6.6875 2 4 C1.34786461 2.65949948 0.68620031 1.32338632 0 0 Z " fill="#12469D" transform="translate(1093,420)"/>
<path d="M0 0 C0 0.66 0 1.32 0 2 C-0.66 2 -1.32 2 -2 2 C-2.33 2.99 -2.66 3.98 -3 5 C-5.0625 6.1875 -5.0625 6.1875 -7 7 C-7.66 6.34 -8.32 5.68 -9 5 C-7.87926138 4.16094435 -6.75325453 3.32892169 -5.625 2.5 C-4.99851562 2.0359375 -4.37203125 1.571875 -3.7265625 1.09375 C-2 0 -2 0 0 0 Z " fill="#2052A6" transform="translate(369,283)"/>
<path d="M0 0 C0.33 0.99 0.66 1.98 1 3 C1.99 3 2.98 3 4 3 C3.67 6.3 3.34 9.6 3 13 C2.67 13 2.34 13 2 13 C1.855625 11.783125 1.71125 10.56625 1.5625 9.3125 C1.17219047 6.17329623 0.67648144 3.0924866 0 0 Z " fill="#3664B0" transform="translate(550,277)"/>
<path d="M0 0 C0.66 0.66 1.32 1.32 2 2 C1.64700993 5.44165321 0.95418308 7.06872538 -1 10 C-1.66 10 -2.32 10 -3 10 C-2.01 6.7 -1.02 3.4 0 0 Z " fill="#1A50A4" transform="translate(857,248)"/>
<path d="M0 0 C0.66 0.66 1.32 1.32 2 2 C1.875 4.5 1.875 4.5 1 7 C-0.98 7.99 -0.98 7.99 -3 9 C-2.01 6.03 -1.02 3.06 0 0 Z " fill="#2A5DAF" transform="translate(96,1024)"/>
<path d="M0 0 C0.99 0 1.98 0 3 0 C5.25 2.8125 5.25 2.8125 7 6 C6.67 6.99 6.34 7.98 6 9 C3.59927045 6.11912454 1.52708963 3.43595166 0 0 Z " fill="#164BA4" transform="translate(362,895)"/>
<path d="M0 0 C0.66 0.99 1.32 1.98 2 3 C1.125 6.1875 1.125 6.1875 0 9 C-0.99 9 -1.98 9 -3 9 C-2.01 6.03 -1.02 3.06 0 0 Z " fill="#2C5DAA" transform="translate(129,506)"/>
<path d="M0 0 C1.68156755 2.52235132 3.16468006 5.03586642 4.625 7.6875 C5.07101563 8.49574219 5.51703125 9.30398438 5.9765625 10.13671875 C6.31429687 10.75160156 6.65203125 11.36648438 7 12 C6.01 11.67 5.02 11.34 4 11 C4 10.34 4 9.68 4 9 C3.01 8.67 2.02 8.34 1 8 C0.67 5.36 0.34 2.72 0 0 Z " fill="#17499D" transform="translate(236,406)"/>
<path d="M0 0 C0.99 0.33 1.98 0.66 3 1 C3 1.66 3 2.32 3 3 C-1.455 4.485 -1.455 4.485 -6 6 C-4 4 -2 2 0 0 Z " fill="#1C51A8" transform="translate(863,330)"/>
<path d="M0 0 C0.99 0.33 1.98 0.66 3 1 C1.58480285 3.0343459 0.45017877 3.90410393 -1.98046875 4.421875 C-3.98176954 4.66273952 -5.9909944 4.83532741 -8 5 C-7.01 4.34 -6.02 3.68 -5 3 C-3.7625 2.1646875 -3.7625 2.1646875 -2.5 1.3125 C-1.675 0.879375 -0.85 0.44625 0 0 Z " fill="#164BA3" transform="translate(825,318)"/>
<path d="M0 0 C1.99097846 2.98646769 2.94124926 5.59687262 4 9 C1 8 1 8 -1 6 C-1.1875 3.4375 -1.1875 3.4375 -1 1 C-0.67 0.67 -0.34 0.34 0 0 Z " fill="#2353A3" transform="translate(1171,1030)"/>
<path d="M0 0 C0.66 0.66 1.32 1.32 2 2 C0.35 3.65 -1.3 5.3 -3 7 C-3.66 6.34 -4.32 5.68 -5 5 C-3.35 3.35 -1.7 1.7 0 0 Z " fill="#E3EAF4" transform="translate(489,932)"/>
<path d="M0 0 C0 1.65 0 3.3 0 5 C-0.99 5 -1.98 5 -3 5 C-3.33 4.34 -3.66 3.68 -4 3 C-6.02463255 2.34786708 -6.02463255 2.34786708 -8 2 C-2.25 0 -2.25 0 0 0 Z " fill="#03358E" transform="translate(769,486)"/>
<path d="M0 0 C0.33 0 0.66 0 1 0 C0.125 6.75 0.125 6.75 -1 9 C-1.99 9 -2.98 9 -4 9 C-2.80100302 5.9168649 -1.52299523 2.93720508 0 0 Z " fill="#174A9F" transform="translate(157,447)"/>
<path d="M0 0 C0.66 0.33 1.32 0.66 2 1 C2 4.96 2 8.92 2 13 C1.01 13.33 0.02 13.66 -1 14 C-0.67 9.38 -0.34 4.76 0 0 Z " fill="#436CB3" transform="translate(328,401)"/>
<path d="M0 0 C0.99 0 1.98 0 3 0 C3 0.66 3 1.32 3 2 C5.31 2.33 7.62 2.66 10 3 C10 3.66 10 4.32 10 5 C6.44219804 4.39009109 3.3171411 3.4216319 0 2 C0 1.34 0 0.68 0 0 Z " fill="#2B57A5" transform="translate(781,339)"/>
<path d="M0 0 C0.66 0.33 1.32 0.66 2 1 C-0.25 3.5625 -0.25 3.5625 -3 6 C-4.32 5.67 -5.64 5.34 -7 5 C-4.69 3.35 -2.38 1.7 0 0 Z " fill="#1A4FA5" transform="translate(383,319)"/>
<path d="M0 0 C0 0.99 0 1.98 0 3 C-2.31 3.66 -4.62 4.32 -7 5 C-7.66 4.34 -8.32 3.68 -9 3 C-2.25 0 -2.25 0 0 0 Z " fill="#2857A9" transform="translate(493,314)"/>
<path d="M0 0 C0.66 0.33 1.32 0.66 2 1 C1.360625 1.103125 0.72125 1.20625 0.0625 1.3125 C-0.618125 1.539375 -1.29875 1.76625 -2 2 C-2.33 2.99 -2.66 3.98 -3 5 C-6 6 -6 6 -8.1875 5.0625 C-8.785625 4.711875 -9.38375 4.36125 -10 4 C-6.535 3.505 -6.535 3.505 -3 3 C-3 2.34 -3 1.68 -3 1 C-2.01 0.67 -1.02 0.34 0 0 Z " fill="#C4D3E9" transform="translate(460,309)"/>
<path d="M0 0 C0.66 0.33 1.32 0.66 2 1 C0.66667905 4.99996286 -1.4957827 5.83782337 -5 8 C-5 5 -5 5 -2.5 2.3125 C-1.675 1.549375 -0.85 0.78625 0 0 Z " fill="#14479E" transform="translate(277,297)"/>
<path d="M0 0 C0.33 0 0.66 0 1 0 C1.33 2.64 1.66 5.28 2 8 C1.01 8.66 0.02 9.32 -1 10 C-1.125 3.375 -1.125 3.375 0 0 Z " fill="#0A408F" transform="translate(1004,893)"/>
<path d="M0 0 C2.72869407 0.03287583 5.2966618 0.56397771 8 1 C7.01 2.485 7.01 2.485 6 4 C3.36 3.34 0.72 2.68 -2 2 C-1.34 1.34 -0.68 0.68 0 0 Z " fill="#1C4C9B" transform="translate(531,703)"/>
<path d="M0 0 C0 0.99 0 1.98 0 3 C-2.8125 5.75 -2.8125 5.75 -6 8 C-6.99 7.67 -7.98 7.34 -9 7 C-6.03 4.69 -3.06 2.38 0 0 Z " fill="#154CA3" transform="translate(1000,434)"/>
<path d="M0 0 C0.66 0.33 1.32 0.66 2 1 C1.01 2.485 1.01 2.485 0 4 C-0.63292383 6.11280345 -0.63292383 6.11280345 -1 8 C-1.99 7.01 -2.98 6.02 -4 5 C-2.68 3.35 -1.36 1.7 0 0 Z " fill="#E2EBF5" transform="translate(968,435)"/>
<path d="M0 0 C0.66 0.66 1.32 1.32 2 2 C-2.39453125 6.00390625 -2.39453125 6.00390625 -4 7 C-4.99 6.67 -5.98 6.34 -7 6 C-4.69 4.02 -2.38 2.04 0 0 Z " fill="#184EA4" transform="translate(1029,410)"/>
<path d="M0 0 C0.33 0.99 0.66 1.98 1 3 C-1.31 4.65 -3.62 6.3 -6 8 C-6 5 -6 5 -4.6875 3.61328125 C-3.125 2.40885417 -1.5625 1.20442708 0 0 Z " fill="#164EA5" transform="translate(1045,397)"/>
<path d="M0 0 C0.66 0 1.32 0 2 0 C2.3125 2.3125 2.3125 2.3125 2 5 C-0.375 6.875 -0.375 6.875 -3 8 C-3.66 7.67 -4.32 7.34 -5 7 C-4.175 6.030625 -3.35 5.06125 -2.5 4.0625 C0.10539608 1.52977999 0.10539608 1.52977999 0 0 Z " fill="#2457A9" transform="translate(299,347)"/>
<path d="M0 0 C0.77321882 2.98241547 1.41196203 5.97580475 2 9 C1.01 9.33 0.02 9.66 -1 10 C-1.33 10.66 -1.66 11.32 -2 12 C-1.85831863 10.56208484 -1.71148957 9.1246763 -1.5625 7.6875 C-1.48128906 6.88699219 -1.40007813 6.08648437 -1.31640625 5.26171875 C-1 3 -1 3 0 0 Z " fill="#4974B4" transform="translate(917,326)"/>
<path d="M0 0 C3 3.75 3 3.75 3 6 C2.01 6.33 1.02 6.66 0 7 C-0.66 6.67 -1.32 6.34 -2 6 C-1.34 4.02 -0.68 2.04 0 0 Z " fill="#DFE8F3" transform="translate(463,229)"/>
<path d="M0 0 C0.99 0 1.98 0 3 0 C4.75 2.3125 4.75 2.3125 6 5 C5.67 5.99 5.34 6.98 5 8 C2.74754119 5.31158141 1.11786042 3.35358125 0 0 Z " fill="#114AA0" transform="translate(352,878)"/>
<path d="M0 0 C0.33 0 0.66 0 1 0 C2.01603857 5.79141983 1.96263236 9.4584498 0 15 C-0.33 15 -0.66 15 -1 15 C-1.09038099 9.84828377 -0.84681133 5.08086796 0 0 Z " fill="#557BBC" transform="translate(91,656)"/>
<path d="M0 0 C0.66 0.33 1.32 0.66 2 1 C2 1.66 2 2.32 2 3 C0.03852126 4.38938077 -1.96166576 5.7260411 -4 7 C-4 4 -4 4 -2 1.8125 C-1.34 1.214375 -0.68 0.61625 0 0 Z " fill="#1F57AB" transform="translate(665,624)"/>
<path d="M0 0 C0.33 0 0.66 0 1 0 C1.25 3.25 1.25 3.25 1 7 C-0.32 8.32 -1.64 9.64 -3 11 C-2.01 7.37 -1.02 3.74 0 0 Z " fill="#C0D0E9" transform="translate(259,589)"/>
<path d="M0 0 C0.66 1.32 1.32 2.64 2 4 C0.625 5.5 0.625 5.5 -1 7 C-1.66 7 -2.32 7 -3 7 C-1.125 1.125 -1.125 1.125 0 0 Z " fill="#174EA7" transform="translate(673,547)"/>
<path d="M0 0 C0.66 0.33 1.32 0.66 2 1 C0.35 2.98 -1.3 4.96 -3 7 C-3.99 6.34 -4.98 5.68 -6 5 C-4.02 3.35 -2.04 1.7 0 0 Z " fill="#1A4EA2" transform="translate(886,310)"/>
<path d="M0 0 C-0.99 0.66 -1.98 1.32 -3 2 C-6.6875 1.125 -6.6875 1.125 -10 0 C-10 -0.33 -10 -0.66 -10 -1 C-5.92224809 -1.9267618 -3.57818963 -2.33958553 0 0 Z " fill="#1852A4" transform="translate(523,177)"/>
<path d="M0 0 C1.10348268 3.31044803 0.99444068 5.65506316 0 9 C-0.99 9.495 -0.99 9.495 -2 10 C-1.54177532 6.53058454 -1.10868317 3.32604951 0 0 Z " fill="#275EAD" transform="translate(633,769)"/>
<path d="M0 0 C0.66 0.33 1.32 0.66 2 1 C0.35 2.65 -1.3 4.3 -3 6 C-3.99 5.34 -4.98 4.68 -6 4 C-4.02 2.68 -2.04 1.36 0 0 Z " fill="#295AAA" transform="translate(689,706)"/>
<path d="M0 0 C0.99 0.33 1.98 0.66 3 1 C1.35 2.98 -0.3 4.96 -2 7 C-2.33 6.01 -2.66 5.02 -3 4 C-2.34 4 -1.68 4 -1 4 C-0.67 2.68 -0.34 1.36 0 0 Z " fill="#1D4C97" transform="translate(671,703)"/>
<path d="M0 0 C2.64 0 5.28 0 8 0 C7.67 0.66 7.34 1.32 7 2 C6.01 2 5.02 2 4 2 C3.67 2.66 3.34 3.32 3 4 C2.01 2.68 1.02 1.36 0 0 Z " fill="#DDE7F4" transform="translate(171,496)"/>
<path d="M0 0 C0.33 0.99 0.66 1.98 1 3 C-1.97 5.475 -1.97 5.475 -5 8 C-5.66 7.67 -6.32 7.34 -7 7 C-4.69 4.69 -2.38 2.38 0 0 Z " fill="#2757A7" transform="translate(948,377)"/>
<path d="M0 0 C0 0.99 0 1.98 0 3 C-1.65 3.66 -3.3 4.32 -5 5 C-5 4.34 -5 3.68 -5 3 C-5.66 2.67 -6.32 2.34 -7 2 C-2.25 0 -2.25 0 0 0 Z " fill="#2759AB" transform="translate(451,333)"/>
<path d="M0 0 C0.66 0 1.32 0 2 0 C2 1.98 2 3.96 2 6 C0.68 5.34 -0.64 4.68 -2 4 C-1.34 2.68 -0.68 1.36 0 0 Z " fill="#D9E3F1" transform="translate(834,330)"/>
<path d="M0 0 C0 0.33 0 0.66 0 1 C-5.16044765 2.512545 -8.65998179 3.33500455 -14 2 C-14 1.67 -14 1.34 -14 1 C-9.23692563 0.04738513 -4.8333472 -0.08333357 0 0 Z " fill="#A5BDDD" transform="translate(587,316)"/>
<path d="M0 0 C0.66 0.33 1.32 0.66 2 1 C0.35 2.98 -1.3 4.96 -3 7 C-3.66 6.34 -4.32 5.68 -5 5 C-3.35 3.35 -1.7 1.7 0 0 Z " fill="#194A9E" transform="translate(285,290)"/>
</svg>
