<?xml version="1.0" encoding="UTF-8"?>
<svg version="1.1" xmlns="http://www.w3.org/2000/svg" width="1254" height="1254">
<path d="M0 0 C413.82 0 827.64 0 1254 0 C1254 413.82 1254 827.64 1254 1254 C840.18 1254 426.36 1254 0 1254 C0 840.18 0 426.36 0 0 Z " fill="#29216E" transform="translate(0,0)"/>
<path d="M0 0 C1.12201813 -0.0159874 2.24403625 -0.03197479 3.40005493 -0.04844666 C4.60012177 -0.05380936 5.8001886 -0.05917206 7.03662109 -0.06469727 C8.91225235 -0.07823997 8.91225235 -0.07823997 10.82577515 -0.09205627 C13.47025953 -0.10654747 16.1143124 -0.11623697 18.75878906 -0.11914062 C21.4492957 -0.12343778 24.13884045 -0.14421843 26.82910156 -0.18066406 C30.73190106 -0.22977848 34.63354343 -0.24495329 38.53662109 -0.25219727 C40.31850327 -0.28149574 40.31850327 -0.28149574 42.13638306 -0.31138611 C54.09069016 -0.24770564 63.38616595 3.54829891 71.98974609 11.83374023 C78.32058606 18.96438382 82.39283221 26.67706776 82.52319336 36.26123047 C82.53472946 36.94172958 82.54626556 37.6222287 82.55815125 38.323349 C82.59234672 40.56642029 82.6109458 42.80921597 82.62646484 45.05249023 C82.6368192 46.21091777 82.6368192 46.21091777 82.64738274 47.39274788 C82.68318538 51.48725701 82.70673419 55.58162925 82.72045898 59.67626953 C82.73692157 63.86917931 82.79522504 68.06037691 82.86360264 72.25271511 C82.90879029 75.50708036 82.92198331 78.76105133 82.92707634 82.0157032 C82.93488551 83.55887383 82.95426719 85.10203765 82.98629951 86.64489555 C83.24193129 99.83733787 80.18541423 111.00993444 70.77490234 120.91967773 C61.35371102 129.13717877 51.79598421 130.76879716 39.63037109 130.73999023 C37.68528152 130.74785301 37.68528152 130.74785301 35.70089722 130.75587463 C32.96586314 130.7647676 30.23112162 130.76242749 27.49609375 130.75244141 C24.01733236 130.74096805 20.53958863 130.76115591 17.06096077 130.79035854 C13.70904677 130.81328216 10.35736123 130.80624641 7.00537109 130.80249023 C5.76965363 130.81372421 4.53393616 130.82495819 3.26077271 130.83653259 C-8.3986685 130.7434198 -17.3937869 127.49319604 -25.81494141 119.30639648 C-35.02865399 108.50041124 -36.30566727 98.10015708 -36.35400391 84.38842773 C-36.36621474 82.84298998 -36.37870162 81.29755439 -36.39144897 79.75212097 C-36.41382883 76.52203084 -36.4234685 73.29217495 -36.42578125 70.06201172 C-36.4310498 65.96105597 -36.48232862 61.86209772 -36.54529762 57.76167774 C-36.586549 54.57076183 -36.5954263 51.38031203 -36.59589767 48.18915367 C-36.6012167 46.67949681 -36.61779014 45.16982893 -36.64674759 43.66044044 C-36.86711553 31.12736851 -34.10896125 20.87688143 -25.50244141 11.30639648 C-18.29523177 4.8945771 -9.78000421 0.10608937 0 0 Z " fill="#FAFAFB" transform="translate(819.81494140625,559.693603515625)"/>
<path d="M0 0 C7.92 0 15.84 0 24 0 C32.59039835 8.8697609 32.59039835 8.8697609 34.90234375 12.9140625 C37.85307924 17.84537735 41.1962652 22.3045024 44.75 26.8125 C45.8162774 28.20513951 46.88013238 29.5996375 47.94140625 30.99609375 C49.94234209 33.61864268 51.94971312 36.23599847 53.96484375 38.84765625 C54.42600586 39.44537842 54.88716797 40.04310059 55.36230469 40.65893555 C56.59884375 42.2601944 57.83648867 43.8605991 59.07421875 45.4609375 C60.44179957 47.26403595 61.74468008 49.11702012 63 51 C67.61259487 49.44799749 69.72195736 45.72063065 72.4375 41.9375 C73.50820956 40.47720058 74.57985548 39.01758734 75.65234375 37.55859375 C76.47968018 36.42719971 76.47968018 36.42719971 77.32373047 35.27294922 C78.94632311 33.07278356 80.5925115 30.89363215 82.25390625 28.72265625 C82.78806152 28.02462891 83.3222168 27.32660156 83.87255859 26.60742188 C84.96177503 25.19696339 86.05986747 23.793317 87.16650391 22.39648438 C90.45707513 18.2054888 93.25880651 14.02709225 95.72583008 9.29858398 C98.03998542 5.85494706 101.12055055 2.98709242 104 0 C111.92 0 119.84 0 128 0 C128 43.23 128 86.46 128 131 C119.09 131 110.18 131 101 131 C100.67 104.27 100.34 77.54 100 50 C92.36646293 59.32253953 92.36646293 59.32253953 85.0625 68.875 C80.4962926 75.01672548 75.86023474 81.09603209 71.15625 87.1328125 C68.92190377 90.02907617 68.92190377 90.02907617 66.84375 93.3671875 C66.2353125 94.23601562 65.626875 95.10484375 65 96 C64.34 96 63.68 96 63 96 C61.70996094 94.54150391 61.70996094 94.54150391 60.234375 92.4765625 C59.68080322 91.71134277 59.12723145 90.94612305 58.55688477 90.15771484 C57.96061279 89.32191895 57.36434082 88.48612305 56.75 87.625 C51.79615166 80.78591022 46.76615539 74.02632082 41.5625 67.375 C41.00852539 66.66682129 40.45455078 65.95864258 39.88378906 65.22900391 C39.34592773 64.54241699 38.80806641 63.85583008 38.25390625 63.1484375 C37.72941895 62.47780273 37.20493164 61.80716797 36.66455078 61.11621094 C35.46210036 59.58748694 34.25104032 58.06552161 33.03466797 56.54785156 C32.07197998 55.33693848 32.07197998 55.33693848 31.08984375 54.1015625 C30.49937256 53.36502441 29.90890137 52.62848633 29.30053711 51.86962891 C28 50 28 50 28 48 C27.34 48 26.68 48 26 48 C26 75.39 26 102.78 26 131 C17.42 131 8.84 131 0 131 C0 87.77 0 44.54 0 0 Z " fill="#F8F7FA" transform="translate(74,560)"/>
<path d="M0 0 C1.3479641 -0.00065712 1.3479641 -0.00065712 2.72315979 -0.00132751 C5.66129111 0.00074433 8.59883495 0.02399895 11.53686523 0.04760742 C13.58666167 0.05320909 15.63646214 0.05747649 17.68626404 0.06047058 C23.05717233 0.07187438 28.42783367 0.1013029 33.79864502 0.13458252 C39.28882508 0.16537998 44.7790454 0.17899654 50.26928711 0.1940918 C61.02396984 0.22617713 71.77840515 0.27890834 82.53295898 0.34057617 C82.53295898 9.25057617 82.53295898 18.16057617 82.53295898 27.34057617 C79.89336182 27.34992187 77.25376465 27.35926758 74.53417969 27.36889648 C65.81287582 27.40266391 57.09180863 27.45821153 48.37069416 27.52447891 C43.08305431 27.56398781 37.79558185 27.5961596 32.5078125 27.61157227 C27.40477401 27.62671629 22.3021956 27.66112191 17.1993618 27.70888519 C15.25256537 27.72372224 13.30570326 27.73161852 11.35885048 27.73246002 C8.63163834 27.73482444 5.90570311 27.76186131 3.17871094 27.79467773 C2.37382233 27.78964737 1.56893372 27.784617 0.73965454 27.7794342 C-3.00407131 27.84913103 -5.2541414 28.2087674 -8.46589661 30.19720459 C-11.06262899 32.97849432 -11.13950918 34.5138506 -11.09204102 38.27807617 C-11.11137695 39.80754883 -11.11137695 39.80754883 -11.13110352 41.36791992 C-10.45573506 44.39118693 -9.66582351 46.15680619 -7.40255737 48.29194641 C-2.76329985 50.80541704 3.14044874 49.99467717 8.26733398 49.94213867 C9.62869534 49.94764514 10.99004836 49.95577543 12.35137939 49.96640015 C15.93195525 49.98925763 19.5119202 49.98508339 23.0925293 49.97259521 C28.80799263 49.95428051 34.52309308 49.96449785 40.23847198 49.99845505 C42.2218722 50.00450011 44.2053014 49.99071784 46.18865967 49.97647095 C57.80232729 50.01114403 66.08594632 52.09997547 74.53295898 60.34057617 C81.61530566 69.04217732 82.94887707 76.90518303 83.01342773 87.95141602 C83.03270806 89.93969924 83.09505473 91.92741349 83.15795898 93.91479492 C83.24201299 104.41103928 80.84387538 112.29364966 73.97045898 120.34057617 C73.16608398 121.00057617 72.36170898 121.66057617 71.53295898 122.34057617 C70.81108398 123.02120117 70.08920898 123.70182617 69.34545898 124.40307617 C58.68426282 131.74745575 47.66058042 130.86345001 35.21264648 130.73120117 C33.14186146 130.72373086 31.07106931 130.71804167 29.00027466 130.71405029 C23.57832961 130.69885619 18.15682048 130.65962843 12.73504639 130.61523438 C7.19118138 130.57414686 1.64724521 130.55601059 -3.89672852 130.53588867 C-14.75372064 130.49312769 -25.61027619 130.42282918 -36.46704102 130.34057617 C-36.46704102 121.76057617 -36.46704102 113.18057617 -36.46704102 104.34057617 C-33.85773682 104.33646729 -31.24843262 104.3323584 -28.56005859 104.328125 C-19.93852195 104.31092696 -11.31728195 104.26642442 -2.69592762 104.2084856 C2.5312238 104.174196 7.75808234 104.14910254 12.98535156 104.14501953 C18.0301028 104.14074084 23.07419312 104.11231359 28.11873817 104.06714439 C30.04320743 104.05415568 31.96775572 104.04986657 33.89226341 104.05442238 C36.58856933 104.05931865 39.28293634 104.03328044 41.97900391 104 C42.77454178 104.00862564 43.57007965 104.01725128 44.38972473 104.02613831 C48.38791548 103.94341825 50.32201483 103.50233134 53.5304718 101.04203796 C56.17416109 97.47556041 56.20393412 94.48218285 56.03295898 90.21557617 C56.03553711 89.50014648 56.03811523 88.7847168 56.04077148 88.04760742 C55.98447172 85.03557019 55.93247691 82.88880354 54.12670898 80.41088867 C50.890113 78.23729235 48.7321452 78.2115726 44.84912109 78.19873047 C43.65705551 78.19169601 42.46498993 78.18466156 41.23680115 78.17741394 C39.29318443 78.17116753 39.29318443 78.17116753 37.31030273 78.16479492 C35.96707882 78.1543676 34.62386229 78.14294452 33.28065491 78.13056946 C27.57515979 78.07818721 21.86979243 78.03021571 16.1640625 78.01464844 C12.67312009 78.00450006 9.18278195 77.97499715 5.69207954 77.93332863 C3.72871301 77.91519584 1.76519064 77.9176542 -0.19825745 77.920578 C-7.52933668 77.82100358 -13.08319216 77.02671053 -19.46704102 73.34057617 C-21.01391602 72.47432617 -21.01391602 72.47432617 -22.59204102 71.59057617 C-31.01035833 65.00232784 -35.82953026 56.94613647 -37.46704102 46.34057617 C-38.26125509 33.60711113 -37.64859194 22.49567115 -29.22485352 12.18823242 C-20.79369423 3.32614721 -12.12653229 -0.15798168 0 0 Z " fill="#FAFAFB" transform="translate(688.467041015625,559.659423828125)"/>
<path d="M0 0 C41.58 0 83.16 0 126 0 C121.96617881 6.05073178 117.92878933 11.81967102 113.4375 17.5 C112.1998885 19.07762915 110.96292473 20.65576662 109.7265625 22.234375 C108.79505371 23.42256836 108.79505371 23.42256836 107.84472656 24.63476562 C104.97200845 28.31804951 102.14199285 32.03347348 99.3125 35.75 C94.90453407 41.53255007 90.44918942 47.27394639 85.94580078 52.98242188 C82.59065493 57.23820441 79.27723722 61.52451293 75.97973633 65.82519531 C72.34109047 70.56674126 68.67225092 75.28445116 65 80 C58.58452723 88.24284383 58.58452723 88.24284383 52.1875 96.5 C51.39730469 97.5209375 50.60710938 98.541875 49.79296875 99.59375 C48.00099186 101.85150729 48.00099186 101.85150729 47 104 C70.43 104 93.86 104 118 104 C118 112.91 118 121.82 118 131 C76.42 131 34.84 131 -8 131 C-6.17146065 126.42865163 -4.10358215 123.29868664 -1.0625 119.5625 C-0.06496786 118.31521317 0.93242405 117.06781417 1.9296875 115.8203125 C2.43983398 115.18641602 2.94998047 114.55251953 3.47558594 113.89941406 C5.85950064 110.92906551 8.2112763 107.93374595 10.5625 104.9375 C11.01810303 104.35814697 11.47370605 103.77879395 11.94311523 103.18188477 C15.40296494 98.77726544 18.82219761 94.34256878 22.22851562 89.89648438 C25.30716867 85.88402188 28.42875286 81.90702179 31.5625 77.9375 C34.86763884 73.74751633 38.12438287 69.53034244 41.3125 65.25 C49.49199971 54.27534751 57.923443 43.47697352 66.546875 32.84765625 C67.77331828 31.28822703 68.89951303 29.65073045 70 28 C46.9 27.67 23.8 27.34 0 27 C0 18.09 0 9.18 0 0 Z " fill="#F9F8FA" transform="translate(520,560)"/>
<path d="M0 0 C40.26 0 80.52 0 122 0 C122 8.91 122 17.82 122 27 C105.83 27 89.66 27 73 27 C73 61.32 73 95.64 73 131 C64.09 131 55.18 131 46 131 C46 96.68 46 62.36 46 27 C30.82 27 15.64 27 0 27 C0 18.09 0 9.18 0 0 Z " fill="#F9F9FB" transform="translate(1049,560)"/>
<path d="M0 0 C40.92 0 81.84 0 124 0 C124 8.91 124 17.82 124 27 C107.83 27 91.66 27 75 27 C75 60.99 75 94.98 75 130 C66.42 130 57.84 130 49 130 C49 96.01 49 62.02 49 27 C32.83 27 16.66 27 0 27 C0 18.09 0 9.18 0 0 Z " fill="#FBFAFC" transform="translate(347,560)"/>
<path d="M0 0 C1.44224945 -0.01925285 1.44224945 -0.01925285 2.91363525 -0.03889465 C4.47764069 -0.04997505 4.47764069 -0.04997505 6.07324219 -0.0612793 C7.14378845 -0.06935104 8.21433472 -0.07742279 9.31732178 -0.08573914 C11.58701962 -0.09958782 13.85673836 -0.11030645 16.12646484 -0.11816406 C19.59220069 -0.13535954 23.05697852 -0.17923769 26.52246094 -0.22338867 C28.726881 -0.23351696 30.93130918 -0.24203264 33.13574219 -0.2487793 C34.17031555 -0.26628738 35.20488892 -0.28379547 36.27081299 -0.30183411 C42.29245467 -0.28374914 45.81315976 0.11275062 50.37011719 4.17700195 C52.67504179 7.63438886 52.62708874 8.96140614 52.64477539 13.0378418 C52.6543074 14.24274261 52.66383942 15.44764343 52.67366028 16.6890564 C52.67274887 17.99218781 52.67183746 19.29531921 52.67089844 20.63793945 C52.67478632 21.98931001 52.67912118 23.34067936 52.68388367 24.69204712 C52.69134509 27.52496297 52.69105568 30.3577542 52.68579102 33.19067383 C52.68000297 36.81449631 52.69691097 40.43780658 52.72013569 44.06154442 C52.73489669 46.8531694 52.73574144 49.64467179 52.73262596 52.43632889 C52.73338673 54.41992697 52.74724455 56.40350607 52.76130676 58.38705444 C52.75507797 59.59825958 52.74884918 60.80946472 52.74243164 62.05737305 C52.74306107 63.12087982 52.74369049 64.1843866 52.74433899 65.28012085 C52.15731434 69.8243259 49.8689136 73.26133828 46.37011719 76.17700195 C43.54435632 77.11892224 41.74173049 77.31838565 38.81030273 77.35400391 C37.42822884 77.37325676 37.42822884 77.37325676 36.01823425 77.39289856 C34.52759209 77.40397896 34.52759209 77.40397896 33.00683594 77.4152832 C31.98209671 77.42335495 30.95735748 77.4314267 29.90156555 77.43974304 C27.73200164 77.45357638 25.56241602 77.46430189 23.39282227 77.47216797 C20.0807966 77.48938148 16.769769 77.5332752 13.45800781 77.57739258 C11.34929119 77.58751971 9.24056609 77.59603575 7.13183594 77.6027832 C6.14414719 77.62029129 5.15645844 77.63779938 4.13883972 77.65583801 C-1.62358668 77.63772708 -5.12270646 77.14843231 -9.62988281 73.17700195 C-11.95394123 69.69091432 -11.89621096 68.26993869 -11.9362793 64.1484375 C-11.95226669 62.90672287 -11.96825409 61.66500824 -11.98472595 60.38566589 C-11.99110342 59.028355 -11.99649592 57.67103918 -12.00097656 56.3137207 C-12.00994544 54.91990564 -12.01906734 53.52609155 -12.02833557 52.13227844 C-12.0448255 49.20941836 -12.05252539 46.2866728 -12.05541992 43.36376953 C-12.06079749 39.62768083 -12.09844917 35.89267661 -12.14416409 32.15689373 C-12.17398746 29.27686184 -12.18114463 26.39708913 -12.18214607 23.51691628 C-12.18633964 22.14023698 -12.19873951 20.76355631 -12.21966362 19.38702965 C-12.38902544 7.27932634 -12.38902544 7.27932634 -9.2199707 3.34814453 C-5.83607228 0.51158985 -4.30825066 0.05001681 0 0 Z " fill="#2A216E" transform="translate(822.6298828125,586.822998046875)"/>
<path d="M0 0 C0.84929077 -0.00014603 1.69858154 -0.00029205 2.5736084 -0.0004425 C5.37095729 0.0002522 8.16823896 0.0080239 10.96557617 0.01586914 C12.90899113 0.01773489 14.85240655 0.01915805 16.79582214 0.02015686 C21.90364894 0.02396968 27.01144717 0.03378942 32.1192627 0.04486084 C37.33430597 0.05510152 42.54935386 0.05966017 47.7644043 0.06469727 C57.99163239 0.0754128 68.21883181 0.0929996 78.44604492 0.11352539 C78.44604492 9.35352539 78.44604492 18.59352539 78.44604492 28.11352539 C74.57752808 28.11968872 74.57752808 28.11968872 70.63085938 28.12597656 C62.10910572 28.14317514 53.58765217 28.18767858 45.06608295 28.24561596 C39.89946502 28.27990455 34.73314336 28.30499886 29.56640625 28.30908203 C24.58000636 28.31336094 19.59427504 28.34178998 14.60808372 28.38695717 C12.70594362 28.39994518 10.80372356 28.40423524 8.90154457 28.39967918 C6.23636341 28.39478239 3.57314321 28.42082318 0.90820312 28.45410156 C0.12201599 28.44547592 -0.66417114 28.43685028 -1.47418213 28.42796326 C-5.40702231 28.51026849 -7.36090783 28.96904165 -10.54162598 31.34960938 C-12.65983408 34.25894925 -13.18484137 35.46646307 -13.21337891 38.99560547 C-13.233022 39.93620316 -13.2526651 40.87680084 -13.27290344 41.84590149 C-13.26700447 43.34929329 -13.26700447 43.34929329 -13.26098633 44.88305664 C-13.27610764 45.91919601 -13.29122894 46.95533539 -13.30680847 48.02287292 C-13.34971042 51.3241447 -13.35852623 54.62450253 -13.36645508 57.92602539 C-13.38959732 60.16758619 -13.41496208 62.40912522 -13.44262695 64.65063477 C-13.50967925 70.13876351 -13.5306149 75.62434101 -13.55395508 81.11352539 C-22.46395508 81.11352539 -31.37395508 81.11352539 -40.55395508 81.11352539 C-40.69234862 73.78379323 -40.81159751 66.45866402 -40.88354492 59.12866211 C-40.91356114 56.63989837 -40.95438766 54.15123901 -41.0065918 51.6628418 C-41.08007323 48.06801479 -41.11356524 44.47459617 -41.13989258 40.87915039 C-41.17086029 39.78177551 -41.201828 38.68440063 -41.23373413 37.55377197 C-41.23823241 27.03040396 -37.29764784 19.07652806 -30.55395508 11.11352539 C-21.5453611 2.91512616 -11.99585517 -0.05421289 0 0 Z " fill="#F9F8FA" transform="translate(957.553955078125,608.886474609375)"/>
<path d="M0 0 C8.58 0 17.16 0 26 0 C26 42.9 26 85.8 26 130 C17.42 130 8.84 130 0 130 C0 87.1 0 44.2 0 0 Z " fill="#FBFAFC" transform="translate(481,560)"/>
<path d="M0 0 C15.4984013 -0.02254742 30.99679453 -0.04097941 46.49520779 -0.05181217 C53.69090295 -0.05697503 60.88658722 -0.06401753 68.08227539 -0.07543945 C74.35184694 -0.0853866 80.62141061 -0.0918535 86.89098984 -0.09408849 C90.21265621 -0.09539555 93.53429466 -0.09899997 96.85595512 -0.10573006 C100.55819947 -0.11293628 104.26039631 -0.11399112 107.96264648 -0.11352539 C109.07178909 -0.11712067 110.1809317 -0.12071594 111.32368469 -0.12442017 C112.82767319 -0.12235817 112.82767319 -0.12235817 114.36204529 -0.12025452 C115.23867042 -0.12117631 116.11529554 -0.1220981 117.01848507 -0.12304783 C119 0 119 0 120 1 C120 9.91 120 18.82 120 28 C80.4 28 40.8 28 0 28 C0 18.76 0 9.52 0 0 Z " fill="#F6F5F9" transform="translate(217,609)"/>
<path d="M0 0 C39.6 0 79.2 0 120 0 C120 8.91 120 17.82 120 27 C80.4 27 40.8 27 0 27 C0 18.09 0 9.18 0 0 Z " fill="#F6F6F9" transform="translate(217,664)"/>
<path d="M0 0 C39.6 0 79.2 0 120 0 C120 8.91 120 17.82 120 27 C80.4 27 40.8 27 0 27 C0 18.09 0 9.18 0 0 Z " fill="#F8F8FA" transform="translate(217,560)"/>
<path d="M0 0 C39.6 0 79.2 0 120 0 C120 8.91 120 17.82 120 27 C80.4 27 40.8 27 0 27 C0 18.09 0 9.18 0 0 Z " fill="#F8F8FA" transform="translate(916,560)"/>
<path d="M0 0 C3.79245637 2.64857783 6.86094673 6.2101747 8.9296875 10.34765625 C9.5870866 18.05323585 9.84731236 24.16910194 4.9296875 30.34765625 C0.37224841 34.98968818 -2.80385832 37.03357412 -9.3203125 37.66015625 C-15.32890846 37.15943992 -19.39133834 34.77113434 -23.9453125 30.91015625 C-28.85546837 24.98908594 -28.69338548 18.73408589 -28.0703125 11.34765625 C-26.08544408 5.04278008 -21.236428 1.08901977 -15.5703125 -2.02734375 C-9.68013104 -3.49988911 -5.2482683 -2.8487682 0 0 Z " fill="#332C74" transform="translate(1173.0703125,652.65234375)"/>
<path d="M0 0 C4.56584062 4.44334246 7.14417679 7.79478403 7.25 14.25 C7.1793283 19.66345187 6.55323921 23.50122989 2.53515625 27.43359375 C-1.82522619 31.19695561 -4.25093403 32.23354077 -10.02734375 32.16015625 C-12.43028034 31.96506635 -14.04111385 31.41039803 -16 30 C-17.27861615 27.44276771 -17.11336609 25.63262898 -17.09765625 22.7734375 C-17.09443359 21.7421875 -17.09121094 20.7109375 -17.08789062 19.6484375 C-17.07951172 18.56820312 -17.07113281 17.48796875 -17.0625 16.375 C-17.05798828 15.28703125 -17.05347656 14.1990625 -17.04882812 13.078125 C-17.03701776 10.38536211 -17.02054778 7.69270812 -17 5 C-16.67 5 -16.34 5 -16 5 C-16 11.93 -16 18.86 -16 26 C-14.35 26 -12.7 26 -11 26 C-11 23.03 -11 20.06 -11 17 C-9.68 17.33 -8.36 17.66 -7 18 C-6 20.33333333 -5 22.66666667 -4 25 C-1.9674972 25.76917007 -1.9674972 25.76917007 0 26 C-0.30035156 25.46890625 -0.60070313 24.9378125 -0.91015625 24.390625 C-1.29042969 23.68421875 -1.67070313 22.9778125 -2.0625 22.25 C-2.44535156 21.55390625 -2.82820313 20.8578125 -3.22265625 20.140625 C-4.13839484 17.61889261 -3.94180896 16.47561212 -3 14 C-2.67 13.67 -2.34 13.34 -2 13 C-1.62095687 9.45291447 -1.62095687 9.45291447 -3.19140625 6.37890625 C-5.55256481 4.57871409 -7.24673187 4.50345897 -10.1875 4.3125 C-11.08855469 4.24675781 -11.98960938 4.18101562 -12.91796875 4.11328125 C-13.60503906 4.07589844 -14.29210938 4.03851562 -15 4 C-14.23828125 2.05078125 -14.23828125 2.05078125 -13 0 C-8.62086062 -0.93325921 -4.21837749 -1.77615894 0 0 Z " fill="#2F2670" transform="translate(1172,655)"/>
<path d="M0 0 C3.79245637 2.64857783 6.86094673 6.2101747 8.9296875 10.34765625 C9.5870866 18.05323585 9.84731236 24.16910194 4.9296875 30.34765625 C0.37224841 34.98968818 -2.80385832 37.03357412 -9.3203125 37.66015625 C-15.32890846 37.15943992 -19.39133834 34.77113434 -23.9453125 30.91015625 C-28.85546837 24.98908594 -28.69338548 18.73408589 -28.0703125 11.34765625 C-26.08544408 5.04278008 -21.236428 1.08901977 -15.5703125 -2.02734375 C-9.68013104 -3.49988911 -5.2482683 -2.8487682 0 0 Z M-22.8828125 7.47265625 C-26.18608978 11.81410639 -26.58696168 14.97645442 -26.0703125 20.34765625 C-24.29741363 26.39637004 -21.18912961 29.88082102 -16.0703125 33.34765625 C-12.34231355 34.59032257 -8.94248256 34.87668138 -5.0703125 34.34765625 C0.22080954 31.60034288 4.02343994 28.06639892 5.9296875 22.34765625 C6.43410989 17.08016345 6.6013534 12.71586457 4.2421875 7.91015625 C-0.10714906 3.09062114 -3.30583067 0.57425312 -9.8828125 0.03515625 C-15.72837005 0.13151159 -19.20348502 3.18361164 -22.8828125 7.47265625 Z " fill="#D9D6E7" transform="translate(1173.0703125,652.65234375)"/>
<path d="M0 0 C10.49675535 -0.37047372 10.49675535 -0.37047372 12.8359375 1.3515625 C14.46984593 3.66535229 14.35458018 5.23427458 14 8 C13.34 8.66 12.68 9.32 12 10 C12.42530343 13.82773086 13.73569964 17.3756723 15 21 C12.6875 20.9375 12.6875 20.9375 10 20 C8.96514123 17.68191636 7.9644586 15.34824702 7 13 C4.93109581 11.95710245 4.93109581 11.95710245 3 12 C3 14.64 3 17.28 3 20 C2.01 20 1.02 20 0 20 C0 13.4 0 6.8 0 0 Z " fill="#D8D5E5" transform="translate(1157,660)"/>
<path d="M0 0 C60.39 0.495 60.39 0.495 122 1 C122 1.33 122 1.66 122 2 C121.38339571 2.00331015 120.76679142 2.00662029 120.13150215 2.01003075 C105.14273376 2.09117665 90.15407589 2.18324119 75.16545296 2.28752708 C67.91712692 2.33769397 60.66881243 2.38413629 53.42041016 2.421875 C47.10425527 2.45476935 40.7881889 2.49458618 34.47213161 2.54279006 C31.1264151 2.56808069 27.78075749 2.58985422 24.43497086 2.60334396 C20.7040754 2.62012445 16.97346715 2.64913947 13.24267578 2.68115234 C11.57032867 2.68439262 11.57032867 2.68439262 9.86419678 2.68769836 C8.34552505 2.70444359 8.34552505 2.70444359 6.7961731 2.7215271 C5.91309542 2.72705786 5.03001774 2.73258862 4.12018013 2.73828697 C1.78390845 2.80598935 1.78390845 2.80598935 0 5 C0 3.35 0 1.7 0 0 Z " fill="#F2F1F6" transform="translate(347,561)"/>
<path d="M0 0 C38.28 0.33 76.56 0.66 116 1 C116 1.33 116 1.66 116 2 C77.33333333 2 38.66666667 2 0 2 C0 1.34 0 0.68 0 0 Z " fill="#F3F2F6" transform="translate(521,561)"/>
<path d="M0 0 C0.33 0 0.66 0 1 0 C1.75901657 14.02072277 1.75901657 14.02072277 -3 20 C-7.59727143 24.68260362 -10.77062365 26.76078694 -17.375 27.25 C-21.30113263 26.97923223 -23.63243715 25.9712563 -27 24 C-27 23.67 -27 23.34 -27 23 C-25.58847656 23.06960938 -25.58847656 23.06960938 -24.1484375 23.140625 C-16.41124524 23.70648885 -16.41124524 23.70648885 -9.3125 21.25 C-5.21716451 17.26534926 -3.6696379 14.67376491 -2.9375 8.9375 C-2.43920011 5.09821798 -2.17973518 3.26960277 0 0 Z " fill="#DBD9E9" transform="translate(1181,663)"/>
<path d="M0 0 C0 0.66 0 1.32 0 2 C-3.07617188 2.29296875 -3.07617188 2.29296875 -6.15234375 2.5859375 C-6.76207031 2.72257813 -7.37179687 2.85921875 -8 3 C-8.33 3.66 -8.66 4.32 -9 5 C-6.03 5.33 -3.06 5.66 0 6 C0 6.33 0 6.66 0 7 C-3.3 7 -6.6 7 -10 7 C-10 13.6 -10 20.2 -10 27 C-9.01 27 -8.02 27 -7 27 C-7 24.36 -7 21.72 -7 19 C-6.67 19 -6.34 19 -6 19 C-6 21.97 -6 24.94 -6 28 C-7.65 28 -9.3 28 -11 28 C-11.01981934 27.37955811 -11.03963867 26.75911621 -11.06005859 26.11987305 C-11.15531845 23.30865463 -11.26499302 20.49817834 -11.375 17.6875 C-11.42140625 16.22280273 -11.42140625 16.22280273 -11.46875 14.72851562 C-11.50742188 13.79072266 -11.54609375 12.85292969 -11.5859375 11.88671875 C-11.6173584 11.02264404 -11.6487793 10.15856934 -11.68115234 9.26831055 C-11.87188037 6.72257555 -11.87188037 6.72257555 -14 4 C-9.09075703 0.07260562 -6.26079448 -0.43177893 0 0 Z " fill="#5C5493" transform="translate(1167,653)"/>
<path d="M0 0 C23.43 0 46.86 0 71 0 C70.34 1.32 69.68 2.64 69 4 C68.01 3.67 67.02 3.34 66 3 C66 2.34 66 1.68 66 1 C44.22 1 22.44 1 0 1 C0 0.67 0 0.34 0 0 Z " fill="#352D75" transform="translate(520,587)"/>
<path d="M0 0 C3.63 0 7.26 0 11 0 C9 2 9 2 5.875 2.125 C4.92625 2.08375 3.9775 2.0425 3 2 C3 4.64 3 7.28 3 10 C4.32 10.33 5.64 10.66 7 11 C5.68 11 4.36 11 3 11 C3 13.97 3 16.94 3 20 C2.01 20 1.02 20 0 20 C0 13.4 0 6.8 0 0 Z " fill="#F6F5F9" transform="translate(1157,660)"/>
<path d="M0 0 C5.70317684 0.18530177 9.54600257 2.34254919 13.625 6.25 C17.55529672 10.99910854 16.76768677 16.47414364 16.25 22.3125 C15.92 22.3125 15.59 22.3125 15.25 22.3125 C15.10304688 21.44238281 15.10304688 21.44238281 14.953125 20.5546875 C13.80228398 14.54253527 12.18257264 9.94148032 7.4765625 5.72265625 C4.80264189 4.0291732 2.61737741 3.60745127 -0.5 3.125 C-1.97726562 2.88716797 -1.97726562 2.88716797 -3.484375 2.64453125 C-4.23203125 2.53496094 -4.9796875 2.42539062 -5.75 2.3125 C-3.75 0.3125 -3.75 0.3125 0 0 Z " fill="#E4E2ED" transform="translate(1164.75,650.6875)"/>
<path d="M0 0 C0 0.33 0 0.66 0 1 C-2.64 1.33 -5.28 1.66 -8 2 C-8 2.66 -8 3.32 -8 4 C-9.99284138 5.3440093 -11.99419671 6.67541292 -14 8 C-14.9075 8.9075 -15.815 9.815 -16.75 10.75 C-17.86375 11.86375 -17.86375 11.86375 -19 13 C-19.66 13 -20.32 13 -21 13 C-19.60496038 7.72985034 -16.26402346 5.07492759 -12 2 C-7.97392915 -0.21433897 -4.55229813 -0.1785215 0 0 Z " fill="#D8D5E7" transform="translate(1167,650)"/>
<path d="M0 0 C1.98 0 3.96 0 6 0 C6.33 1.65 6.66 3.3 7 5 C4.69 5.33 2.38 5.66 0 6 C0 4.02 0 2.04 0 0 Z " fill="#3A337A" transform="translate(1160,663)"/>
<path d="M0 0 C0.33 0 0.66 0 1 0 C1.05418326 2.08304538 1.09287551 4.16649768 1.125 6.25 C1.14820313 7.41015625 1.17140625 8.5703125 1.1953125 9.765625 C1.0103949 12.82786046 0.60823023 14.44202751 -1 17 C-3 15 -3 15 -3.046875 12.28515625 C-2.94890625 11.22167969 -2.8509375 10.15820312 -2.75 9.0625 C-2.66234375 8.00160156 -2.5746875 6.94070313 -2.484375 5.84765625 C-2 3 -2 3 0 0 Z " fill="#C8C4DC" transform="translate(1181,663)"/>
<path d="M0 0 C0.66 0 1.32 0 2 0 C1.84518205 2.70931419 1.51827919 4.46584039 -0.40234375 6.4453125 C-1.89771708 7.67679642 -3.4462924 8.8429837 -5 10 C-5.66 9.01 -6.32 8.02 -7 7 C-5.47005208 5.76302083 -3.94010417 4.52604167 -2.41015625 3.2890625 C-0.86733563 2.0333609 -0.86733563 2.0333609 0 0 Z " fill="#E2E1EE" transform="translate(1177,678)"/>
<path d="M0 0 C0.66 0 1.32 0 2 0 C5 5.75 5 5.75 5 8 C3.35 7.67 1.7 7.34 0 7 C-0.38133299 5.0085944 -0.71325582 3.00720923 -1 1 C-0.67 0.67 -0.34 0.34 0 0 Z " fill="#D5D3E4" transform="translate(1167,673)"/>
<path d="M0 0 C1.65 0 3.3 0 5 0 C1.23312546 3.93809611 1.23312546 3.93809611 -1.9453125 4.09765625 C-3.96354167 4.06510417 -5.98177083 4.03255208 -8 4 C-8.33 3.34 -8.66 2.68 -9 2 C-6.03 2 -3.06 2 0 2 C0 1.34 0 0.68 0 0 Z " fill="#3D367B" transform="translate(1168,683)"/>
<path d="M0 0 C1.10370043 3.3111013 0.92673641 5.24748949 0.5625 8.6875 C0.40974609 10.17830078 0.40974609 10.17830078 0.25390625 11.69921875 C0.12822266 12.83810547 0.12822266 12.83810547 0 14 C-0.66 14 -1.32 14 -2 14 C-2.05389087 12.04196493 -2.09274217 10.08351091 -2.125 8.125 C-2.14820313 7.03445313 -2.17140625 5.94390625 -2.1953125 4.8203125 C-2 2 -2 2 0 0 Z " fill="#EDEBF4" transform="translate(1147,662)"/>
<path d="M0 0 C0.99 0.33 1.98 0.66 3 1 C2.195625 1.61875 1.39125 2.2375 0.5625 2.875 C-3.15135247 6.49443249 -2.89481263 11.07531881 -3 16 C-3.33 16 -3.66 16 -4 16 C-4.10841951 14.08458862 -4.18578079 12.16740227 -4.25 10.25 C-4.29640625 9.18265625 -4.3428125 8.1153125 -4.390625 7.015625 C-3.91735478 3.36197888 -2.80844958 2.27771895 0 0 Z " fill="#3E367F" transform="translate(681,588)"/>
<path d="M0 0 C1.97265625 0.265625 1.97265625 0.265625 4.97265625 2.265625 C0.36192514 3.56239312 -3.36574464 2.97671639 -8.02734375 2.265625 C-5.42029477 -0.34142398 -3.55396134 0.02657167 0 0 Z " fill="#F1EFF6" transform="translate(1167.02734375,650.734375)"/>
<path d="M0 0 C0 1.65 0 3.3 0 5 C-0.66 5 -1.32 5 -2 5 C-2.66 4.01 -3.32 3.02 -4 2 C-7.06556598 1.26656572 -7.06556598 1.26656572 -10 1 C-10 0.67 -10 0.34 -10 0 C-6.33694766 -0.74926071 -3.57644848 -1.2380014 0 0 Z " fill="#E6E3ED" transform="translate(1170,662)"/>
<path d="M0 0 C0.66 0.33 1.32 0.66 2 1 C2 1.66 2 2.32 2 3 C5.63 3 9.26 3 13 3 C13 3.33 13 3.66 13 4 C8.05 4 3.1 4 -2 4 C-1.34 2.68 -0.68 1.36 0 0 Z " fill="#352C79" transform="translate(570,658)"/>
<path d="M0 0 C-1.26467795 3.79403384 -2.61697513 4.06684293 -6 6 C-7.75149165 7.58245275 -7.75149165 7.58245275 -9 9 C-9.66 8.67 -10.32 8.34 -11 8 C-9.54712339 6.66072279 -8.08752741 5.32873153 -6.625 4 C-5.81289063 3.2575 -5.00078125 2.515 -4.1640625 1.75 C-2 0 -2 0 0 0 Z " fill="#E5E2F0" transform="translate(669,565)"/>
<path d="M0 0 C0.66 0.99 1.32 1.98 2 3 C-0.31 4.98 -2.62 6.96 -5 9 C-5.66 8.67 -6.32 8.34 -7 8 C-6.38125 7.7525 -5.7625 7.505 -5.125 7.25 C-2.6170261 5.77472123 -2.07707051 4.65125048 -1 2 C-0.67 1.34 -0.34 0.68 0 0 Z " fill="#433C81" transform="translate(765,675)"/>
<path d="M0 0 C0.309375 0.639375 0.61875 1.27875 0.9375 1.9375 C1.8345163 3.93610821 1.8345163 3.93610821 3 5 C3.04063832 6.66617115 3.042721 8.33388095 3 10 C0 8 0 8 -0.75 5.5625 C-1 3 -1 3 0 0 Z " fill="#E1DEEC" transform="translate(1147,673)"/>
<path d="M0 0 C3.63 0 7.26 0 11 0 C10.34 1.32 9.68 2.64 9 4 C8.01 3.67 7.02 3.34 6 3 C6 2.34 6 1.68 6 1 C4.02 1 2.04 1 0 1 C0 0.67 0 0.34 0 0 Z " fill="#3C327B" transform="translate(580,587)"/>
<path d="M0 0 C1.73662334 3.22515763 2.8905928 6.51329166 4 10 C3.34 10 2.68 10 2 10 C-0.17364926 7.18230651 -1.08677021 5.7809319 -0.6875 2.1875 C-0.460625 1.465625 -0.23375 0.74375 0 0 Z " fill="#3F377B" transform="translate(785,662)"/>
</svg>
