<?xml version="1.0" encoding="UTF-8"?>
<svg version="1.1" xmlns="http://www.w3.org/2000/svg" width="1254" height="1254">
<path d="M0 0 C413.82 0 827.64 0 1254 0 C1254 413.82 1254 827.64 1254 1254 C840.18 1254 426.36 1254 0 1254 C0 840.18 0 426.36 0 0 Z " fill="#3EA23D" transform="translate(0,0)"/>
<path d="M0 0 C1.83103615 1.45615827 3.64464254 2.93458536 5.4375 4.4375 C6.30632812 5.15550781 7.17515625 5.87351562 8.0703125 6.61328125 C26.9659639 22.87972121 39.28642304 45.48584164 45.4375 69.4375 C45.62586426 70.15599121 45.81422852 70.87448242 46.00830078 71.61474609 C47.77142882 79.19447577 47.73354299 86.68692997 47.6875 94.4375 C47.69523438 95.73945312 47.70296875 97.04140625 47.7109375 98.3828125 C47.69623079 105.66263152 47.23329398 112.3806533 45.4375 119.4375 C45.14230469 120.69175781 44.84710937 121.94601562 44.54296875 123.23828125 C35.597322 157.46013839 16.11625172 184.5319786 -14.50244141 202.58105469 C-32.33413613 212.76671428 -52.64486663 217.84194998 -73.125 217.8125 C-74.24817627 217.81161377 -75.37135254 217.81072754 -76.52856445 217.80981445 C-89.15582626 217.63287651 -101.03694109 215.652434 -112.5625 210.4375 C-117.8850582 208.18715392 -117.8850582 208.18715392 -123.5625 207.4375 C-123.56392502 208.26577805 -123.56535004 209.09405609 -123.56681824 209.94743347 C-123.58466171 217.76042962 -123.62631464 225.57286018 -123.69459057 233.38558483 C-123.72885437 237.40207038 -123.7539695 241.41817584 -123.75805664 245.43481445 C-123.76234107 249.31255773 -123.79081405 253.18944369 -123.83593178 257.06691933 C-123.84890246 258.54480301 -123.85321592 260.02278932 -123.84865379 261.50072289 C-123.84374394 263.57457947 -123.86984807 265.64593389 -123.90307617 267.71948242 C-123.90973801 268.89862717 -123.91639984 270.07777191 -123.92326355 271.29264832 C-124.75529703 275.3860036 -126.31507381 276.88619236 -129.5625 279.4375 C-132.50852786 279.91379372 -134.858763 280.09520918 -137.79296875 280.03125 C-138.58343094 280.03129028 -139.37389313 280.03133057 -140.18830872 280.03137207 C-141.85844889 280.02602364 -143.52858899 280.00846949 -145.19848633 279.97949219 C-147.72492564 279.93791267 -150.2486692 279.93840552 -152.77539062 279.9453125 C-164.57274623 279.89824829 -175.38784979 279.37562328 -184.33984375 270.71875 C-191.88151698 262.6828022 -194.16594578 255.06360347 -194.07043457 244.16984558 C-194.07667453 243.06650244 -194.0829145 241.96315929 -194.08934355 240.8263815 C-194.10524086 237.14599694 -194.09268157 233.46627763 -194.08007812 229.78588867 C-194.08550053 227.14081909 -194.09247953 224.49579466 -194.10131836 221.85073853 C-194.11906368 215.42361861 -194.11528237 208.996686 -194.1036678 202.56955888 C-194.09462191 197.34715668 -194.09341444 192.12480685 -194.09776306 186.90239906 C-194.09868246 185.78610225 -194.09868246 185.78610225 -194.09962043 184.64725399 C-194.10089936 183.13533771 -194.10219621 181.62342144 -194.1035108 180.11150519 C-194.11490388 165.95092 -194.10182085 151.79043857 -194.08030933 137.62987039 C-194.06242104 125.47788586 -194.06555912 113.32605408 -194.08398438 101.17407227 C-194.10538185 87.05525123 -194.11382475 72.93652088 -194.10153532 58.8176859 C-194.10026113 57.31296465 -194.09900365 55.80824339 -194.09776306 54.30352211 C-194.09714596 53.56319419 -194.09652886 52.82286626 -194.09589306 52.06010416 C-194.09243815 46.84105933 -194.09827112 41.62207203 -194.10768127 36.40303612 C-194.11888937 30.04735493 -194.11588572 23.69187139 -194.0945583 17.3362129 C-194.08403438 14.09307305 -194.08209612 10.85033175 -194.09315491 7.60718346 C-194.1040314 4.09453521 -194.09044147 0.58282419 -194.07043457 -2.92976379 C-194.07935746 -3.95863844 -194.08828034 -4.98751309 -194.09747362 -6.04756576 C-194.02108151 -12.92767696 -194.02108151 -12.92767696 -191.66032219 -16.19572067 C-189.29497137 -17.73680105 -188.0594287 -18.06357691 -185.25634766 -18.06420898 C-184.4151236 -18.07358994 -183.57389954 -18.08297089 -182.70718384 -18.09263611 C-181.8060788 -18.08140213 -180.90497375 -18.07016815 -179.9765625 -18.05859375 C-179.0420224 -18.06004898 -178.1074823 -18.06150421 -177.1446228 -18.06300354 C-175.16930015 -18.06134499 -173.19396451 -18.04978863 -171.21875 -18.02905273 C-168.20516602 -18.00016932 -165.19334957 -18.00843076 -162.1796875 -18.02148438 C-160.25780399 -18.01524443 -158.33592603 -18.00685149 -156.4140625 -17.99609375 C-155.06847763 -18.00049721 -155.06847763 -18.00049721 -153.69570923 -18.00498962 C-147.01464663 -17.90500034 -142.80691377 -16.60741033 -137.75 -12 C-135.5625 -9.5625 -135.5625 -9.5625 -134.5625 -7.5625 C-131.06739677 -8.12171652 -128.42239954 -9.74843642 -125.40234375 -11.5234375 C-122.55839026 -13.12957684 -119.59447818 -14.36772048 -116.5625 -15.5625 C-115.81871094 -15.87058594 -115.07492187 -16.17867188 -114.30859375 -16.49609375 C-76.08942317 -31.49201259 -32.80503268 -24.18999822 0 0 Z " fill="#FCFCFC" transform="translate(626.5625,523.5625)"/>
<path d="M0 0 C1.01472885 0.00356506 1.01472885 0.00356506 2.04995728 0.00720215 C13.11796042 0.06789076 23.23238576 1.19868952 33.8125 4.4375 C34.81667969 4.69144531 35.82085938 4.94539063 36.85546875 5.20703125 C52.27885016 9.52557804 66.69233849 19.1912358 78.8125 29.4375 C80.03646484 30.43523438 80.03646484 30.43523438 81.28515625 31.453125 C101.80897006 48.77339326 116.49559785 76.67933746 119.5703125 103.31640625 C120.82096951 120.92145771 121.3726696 139.78476179 114.8125 156.4375 C114.40128906 157.54480469 113.99007812 158.65210938 113.56640625 159.79296875 C108.003509 174.51405752 100.88721534 187.33835207 90.8125 199.4375 C90.10480469 200.31019531 89.39710938 201.18289063 88.66796875 202.08203125 C78.95425407 213.5258324 66.9034553 221.38127079 53.8125 228.4375 C52.65590456 229.12441869 51.49966131 229.8119307 50.34375 230.5 C40.59604669 236.08494466 28.73822773 238.41371063 17.8125 240.4375 C16.93722656 240.62054687 16.06195312 240.80359375 15.16015625 240.9921875 C-4.6743985 243.63062302 -24.830676 241.38055288 -43.1875 233.4375 C-44.92120581 232.886208 -46.66156054 232.35552163 -48.40698242 231.8425293 C-49.30341965 231.57780319 -50.19985687 231.31307709 -51.12345886 231.04032898 C-51.80459244 230.84139542 -52.48572601 230.64246185 -53.1875 230.4375 C-53.17639694 231.27830612 -53.16529388 232.11911224 -53.15385437 232.98539734 C-53.05359895 240.91575194 -52.97750816 248.84589321 -52.92843914 256.77673626 C-52.90236371 260.85395567 -52.86700463 264.93065073 -52.81030273 269.00756836 C-52.75590747 272.94334363 -52.726064 276.87861512 -52.71311378 280.81473732 C-52.70388719 282.3150812 -52.6858691 283.81539802 -52.65884972 285.31552696 C-52.62245548 287.42018196 -52.61755839 289.52276565 -52.61987305 291.62768555 C-52.60876999 292.82459518 -52.59766693 294.02150482 -52.58622742 295.25468445 C-53.36830791 299.39460039 -54.91126266 300.86958317 -58.1875 303.4375 C-61.05440802 303.91449777 -63.30978643 304.0956069 -66.1640625 304.03125 C-66.92995697 304.03129028 -67.69585144 304.03133057 -68.48495483 304.03137207 C-70.10382295 304.02602391 -71.72269102 304.00847082 -73.34130859 303.97949219 C-75.78436349 303.93797811 -78.22462365 303.93840063 -80.66796875 303.9453125 C-92.28332162 303.89910534 -102.94030902 303.33201034 -112.17578125 295.5390625 C-117.87351786 289.58686387 -121.30634446 282.98507009 -121.31892776 274.73699856 C-121.32276891 273.79036766 -121.32661005 272.84373675 -121.3305676 271.86842006 C-121.32970112 270.83156175 -121.32883463 269.79470343 -121.32794189 268.72642517 C-121.33091302 267.62256503 -121.33388414 266.51870489 -121.3369453 265.38139445 C-121.34564142 261.66953856 -121.3471413 257.95771489 -121.34863281 254.24584961 C-121.35326019 251.5900609 -121.35826403 248.93427514 -121.36367798 246.27848816 C-121.37725363 239.05561513 -121.38328423 231.83274766 -121.38768864 224.609864 C-121.39045118 220.10179638 -121.39468844 215.59373091 -121.39919281 211.08566475 C-121.41138224 198.60828632 -121.42168365 186.13090961 -121.4250679 173.65352535 C-121.42528747 172.85516548 -121.42550703 172.05680561 -121.42573325 171.23425302 C-121.42595153 170.43397584 -121.42616981 169.63369867 -121.4263947 168.80917066 C-121.42683817 167.18747771 -121.42728473 165.56578475 -121.42773438 163.9440918 C-121.4279558 163.13967475 -121.42817723 162.33525769 -121.42840537 161.50646437 C-121.43235712 148.45926922 -121.44982406 135.4121298 -121.4730939 122.36495619 C-121.49678233 108.97529591 -121.50926853 95.58566363 -121.51043582 82.19598204 C-121.51135376 74.67573323 -121.51713622 67.15555712 -121.53525543 59.63532829 C-121.55062231 53.23489469 -121.55579701 46.83455625 -121.54751733 40.43410771 C-121.54359922 37.16687064 -121.54621471 33.89986644 -121.55857468 30.63264465 C-121.57117572 27.09545895 -121.56548209 23.55877246 -121.55499268 20.02159119 C-121.56304908 18.98250215 -121.57110548 17.94341311 -121.57940602 16.87283653 C-121.57281618 15.92881337 -121.56622633 14.98479022 -121.5594368 14.0121603 C-121.56003389 13.19527184 -121.56063097 12.37838338 -121.56124616 11.53674072 C-121.09678313 8.92796551 -120.25557887 8.04389501 -118.1875 6.4375 C-116.29954529 6.04309082 -116.29954529 6.04309082 -114.15014648 6.01757812 C-113.34177841 6.00166626 -112.53341034 5.98575439 -111.70054626 5.96936035 C-110.82870193 5.96915894 -109.9568576 5.96895752 -109.05859375 5.96875 C-108.15432144 5.96113647 -107.25004913 5.95352295 -106.31837463 5.94567871 C-104.40099851 5.93486712 -102.48356345 5.9320289 -100.56616211 5.93652344 C-97.65961411 5.93748851 -94.75577109 5.89603322 -91.84960938 5.8515625 C-73.32642012 5.73193232 -73.32642012 5.73193232 -66.1875 11.4375 C-63.5625 14.25 -63.5625 14.25 -62.1875 16.4375 C-57.62012168 15.85902297 -54.16827327 13.88593442 -50.25 11.625 C-43.14243794 7.68674303 -36.11511332 5.28510598 -28.1875 3.4375 C-27.26702881 3.18814697 -26.34655762 2.93879395 -25.39819336 2.68188477 C-16.85645055 0.4802834 -8.80150328 -0.06771647 0 0 Z " fill="#FCFCFC" transform="translate(809.1875,499.5625)"/>
<path d="M0 0 C0.76421973 -0.00623996 1.52843946 -0.01247993 2.31581736 -0.01890898 C4.87862331 -0.03487401 7.44048276 -0.02222152 10.0032959 -0.00964355 C11.83974259 -0.01506313 13.67618493 -0.02218486 15.51261902 -0.03088379 C20.50226918 -0.04913965 25.49158901 -0.04204026 30.48124504 -0.02936745 C35.6990944 -0.01925151 40.91691518 -0.02862921 46.13476562 -0.03491211 C54.89779751 -0.04219261 63.66069462 -0.03259022 72.42370605 -0.0135498 C82.55987616 0.00821968 92.69572446 0.00116859 102.83188677 -0.02085543 C111.52922591 -0.03899792 120.22646808 -0.04157337 128.92382002 -0.03110075 C134.12071986 -0.0248595 139.31746836 -0.02404755 144.51435852 -0.0372467 C149.39983523 -0.04878783 154.2848964 -0.04081127 159.17032814 -0.01766968 C160.96503318 -0.01237329 162.7597731 -0.01391222 164.55446434 -0.02272034 C167.00122109 -0.03362303 169.4466395 -0.01997742 171.89331055 0 C172.96315178 -0.01338433 172.96315178 -0.01338433 174.05460596 -0.02703905 C177.42267542 0.02644353 179.17332659 0.29972976 181.8857317 2.36587143 C183.95309757 5.20292784 183.97183521 7.03188607 184.01184082 10.52648926 C184.03413254 11.74165222 184.05642426 12.95681519 184.07939148 14.20880127 C184.08070572 15.51923401 184.08201996 16.82966675 184.08337402 18.17980957 C184.0936964 19.54498863 184.10476043 20.91016226 184.11653137 22.27532959 C184.13595498 25.13686382 184.13938966 27.99790952 184.13293457 30.85949707 C184.12695344 34.50960651 184.17107565 38.15715913 184.22882366 41.80674362 C184.26598443 44.62775515 184.27071373 47.44816072 184.26655006 50.26938629 C184.27078628 52.26350694 184.30623017 54.2574834 184.34233093 56.25128174 C184.2806339 62.3689983 184.13938564 66.51185218 180.02966309 71.25280762 C178.86112823 72.36558857 177.66968176 73.45533713 176.44665527 74.50793457 C175.38124512 75.63908691 175.38124512 75.63908691 174.29431152 76.79309082 C170.51283219 80.55802101 166.62670881 84.11800624 162.57946777 87.59387207 C160.10733491 89.81245285 157.7810335 92.14500126 155.44665527 94.50793457 C151.92559205 98.07193759 148.3147952 101.41097625 144.50915527 104.66418457 C141.15629679 107.66143686 138.04771771 110.89953091 134.88806152 114.09777832 C132.174628 116.77647989 129.33888505 119.25401575 126.44274902 121.73059082 C124.18532901 123.74062234 122.06929815 125.8562641 119.94665527 128.00793457 C117.2183612 130.77353865 114.46148693 133.42080488 111.50915527 135.94543457 C107.41886748 139.45023385 103.67956458 143.25992071 99.89587402 147.08996582 C97.20888393 149.74267214 94.4223492 152.22129248 91.52868652 154.64465332 C89.55300385 156.41275958 87.6871404 158.24618833 85.81652832 160.12438965 C85.1856279 160.75726395 84.55472748 161.39013824 83.90470886 162.04219055 C83.42355118 162.52588608 82.94239349 163.0095816 82.44665527 163.50793457 C83.64046814 163.5115802 84.83428101 163.51522583 86.06427002 163.51898193 C97.30632255 163.55589829 108.54810031 163.61363417 119.7899437 163.69183731 C125.56973163 163.73137263 131.34936582 163.76353145 137.12927246 163.77893066 C142.70560962 163.79405728 148.28152427 163.82843186 153.85767365 163.87624359 C155.98672059 163.89109865 158.11582785 163.89897794 160.24492645 163.89981842 C163.22376226 163.9021774 166.20142025 163.92917108 169.18005371 163.96203613 C170.06334351 163.95700577 170.9466333 163.9519754 171.85668945 163.9467926 C175.62433064 164.01124757 177.79684225 164.08006741 180.99346924 166.18487549 C182.79834812 169.07014975 182.95352839 170.82725882 182.9642334 174.22277832 C182.98314636 175.9447644 182.98314636 175.9447644 183.00244141 177.70153809 C182.99434448 178.93702393 182.98624756 180.17250977 182.97790527 181.44543457 C182.98173218 182.71765869 182.98555908 183.98988281 182.98950195 185.30065918 C182.99222454 187.99107284 182.98685341 190.68003328 182.96813965 193.37023926 C182.94534889 196.81388202 182.95847496 200.25627784 182.9824295 203.69987488 C183.00038079 206.99010585 182.98780248 210.28018732 182.97790527 213.57043457 C182.9860022 214.80592041 182.99409912 216.04140625 183.00244141 217.31433105 C182.98352844 219.03631714 182.98352844 219.03631714 182.9642334 220.79309082 C182.96105103 221.80250732 182.95786865 222.81192383 182.95458984 223.85192871 C182.28385763 227.35920858 181.27782641 228.34585486 178.44665527 230.50793457 C175.77614468 230.90100145 173.5172453 231.04904251 170.84861755 231.01586914 C170.07960871 231.0221091 169.31059986 231.02834907 168.51828772 231.03477812 C165.93933024 231.0507437 163.36131326 231.03809047 160.78234863 231.0255127 C158.93442737 231.0309322 157.08651042 231.03805389 155.23860168 231.04675293 C150.21802858 231.06500835 145.19778379 231.05790992 140.17720485 231.04523659 C134.92819113 231.03512194 129.67920584 231.04449785 124.43019104 231.05078125 C115.61588483 231.05806149 106.80171263 231.04845938 97.98742676 231.02941895 C87.78875337 231.00764277 77.59039973 231.01470552 67.39173406 231.03672457 C58.64260647 231.05485978 49.89357529 231.0574463 41.14443499 231.04696989 C35.91570928 231.04072549 30.68713401 231.03992544 25.45841789 231.05311584 C20.54421788 231.06464664 15.63043137 231.05669948 10.71627617 231.03353882 C8.90986316 231.02823716 7.10341551 231.02979028 5.29701614 231.03858948 C2.83677297 231.04947133 0.37786662 231.03587215 -2.08229065 231.01586914 C-2.80232193 231.02479203 -3.5223532 231.03371491 -4.26420361 231.04290819 C-7.47668961 230.9920118 -9.12539495 230.91693198 -11.4960556 228.65125942 C-12.90125668 225.80265129 -12.94147982 223.61605843 -12.95739746 220.44177246 C-12.97008163 219.21692642 -12.98276581 217.99208038 -12.99583435 216.7301178 C-12.99289871 215.4102739 -12.98996307 214.09042999 -12.98693848 212.73059082 C-12.99150152 211.35822796 -12.99680746 209.98586739 -13.00282288 208.61351013 C-13.01175005 205.73943795 -13.00933585 202.86564369 -12.99938965 199.99157715 C-12.98790363 196.31493281 -13.0081062 192.63924946 -13.03730679 188.96273136 C-13.0556859 186.12904299 -13.05537298 183.29558416 -13.04966927 180.46185112 C-13.04944202 178.44943516 -13.06632628 176.43704073 -13.08348083 174.42469788 C-13.07409988 173.19669968 -13.06471893 171.96870148 -13.05505371 170.70349121 C-13.05488754 169.62523575 -13.05472137 168.54698029 -13.05455017 167.43605042 C-12.18280981 162.34321513 -8.63641466 159.38701966 -4.80334473 156.19543457 C-1.9252176 153.73836678 0.79429906 151.20728134 3.44665527 148.50793457 C5.92590854 145.99031761 8.44105711 143.60702735 11.13415527 141.32043457 C14.93001256 138.06363394 18.43287703 134.56180727 21.94665527 131.00793457 C25.93440986 126.97493528 29.96160447 123.11390983 34.29040527 119.44543457 C37.8516095 116.24551193 41.18352589 112.81242131 44.52868652 109.38879395 C47.35333018 106.51859152 50.2356327 103.78947427 53.29040527 101.16418457 C57.90954034 97.17272145 62.16866888 92.85892415 66.44665527 88.50793457 C71.34485452 83.52614831 76.24347256 78.67661456 81.62243652 74.21105957 C83.82157676 72.15790081 85.58671743 69.86843045 87.44665527 67.50793457 C86.53956314 67.51681702 85.63247101 67.52569946 84.69789124 67.53485107 C76.12123496 67.61522337 67.54470641 67.67601367 58.96775913 67.71518326 C54.55894885 67.73599826 50.15045151 67.76420351 45.74182129 67.80969238 C41.48185619 67.85336887 37.22219082 67.8771174 32.96201897 67.88744354 C31.34220605 67.89479601 29.7224083 67.90915324 28.10272408 67.9308548 C16.00706193 68.08637559 7.34440492 66.8884566 -1.76818848 58.35559082 C-11.35106861 48.43720503 -12.06886738 37.80962605 -11.99938965 24.66784668 C-11.99080307 22.18338134 -12.019834 19.70116246 -12.0513916 17.21691895 C-12.05300209 15.63033109 -12.05242901 14.04373918 -12.04943848 12.45715332 C-12.06067245 11.7185759 -12.07190643 10.97999847 -12.08348083 10.21903992 C-12.0401957 7.02883454 -11.86470863 4.94609452 -9.99407196 2.31368256 C-6.71887122 -0.10944243 -3.91960132 -0.04903647 0 0 Z " fill="#FCFCFC" transform="translate(145.5533447265625,505.4920654296875)"/>
<path d="M0 0 C0.79149948 -0.01260864 1.58299896 -0.02521729 2.39848328 -0.03820801 C3.2464296 -0.03011108 4.09437592 -0.02201416 4.96801758 -0.01367188 C5.85105057 -0.01749878 6.73408356 -0.02132568 7.64387512 -0.02526855 C9.51243224 -0.02798839 11.38102739 -0.02062215 13.24951172 -0.00390625 C16.08560085 0.01737591 18.91911986 -0.00363835 21.75512695 -0.02929688 C23.57609602 -0.02665112 25.3970635 -0.02152104 27.21801758 -0.01367188 C28.47475533 -0.02581726 28.47475533 -0.02581726 29.75688171 -0.03820801 C38.43675104 0.09736335 45.78846771 3.34252779 51.99438477 9.42602539 C60.45349074 18.59005686 59.6728723 29.36709479 59.67504883 41.08007812 C59.69666946 43.71323108 59.72504441 46.34619085 59.75738525 48.97923279 C59.77514982 50.60844957 59.78543051 52.23776842 59.78753662 53.86708069 C59.46210052 57.49060929 59.46210052 57.49060929 60.92504883 60.51757812 C62.74302568 60.62680714 64.56484015 60.67342401 66.38598633 60.69335938 C67.4971582 60.71720703 68.60833008 60.74105469 69.75317383 60.765625 C72.10976278 60.80844848 74.46658979 60.83977775 76.82348633 60.859375 C77.93723633 60.88708984 79.05098633 60.91480469 80.19848633 60.94335938 C81.22377441 60.95794189 82.2490625 60.97252441 83.30541992 60.98754883 C85.92504883 61.51757812 85.92504883 61.51757812 87.75585938 63.01782227 C89.45350979 66.64744067 89.37304247 70.15852219 89.35864258 74.08789062 C89.36388443 74.92415985 89.36912628 75.76042908 89.37452698 76.62203979 C89.38094463 78.392221 89.37961347 80.16244486 89.37109375 81.93261719 C89.3626428 84.61277555 89.39125038 87.29075847 89.4230957 89.97070312 C89.47264683 101.85242597 88.62560375 111.63379767 80.11254883 120.69726562 C74.03971066 125.75073453 66.5309526 128.6583572 58.92504883 130.51757812 C56.88954095 132.55308601 57.74694785 136.78527548 57.73217773 139.58227539 C57.72400024 140.42788528 57.71582275 141.27349518 57.70739746 142.14472961 C57.68248241 144.95780725 57.6660073 147.77083403 57.65161133 150.58398438 C57.64362581 152.02392919 57.64362581 152.02392919 57.63547897 153.49296379 C57.60871425 158.57904132 57.58935455 163.66509408 57.57495117 168.7512207 C57.55834229 173.99810879 57.51360566 179.24436398 57.46257973 184.49101353 C57.42885825 188.52917674 57.41736803 192.56719114 57.41172409 196.6054821 C57.40501956 198.5387242 57.38981832 200.47195679 57.36583328 202.40506172 C57.33408881 205.11959708 57.33415932 207.83244564 57.34155273 210.54711914 C57.3251474 211.33965088 57.30874207 212.13218262 57.2918396 212.94873047 C57.35697811 218.82164546 59.08108765 223.03526195 62.92504883 227.51757812 C68.61512993 230.91544646 73.90586564 230.96304476 80.31567383 231.04492188 C85.48964721 231.21150814 85.48964721 231.21150814 87.62147522 232.71009827 C89.3958484 235.17036884 89.31207308 236.82311675 89.32910156 239.84350586 C89.34178574 240.93150986 89.35446991 242.01951385 89.36753845 243.14048767 C89.36460281 244.31551346 89.36166718 245.49053925 89.35864258 246.70117188 C89.36388443 247.90822281 89.36912628 249.11527374 89.37452698 250.35890198 C89.38095517 252.91349518 89.37959995 255.46811795 89.37109375 258.02270508 C89.36258975 261.93624501 89.39132753 265.84832334 89.4230957 269.76171875 C89.42470787 272.24153602 89.4241299 274.72135588 89.42114258 277.20117188 C89.43237656 278.37417343 89.44361053 279.54717499 89.45518494 280.75572205 C89.44111351 282.39245628 89.44111351 282.39245628 89.42675781 284.06225586 C89.42659164 285.02139389 89.42642548 285.98053192 89.42625427 286.96873474 C88.77018692 290.30511695 87.61324521 291.48464978 84.92504883 293.51757812 C82.86109924 294.0255127 82.86109924 294.0255127 80.63818359 294.03515625 C79.79953262 294.04776489 78.96088165 294.06037354 78.09681702 294.07336426 C76.74528786 294.06121887 76.74528786 294.06121887 75.36645508 294.04882812 C74.42632065 294.05265503 73.48618622 294.05648193 72.51756287 294.0604248 C70.52455579 294.06314638 68.53151314 294.05576804 66.53857422 294.0390625 C63.52918719 294.01787133 60.52224688 294.03874311 57.51293945 294.06445312 C38.57960909 294.09228368 23.27305997 290.21268364 9.14379883 276.79882812 C-3.45821829 263.84182461 -8.2257949 246.67471689 -8.22212219 228.93942261 C-8.22579888 227.98156707 -8.22947557 227.02371153 -8.23326367 226.03683007 C-8.24426663 222.83102577 -8.24813849 219.62525392 -8.25195312 216.41943359 C-8.25821997 214.11964821 -8.26486697 211.81986384 -8.27186584 209.52008057 C-8.29286957 201.97498271 -8.30325981 194.42988473 -8.31323242 186.88476562 C-8.31728034 184.28767003 -8.32139727 181.69057454 -8.3255825 179.09347916 C-8.34244065 168.29652357 -8.35707896 157.49957089 -8.36433125 146.70260429 C-8.36624103 143.90476353 -8.36816139 141.10692277 -8.37011719 138.30908203 C-8.37060093 137.61372043 -8.37108467 136.91835882 -8.37158307 136.20192565 C-8.37989532 124.9208701 -8.40525811 113.63992016 -8.43769787 102.35891078 C-8.47074064 90.77380745 -8.4884441 79.18877379 -8.49197549 67.6036216 C-8.49433091 61.09999466 -8.50335652 54.59653511 -8.52843666 48.09295273 C-8.55162699 41.98128185 -8.55598711 35.86988972 -8.54567528 29.75818634 C-8.54517772 27.51194713 -8.55156244 25.26569459 -8.56523132 23.01949692 C-8.58281298 19.95991455 -8.57591193 16.90134775 -8.56269836 13.84176636 C-8.57366761 12.94702854 -8.58463686 12.05229072 -8.5959385 11.13043964 C-8.53310428 5.13047947 -8.53310428 5.13047947 -6.16802788 1.96656227 C-3.8687392 0.37482278 -2.76569996 0.01271281 0 0 Z " fill="#FCFCFC" transform="translate(1034.074951171875,442.482421875)"/>
<path d="M0 0 C1.16801147 -0.01260864 2.33602295 -0.02521729 3.53942871 -0.03820801 C4.79678833 -0.03011108 6.05414795 -0.02201416 7.34960938 -0.01367188 C8.64402954 -0.01749878 9.93844971 -0.02132568 11.27209473 -0.02526855 C14.00922783 -0.03115875 16.74583796 -0.02261726 19.48291016 -0.00390625 C22.98707964 0.01888443 26.49002371 0.00575858 29.99414825 -0.01819611 C33.34189958 -0.03614642 36.68932325 -0.02356948 40.03710938 -0.01367188 C41.29446899 -0.0217688 42.55182861 -0.02986572 43.84729004 -0.03820801 C45.59930725 -0.01929504 45.59930725 -0.01929504 47.38671875 0 C48.41390015 0.00318237 49.44108154 0.00636475 50.49938965 0.00964355 C54.07951327 0.68465803 55.02694521 1.58381466 57.19335938 4.51757812 C57.58606992 7.59775209 57.73364918 10.31961422 57.70129395 13.3996582 C57.70753391 14.30680226 57.71377387 15.21394632 57.72020292 16.1485796 C57.73618602 19.19501885 57.72350777 22.24066387 57.7109375 25.28710938 C57.71635625 27.46837838 57.72347751 29.64964372 57.73217773 31.8309021 C57.75044332 37.76058771 57.74333009 43.68999554 57.73066139 49.61968613 C57.72055053 55.81848665 57.72992174 62.01726302 57.73620605 68.21606445 C57.74395477 79.294116 57.73150618 90.37204438 57.71116871 101.45007622 C57.69329747 111.49575158 57.69640152 121.54124205 57.71484375 131.58691406 C57.73617174 143.2508389 57.74421954 154.91464802 57.7323947 166.57858944 C57.72615113 172.75357949 57.72534789 178.92844215 57.73854065 185.10342407 C57.75007555 190.90814548 57.74211635 196.71251696 57.71896362 202.51720047 C57.71366394 204.65054365 57.71521171 206.78391617 57.72401428 208.91724777 C57.73490345 211.82373195 57.72128625 214.72908637 57.70129395 217.63549805 C57.71021683 218.48490872 57.71913972 219.3343194 57.728333 220.2094698 C57.67936781 223.86536794 57.53405952 226.05620114 55.32998657 229.04096222 C52.53882199 230.96992672 50.76734952 231.02468251 47.38671875 231.03515625 C45.63470154 231.05406921 45.63470154 231.05406921 43.84729004 231.07336426 C42.58993042 231.06526733 41.3325708 231.05717041 40.03710938 231.04882812 C38.74268921 231.05265503 37.44826904 231.05648193 36.11462402 231.0604248 C33.37749092 231.066315 30.64088079 231.05777351 27.90380859 231.0390625 C24.39963911 231.01627182 20.89669504 231.02939767 17.3925705 231.05335236 C14.04481917 231.07130267 10.6973955 231.05872573 7.34960938 231.04882812 C6.09224976 231.05692505 4.83489014 231.06502197 3.53942871 231.07336426 C2.37141724 231.06075562 1.20340576 231.04814697 0 231.03515625 C-1.0271814 231.03197388 -2.05436279 231.0287915 -3.1126709 231.0255127 C-6.69279452 230.35049822 -7.64022646 229.45134159 -9.80664062 226.51757812 C-10.19935117 223.43740416 -10.34693043 220.71554203 -10.3145752 217.63549805 C-10.32081516 216.72835399 -10.32705512 215.82120993 -10.33348417 214.88657665 C-10.34946727 211.8401374 -10.33678902 208.79449238 -10.32421875 205.74804688 C-10.3296375 203.56677787 -10.33675876 201.38551253 -10.34545898 199.20425415 C-10.36372457 193.27456854 -10.35661134 187.34516071 -10.34394264 181.41547012 C-10.33383178 175.2166696 -10.34320299 169.01789323 -10.3494873 162.8190918 C-10.35723602 151.74104025 -10.34478743 140.66311187 -10.32444996 129.58508003 C-10.30657872 119.53940467 -10.30968277 109.4939142 -10.328125 99.44824219 C-10.34945299 87.78431735 -10.35750079 76.12050823 -10.34567595 64.45656681 C-10.33943238 58.28157676 -10.33862914 52.1067141 -10.3518219 45.93173218 C-10.3633568 40.12701077 -10.3553976 34.32263929 -10.33224487 28.51795578 C-10.32694519 26.3846126 -10.32849296 24.25124008 -10.33729553 22.11790848 C-10.3481847 19.2114243 -10.3345675 16.30606988 -10.3145752 13.3996582 C-10.32349808 12.55024753 -10.33242097 11.70083685 -10.34161425 10.82568645 C-10.29264906 7.16978831 -10.14734077 4.97895511 -7.94326782 1.99419403 C-5.15210324 0.06522953 -3.38063077 0.01047374 0 0 Z " fill="#FBFCFB" transform="translate(951.806640625,505.482421875)"/>
<path d="M0 0 C1.16801147 -0.01583633 2.33602295 -0.03167267 3.53942871 -0.04798889 C4.79678833 -0.04302902 6.05414795 -0.03806915 7.34960938 -0.03295898 C8.64402954 -0.03915756 9.93844971 -0.04535614 11.27209473 -0.05174255 C14.00921436 -0.06213994 16.74581388 -0.05759528 19.48291016 -0.04296875 C22.98726328 -0.02577309 26.48997794 -0.04928523 29.99414825 -0.08445835 C33.34189886 -0.11172154 36.68925281 -0.10169721 40.03710938 -0.09545898 C41.9231488 -0.1153463 41.9231488 -0.1153463 43.84729004 -0.13563538 C45.59930725 -0.11683571 45.59930725 -0.11683571 47.38671875 -0.09765625 C48.41390015 -0.09669449 49.44108154 -0.09573273 50.49938965 -0.09474182 C53.19335938 0.53344727 53.19335938 0.53344727 55.32998657 2.51522923 C57.85484675 6.60489853 57.75150314 9.73749868 57.70129395 14.453125 C57.70753391 15.35225081 57.71377387 16.25137663 57.72020292 17.17774868 C57.73616003 20.19111273 57.7235179 23.20367094 57.7109375 26.21704102 C57.7163574 28.37713086 57.72347931 30.53721701 57.73217773 32.69729614 C57.75042958 38.56500925 57.74333573 44.43244137 57.73066139 50.30015945 C57.72054345 56.43709325 57.72992372 62.57400278 57.73620605 68.7109375 C57.74348596 79.01737798 57.73388569 89.32370386 57.71484375 99.63012695 C57.69307445 111.55048653 57.70012557 123.47057246 57.72214937 135.39092541 C57.74029353 145.6203429 57.74286648 155.84967795 57.7323947 166.07910633 C57.72615439 172.19095661 57.725339 178.30267822 57.73854065 184.41452026 C57.75008411 190.1601634 57.7421006 195.90545328 57.71896362 201.6510582 C57.71366853 203.76140633 57.71520392 205.87178413 57.72401428 207.98212051 C57.73492152 210.85974002 57.72126421 213.73622275 57.70129395 216.61376953 C57.71021683 217.45180335 57.71913972 218.28983717 57.728333 219.15326595 C57.67478641 223.12251816 57.46455885 225.09416901 55.32998657 228.55166531 C52.56661162 231.11477348 51.12146417 231.1610539 47.38671875 231.16455078 C46.21870728 231.17708389 45.0506958 231.189617 43.84729004 231.20252991 C41.96125061 231.18264259 41.96125061 231.18264259 40.03710938 231.16235352 C38.74268921 231.16476547 37.44826904 231.16717743 36.11462402 231.16966248 C33.37736555 231.1725181 30.64092642 231.15784492 27.90380859 231.13037109 C24.39959773 231.09628641 20.89685149 231.10230744 17.3925705 231.12103367 C14.04477169 231.13415886 10.69739797 231.11588504 7.34960938 231.09985352 C6.09224976 231.10481339 4.83489014 231.10977325 3.53942871 231.11488342 C2.37141724 231.09904709 1.20340576 231.08321075 0 231.06689453 C-1.0271814 231.06069595 -2.05436279 231.05449738 -3.1126709 231.04811096 C-6.68956246 230.36477135 -7.6407609 229.46599814 -9.80664062 226.53344727 C-10.19935117 223.4532733 -10.34693043 220.73141117 -10.3145752 217.65136719 C-10.32081516 216.74422313 -10.32705512 215.83707907 -10.33348417 214.90244579 C-10.34946727 211.85600654 -10.33678902 208.81036152 -10.32421875 205.76391602 C-10.3296375 203.58264701 -10.33675876 201.40138167 -10.34545898 199.22012329 C-10.36372457 193.29043768 -10.35661134 187.36102985 -10.34394264 181.43133926 C-10.33383178 175.23253874 -10.34320299 169.03376237 -10.3494873 162.83496094 C-10.35723602 151.75690939 -10.34478743 140.67898101 -10.32444996 129.60094917 C-10.30657872 119.55527382 -10.30968277 109.50978334 -10.328125 99.46411133 C-10.34945299 87.80018649 -10.35750079 76.13637737 -10.34567595 64.47243595 C-10.33943238 58.2974459 -10.33862914 52.12258324 -10.3518219 45.94760132 C-10.3633568 40.14287991 -10.3553976 34.33850843 -10.33224487 28.53382492 C-10.32694519 26.40048174 -10.32849296 24.26710922 -10.33729553 22.13377762 C-10.3481847 19.22729344 -10.3345675 16.32193902 -10.3145752 13.41552734 C-10.32349808 12.56611667 -10.33242097 11.71670599 -10.34161425 10.8415556 C-10.29265069 7.18577892 -10.14751993 4.99498993 -7.94326782 2.01048374 C-5.15460509 0.08269934 -3.37812313 0.02038545 0 0 Z " fill="#FBFCFB" transform="translate(357.806640625,505.466552734375)"/>
<path d="M0 0 C0.91652344 0.40089844 1.83304688 0.80179688 2.77734375 1.21484375 C14.85823016 7.06043395 23.28257157 17.02760713 29 29 C29.35964844 29.75152344 29.71929688 30.50304687 30.08984375 31.27734375 C34.38161475 42.53088154 33.37104184 57.98748554 29.33203125 69.10546875 C27.03529885 74.0963154 24.239628 78.57132172 21 83 C20.29037109 83.98613281 20.29037109 83.98613281 19.56640625 84.9921875 C11.73389042 94.97698106 -1.01513994 101.7705421 -13.58154297 103.31787109 C-30.42704547 104.52918508 -44.99239258 101.05069943 -58.28515625 90.12109375 C-69.83048083 79.10965701 -75.80115375 66.06414447 -76.34350586 50.08837891 C-76.56207296 35.16143216 -70.96453183 22.24650556 -60.75 11.25 C-44.55576085 -3.8912505 -20.52324811 -9.75695402 0 0 Z " fill="#3FA43F" transform="translate(575,571)"/>
<path d="M0 0 C2.47631631 1.67407774 4.81641428 3.40668457 7.140625 5.28515625 C8.12675781 6.04054688 9.11289062 6.7959375 10.12890625 7.57421875 C13.42582361 10.34099431 15.58744222 13.51657684 17.828125 17.16015625 C18.20517578 17.74667969 18.58222656 18.33320312 18.97070312 18.9375 C26.98718567 31.66873755 28.17715277 46.276269 25.45703125 60.98046875 C20.74864451 75.94571457 11.03134205 88.03391406 -2.859375 95.28515625 C-15.54356841 101.64334965 -30.90837632 102.83089714 -44.546875 98.66015625 C-59.85398008 92.45457311 -71.09738891 82.40450557 -77.671875 67.16015625 C-82.7220489 54.10279873 -83.88766877 40.66313342 -78.70703125 27.31640625 C-71.27575021 11.34223981 -59.29431807 0.4915448 -42.859375 -5.71484375 C-28.86780605 -9.7836796 -12.3153192 -7.38582668 0 0 Z " fill="#3FA33F" transform="translate(835.859375,573.71484375)"/>
<path d="M0 0 C0.90144241 -0.00241196 1.80288483 -0.00482391 2.73164368 -0.00730896 C4.63713989 -0.0063312 6.54266476 0.00704561 8.44799805 0.03198242 C11.33678043 0.06609333 14.22246644 0.05268746 17.11132812 0.03320312 C28.75391693 0.04229155 39.23489501 0.39816974 48.15380859 8.828125 C54.34020544 16.14780148 55.45118176 23.69382468 55.23828125 33.00390625 C55.24923828 34.06996094 55.26019531 35.13601563 55.27148438 36.234375 C55.19860508 43.95958057 55.19860508 43.95958057 53.01683044 46.75271606 C50.04555382 49.13399026 48.46303433 49.13517239 44.68554688 49.14648438 C43.4774939 49.15909302 42.26944092 49.17170166 41.02478027 49.18469238 C39.7236731 49.17659546 38.42256592 49.16849854 37.08203125 49.16015625 C35.7296928 49.16285209 34.37735624 49.16673528 33.02502441 49.17175293 C30.19374091 49.17764384 27.36296292 49.16909918 24.53173828 49.15039062 C20.90651462 49.12760007 17.28247545 49.14072552 13.65729523 49.16468048 C10.86565257 49.17915021 8.07428973 49.17452736 5.28263855 49.16416931 C3.29734527 49.1602117 1.31204101 49.17233791 -0.67321777 49.18469238 C-2.48529724 49.16577942 -2.48529724 49.16577942 -4.33398438 49.14648438 C-5.39669556 49.143302 -6.45940674 49.14011963 -7.55432129 49.13684082 C-11.03819953 48.49797883 -12.21930194 47.43913408 -14.32421875 44.62890625 C-14.7340835 41.59027965 -14.90907601 38.92116022 -14.890625 35.8828125 C-14.89682358 35.03468491 -14.90302216 34.18655731 -14.90940857 33.31272888 C-14.9165025 31.52156724 -14.9133401 29.73033961 -14.90063477 27.93920898 C-14.88678089 25.20367553 -14.92082734 22.47157203 -14.95898438 19.73632812 C-14.95993574 17.99348875 -14.95807579 16.2506451 -14.953125 14.5078125 C-14.96638321 13.69308975 -14.97964142 12.878367 -14.99330139 12.03895569 C-14.92785868 8.03127981 -14.59641632 6.04844511 -12.36767578 2.61328125 C-8.16954344 -0.12395761 -4.91479384 -0.07563519 0 0 Z " fill="#FBFCFB" transform="translate(957.32421875,442.37109375)"/>
<path d="M0 0 C0.85372192 -0.00619858 1.70744385 -0.01239716 2.58703613 -0.01878357 C4.39590314 -0.02588327 6.20483548 -0.02270505 8.01367188 -0.01000977 C10.744762 0.00372278 13.47233139 -0.03004719 16.203125 -0.06835938 C27.01911338 -0.1176155 37.27266027 0.17819158 45.76171875 7.79077148 C53.39553362 15.6761227 54.79278278 22.59991619 54.71875 33.25390625 C54.73873047 34.28580078 54.75871094 35.31769531 54.77929688 36.38085938 C54.77833008 37.87069336 54.77833008 37.87069336 54.77734375 39.390625 C54.77919678 40.28869873 54.7810498 41.18677246 54.78295898 42.11206055 C54.10866676 45.41067844 52.88563091 46.46759237 50.28125 48.56640625 C47.58728027 49.07434082 47.58728027 49.07434082 44.47460938 49.08398438 C42.72259216 49.10289734 42.72259216 49.10289734 40.93518066 49.12219238 C39.67782104 49.11409546 38.42046143 49.10599854 37.125 49.09765625 C35.83057983 49.10148315 34.53615967 49.10531006 33.20251465 49.10925293 C30.46538154 49.11514312 27.72877141 49.10660164 24.99169922 49.08789062 C21.48752974 49.06509994 17.98458566 49.07822579 14.48046112 49.10218048 C11.13270979 49.12013079 7.78528613 49.10755385 4.4375 49.09765625 C2.55146057 49.10980164 2.55146057 49.10980164 0.62731934 49.12219238 C-0.54069214 49.10958374 -1.70870361 49.0969751 -2.91210938 49.08398438 C-3.93929077 49.080802 -4.96647217 49.07761963 -6.02478027 49.07434082 C-9.45675389 48.42725929 -10.63877451 47.33428238 -12.71875 44.56640625 C-13.22668457 42.59375 -13.22668457 42.59375 -13.23632812 40.50390625 C-13.24893677 39.71628906 -13.26154541 38.92867188 -13.27453613 38.1171875 C-13.26643921 37.27542969 -13.25834229 36.43367188 -13.25 35.56640625 C-13.2538269 34.69371094 -13.25765381 33.82101562 -13.26159668 32.921875 C-13.2643149 31.07941533 -13.25695994 29.23691701 -13.24023438 27.39453125 C-13.21882248 24.57594691 -13.24003801 21.7599114 -13.265625 18.94140625 C-13.26298171 17.14973396 -13.25785669 15.35806326 -13.25 13.56640625 C-13.25809692 12.72464844 -13.26619385 11.88289063 -13.27453613 11.015625 C-13.21704408 7.4243003 -13.0750502 5.17140352 -11.23046875 2.03930664 C-7.58480847 -0.09854993 -4.11071958 -0.02496583 0 0 Z " fill="#FBFCFB" transform="translate(360.71875,442.43359375)"/>
<path d="M0 0 C4.42870435 2.56062947 8.65052858 6.38349272 10.328125 11.32421875 C11.2877259 16.96708927 11.81036348 23.12462496 9.0625 28.3125 C5.14149119 33.47172212 1.21958342 37.05571312 -5.3125 38.4375 C-11.71163498 39.23469863 -16.2444112 38.7213406 -21.5546875 34.9375 C-25.09990868 31.91224459 -27.81345251 28.93464248 -29.3125 24.4375 C-30.26465468 11.74820785 -30.26465468 11.74820785 -26.3125 6.4375 C-18.84827371 -1.02672629 -10.37527345 -4.68689959 0 0 Z " fill="#4DAE49" transform="translate(1151.3125,437.5625)"/>
<path d="M0 0 C4.42870435 2.56062947 8.65052858 6.38349272 10.328125 11.32421875 C11.2877259 16.96708927 11.81036348 23.12462496 9.0625 28.3125 C5.14149119 33.47172212 1.21958342 37.05571312 -5.3125 38.4375 C-11.71163498 39.23469863 -16.2444112 38.7213406 -21.5546875 34.9375 C-25.09990868 31.91224459 -27.81345251 28.93464248 -29.3125 24.4375 C-30.26465468 11.74820785 -30.26465468 11.74820785 -26.3125 6.4375 C-18.84827371 -1.02672629 -10.37527345 -4.68689959 0 0 Z M-24.0390625 9.78125 C-26.32348627 14.54630571 -26.14509148 19.28875429 -25.3125 24.4375 C-23.05859697 29.08389556 -20.19097932 32.54435877 -15.3125 34.4375 C-8.58156702 35.42195618 -2.83398884 34.48319919 2.6875 30.4375 C6.39552596 26.72947404 7.00274771 23.57818165 7.25 18.5 C7.0710632 13.68660019 6.418186 10.49764908 3.234375 6.83984375 C-0.70342907 3.26996582 -3.9024712 1.664924 -9.1875 0.8125 C-15.25050018 1.13160527 -20.52764746 5.01462324 -24.0390625 9.78125 Z " fill="#E6F4E5" transform="translate(1151.3125,437.5625)"/>
<path d="M0 0 C2.0625 -0.061875 4.125 -0.12375 6.25 -0.1875 C7.99023438 -0.23970703 7.99023438 -0.23970703 9.765625 -0.29296875 C13.24931754 0.02258311 14.60186139 0.49683342 17 3 C17.4375 6 17.4375 6 17 9 C15.5 10.875 15.5 10.875 14 12 C14.309375 12.721875 14.61875 13.44375 14.9375 14.1875 C15.92560539 16.80307309 16.5287754 19.25118982 17 22 C14.6875 21.875 14.6875 21.875 12 21 C9 16.13793103 9 16.13793103 9 13 C7.35 13 5.7 13 4 13 C4 15.97 4 18.94 4 22 C2.68 22 1.36 22 0 22 C0 14.74 0 7.48 0 0 Z " fill="#EBF5EB" transform="translate(1134,445)"/>
<path d="M0 0 C0.33 0 0.66 0 1 0 C1 7.26 1 14.52 1 22 C2.32 22 3.64 22 5 22 C5 19.03 5 16.06 5 13 C6.65 13 8.3 13 10 13 C10.24234375 13.56589844 10.4846875 14.13179688 10.734375 14.71484375 C11.06953125 15.44832031 11.4046875 16.18179687 11.75 16.9375 C12.07484375 17.66839844 12.3996875 18.39929688 12.734375 19.15234375 C13.86169372 21.18806644 13.86169372 21.18806644 16.140625 21.75390625 C16.75421875 21.83511719 17.3678125 21.91632813 18 22 C18.33 21.34 18.66 20.68 19 20 C19.66 20.99 20.32 21.98 21 23 C14.8985004 26.61570347 10.10822182 28.03636167 3 27 C-0.125 25.625 -0.125 25.625 -2 24 C-2 23.34 -2 22.68 -2 22 C-1.34 22 -0.68 22 0 22 C0 14.74 0 7.48 0 0 Z " fill="#55AE52" transform="translate(1133,445)"/>
<path d="M0 0 C4.29 0 8.58 0 13 0 C13.33 2.64 13.66 5.28 14 8 C13.649375 7.360625 13.29875 6.72125 12.9375 6.0625 C10.22815794 3.17836168 7.84141089 3.2899178 4 3 C4 5.31 4 7.62 4 10 C5.98 10 7.96 10 10 10 C9.67 10.99 9.34 11.98 9 13 C7.35 13 5.7 13 4 13 C4 15.97 4 18.94 4 22 C2.68 22 1.36 22 0 22 C0 14.74 0 7.48 0 0 Z " fill="#F0F9F1" transform="translate(1134,445)"/>
<path d="M0 0 C1.70840281 1.63412443 2.93453047 2.86906094 4 5 C4.99 5 5.98 5 7 5 C7.10841951 6.91541138 7.18578079 8.83259773 7.25 10.75 C7.29640625 11.81734375 7.3428125 12.8846875 7.390625 13.984375 C6.91735478 17.63802112 5.80844958 18.72228105 3 21 C-0.53402157 18.64398562 -1.505375 16.93322367 -3 13 C-2.28739821 10.80281116 -1.61450567 9.61450567 0 8 C0.07148199 6.64756083 0.08399454 5.29165633 0.0625 3.9375 C0.041875 2.638125 0.02125 1.33875 0 0 Z " fill="#45A743" transform="translate(1150,446)"/>
<path d="M0 0 C5.3563105 2.57448472 9.45253923 5.52295935 12 11 C12.29296875 14.11328125 12.29296875 14.11328125 12.1875 17.3125 C12.16042969 18.38113281 12.13335938 19.44976562 12.10546875 20.55078125 C12.07066406 21.35902344 12.03585937 22.16726563 12 23 C11.67 23 11.34 23 11 23 C11 19.37 11 15.74 11 12 C9.68 12.33 8.36 12.66 7 13 C6.7525 12.195625 6.505 11.39125 6.25 10.5625 C5.31523271 7.90259401 5.31523271 7.90259401 3.34375 7.375 C0.3170631 6.8907301 -2.69241733 6.65153079 -5.75 6.4375 C-6.92046875 6.35371094 -8.0909375 6.26992188 -9.296875 6.18359375 C-10.18890625 6.12300781 -11.0809375 6.06242187 -12 6 C-12 5.67 -12 5.34 -12 5 C-10.35 4.67 -8.7 4.34 -7 4 C-7.99 3.01 -8.98 2.02 -10 1 C-6.70717765 -0.64641118 -3.54445667 -0.63896668 0 0 Z " fill="#5FB15D" transform="translate(1146,439)"/>
<path d="M0 0 C5.48372825 0.0499169 9.48300656 1.08080868 13.9375 4.3125 C15.9375 6.5625 15.9375 6.5625 16.9375 8.3125 C15.9475 9.3025 14.9575 10.2925 13.9375 11.3125 C13.195 10.52875 12.4525 9.745 11.6875 8.9375 C8.4712644 5.86745692 6.60423676 4.42889223 2.140625 4.1171875 C1.16609375 4.14039063 0.1915625 4.16359375 -0.8125 4.1875 C-1.79734375 4.20554687 -2.7821875 4.22359375 -3.796875 4.2421875 C-4.54453125 4.26539063 -5.2921875 4.28859375 -6.0625 4.3125 C-6.0625 -0.54142428 -4.38657308 0.11464221 0 0 Z " fill="#EDF7EC" transform="translate(1141.0625,435.6875)"/>
<path d="M0 0 C0.99 0 1.98 0 3 0 C3 0.66 3 1.32 3 2 C2.01 2.495 2.01 2.495 1 3 C0.67 24.12 0.34 45.24 0 67 C-0.33 67 -0.66 67 -1 67 C-1.02312635 58.4119428 -1.04091658 49.82389851 -1.05181217 41.23581791 C-1.05704036 37.248428 -1.06413684 33.26105933 -1.07543945 29.27368164 C-1.08627061 25.42874886 -1.09227732 21.58383655 -1.09487724 17.73888969 C-1.09673108 16.26881017 -1.10035091 14.79873182 -1.10573006 13.32866096 C-1.11294355 11.27645533 -1.11399081 9.22433533 -1.11352539 7.17211914 C-1.115746 6.00185684 -1.11796661 4.83159454 -1.12025452 3.62586975 C-1 1 -1 1 0 0 Z " fill="#4AA749" transform="translate(503,730)"/>
<path d="M0 0 C0.66 0.33 1.32 0.66 2 1 C2.33 1.99 2.66 2.98 3 4 C1.63875 4.8353125 1.63875 4.8353125 0.25 5.6875 C-2.84453391 7.8893799 -4.79281468 9.94389725 -7 13 C-7.33 12.67 -7.66 12.34 -8 12 C-9.28446919 14.56893838 -9.32977144 16.76576337 -9.5625 19.625 C-9.64628906 20.62789063 -9.73007813 21.63078125 -9.81640625 22.6640625 C-9.87699219 23.43492187 -9.93757813 24.20578125 -10 25 C-10.33 25 -10.66 25 -11 25 C-11.57644362 11.80584611 -11.57644362 11.80584611 -8 7 C-5.43788896 4.52885148 -2.77512548 2.22801048 0 0 Z " fill="#DFF0DE" transform="translate(1133,437)"/>
<path d="M0 0 C3.375 -0.125 3.375 -0.125 7 0 C7.66 0.66 8.32 1.32 9 2 C8.46428571 5.53571429 8.46428571 5.53571429 7 7 C4.66702567 7.04092937 2.33294775 7.04241723 0 7 C0 4.69 0 2.38 0 0 Z " fill="#66B965" transform="translate(1138,448)"/>
<path d="M0 0 C2.9375 -0.375 2.9375 -0.375 6 0 C6.99 0.99 7.98 1.98 9 3 C4.545 3.495 4.545 3.495 0 4 C-0.33 11.26 -0.66 18.52 -1 26 C-1.33 26 -1.66 26 -2 26 C-2.05799124 22.22923111 -2.09359306 18.45857666 -2.125 14.6875 C-2.14175781 13.61564453 -2.15851563 12.54378906 -2.17578125 11.43945312 C-2.18222656 10.41142578 -2.18867187 9.38339844 -2.1953125 8.32421875 C-2.20578613 7.37635498 -2.21625977 6.42849121 -2.22705078 5.4519043 C-2 3 -2 3 0 0 Z " fill="#3DA739" transform="translate(1134,441)"/>
<path d="M0 0 C2.97 0 5.94 0 9 0 C9 0.66 9 1.32 9 2 C9.99 2.33 10.98 2.66 12 3 C11.67 3.66 11.34 4.32 11 5 C6.71 5 2.42 5 -2 5 C-2 4.67 -2 4.34 -2 4 C-0.35 3.67 1.3 3.34 3 3 C2.01 2.01 1.02 1.02 0 0 Z " fill="#4EB04D" transform="translate(1136,440)"/>
<path d="M0 0 C2.89932357 2.39509338 3.50168276 4.31245243 4 8 C2.35 7.67 0.7 7.34 -1 7 C-1.625 5.1875 -1.625 5.1875 -2 3 C-1.34 2.01 -0.68 1.02 0 0 Z " fill="#E1F1E2" transform="translate(1147,459)"/>
<path d="M0 0 C0.99 0.33 1.98 0.66 3 1 C1.92643323 2.15498897 0.84070212 3.29867867 -0.25 4.4375 C-0.85328125 5.07558594 -1.4565625 5.71367188 -2.078125 6.37109375 C-4.10048016 8.08516306 -5.41270605 8.59358878 -8 9 C-7.04270084 7.87411986 -6.08412105 6.7493285 -5.125 5.625 C-4.59132813 4.99851562 -4.05765625 4.37203125 -3.5078125 3.7265625 C-2.38567993 2.44163349 -1.20628025 1.20628025 0 0 Z " fill="#50AD51" transform="translate(294,605)"/>
<path d="M0 0 C-1 2 -1 2 -2.77734375 2.703125 C-3.84662109 2.97382812 -3.84662109 2.97382812 -4.9375 3.25 C-5.64777344 3.44078125 -6.35804688 3.6315625 -7.08984375 3.828125 C-8.03537109 3.91320312 -8.03537109 3.91320312 -9 4 C-9.66 3.34 -10.32 2.68 -11 2 C-3.57142857 -1.57142857 -3.57142857 -1.57142857 0 0 Z " fill="#57B257" transform="translate(797,569)"/>
<path d="M0 0 C0.33 0.66 0.66 1.32 1 2 C0.67 2.66 0.34 3.32 0 4 C-4.455 3.01 -4.455 3.01 -9 2 C-5.5647952 -0.29013653 -4.014669 -0.17842973 0 0 Z " fill="#F9FBF9" transform="translate(1150,437)"/>
<path d="M0 0 C0.33 0.99 0.66 1.98 1 3 C-1.97 5.475 -1.97 5.475 -5 8 C-5 5 -5 5 -2.5 2.3125 C-1.675 1.549375 -0.85 0.78625 0 0 Z " fill="#4BAA4A" transform="translate(309,591)"/>
<path d="M0 0 C0.33 0.66 0.66 1.32 1 2 C-1.47812494 5.45167403 -2.79606135 7.23163306 -7 8 C-6.02133662 6.85373678 -5.04205413 5.70800212 -4.0625 4.5625 C-3.51722656 3.92441406 -2.97195313 3.28632812 -2.41015625 2.62890625 C-1.63204305 1.73008851 -0.84063472 0.84063472 0 0 Z " fill="#5BB35B" transform="translate(517,580)"/>
<path d="M0 0 C2.08954032 4.17908064 2.16552619 4.80410573 1 9 C0.34 9 -0.32 9 -1 9 C-0.67 6.03 -0.34 3.06 0 0 Z " fill="#49A849" transform="translate(501,605)"/>
</svg>
